<svg xmlns="http://www.w3.org/2000/svg" xmlns:xlink="http://www.w3.org/1999/xlink" width="296" height="201" viewBox="0 0 296 201">
  <defs>
    <clipPath id="clip-path">
      <rect id="Rectángulo_401585" data-name="Rectángulo 401585" width="280.704" height="194.485" fill="none"/>
    </clipPath>
    <clipPath id="clip-path-3">
      <rect id="Rectángulo_401557" data-name="Rectángulo 401557" width="30.32" height="62.982" fill="none"/>
    </clipPath>
    <clipPath id="clip-path-4">
      <rect id="Rectángulo_401558" data-name="Rectángulo 401558" width="25.411" height="44.083" fill="none"/>
    </clipPath>
    <clipPath id="clip-path-5">
      <rect id="Rectángulo_401559" data-name="Rectángulo 401559" width="63.525" height="56.099" fill="none"/>
    </clipPath>
    <clipPath id="clip-path-6">
      <rect id="Rectángulo_401560" data-name="Rectángulo 401560" width="7.016" height="7.016" fill="none"/>
    </clipPath>
    <clipPath id="clip-path-7">
      <rect id="Rectángulo_401561" data-name="Rectángulo 401561" width="7.015" height="7.015" fill="none"/>
    </clipPath>
    <clipPath id="clip-path-12">
      <rect id="Rectángulo_401566" data-name="Rectángulo 401566" width="19.287" height="23.723" fill="none"/>
    </clipPath>
    <clipPath id="clip-path-19">
      <rect id="Rectángulo_401575" data-name="Rectángulo 401575" width="13.511" height="37.51" fill="none"/>
    </clipPath>
    <clipPath id="clip-path-20">
      <rect id="Rectángulo_401576" data-name="Rectángulo 401576" width="8.817" height="8.817" fill="none"/>
    </clipPath>
    <clipPath id="clip-path-21">
      <rect id="Rectángulo_401577" data-name="Rectángulo 401577" width="8.815" height="8.815" fill="none"/>
    </clipPath>
    <clipPath id="clip-path-26">
      <rect id="Rectángulo_401582" data-name="Rectángulo 401582" width="16.031" height="1.056" fill="none"/>
    </clipPath>
    <clipPath id="clip-path-27">
      <rect id="Rectángulo_401583" data-name="Rectángulo 401583" width="15.352" height="8.271" fill="none"/>
    </clipPath>
  </defs>
  <g id="Grupo_1107195" data-name="Grupo 1107195" transform="translate(-1124 -2753)">
    <path id="Rectángulo_401546" data-name="Rectángulo 401546" d="M15,0H281a15,15,0,0,1,15,15V201a0,0,0,0,1,0,0H0a0,0,0,0,1,0,0V15A15,15,0,0,1,15,0Z" transform="translate(1124 2753)" fill="#e9f5ec"/>
    <g id="Grupo_1101324" data-name="Grupo 1101324" transform="translate(1043 2800)">
      <g id="Grupo_1101258" data-name="Grupo 1101258">
        <path id="Trazado_876724" data-name="Trazado 876724" d="M298.918,14.994c-6.584-1.549-7.516-2.48-9.064-9.064a1.457,1.457,0,0,0-2.837,0c-1.55,6.584-2.482,7.515-9.066,9.064a1.458,1.458,0,0,0,0,2.838c6.584,1.549,7.516,2.481,9.066,9.065a1.457,1.457,0,0,0,2.837,0c1.548-6.584,2.48-7.516,9.064-9.065a1.458,1.458,0,0,0,0-2.838" fill="#7bab4b"/>
        <path id="Trazado_876728" data-name="Trazado 876728" d="M292.783,12.164c-4.755-1.119-5.429-1.791-6.547-6.547a1.052,1.052,0,0,0-2.049,0c-1.12,4.755-1.793,5.428-6.548,6.547a1.053,1.053,0,0,0,0,2.05c4.755,1.119,5.429,1.792,6.548,6.547a1.053,1.053,0,0,0,2.049,0c1.118-4.755,1.791-5.429,6.547-6.547a1.053,1.053,0,0,0,0-2.05" transform="translate(-135.776 -24.796)" fill="#7bab4b"/>
        <path id="Trazado_876725" data-name="Trazado 876725" d="M356.29,7.2C351.635,6.109,350.975,5.45,349.88.8a1.03,1.03,0,0,0-2.006,0c-1.1,4.655-1.754,5.314-6.409,6.409a1.031,1.031,0,0,0,0,2.006c4.655,1.1,5.313,1.754,6.409,6.409a1.03,1.03,0,0,0,2.006,0c1.1-4.655,1.755-5.314,6.41-6.409a1.031,1.031,0,0,0,0-2.006" fill="#ff6b77"/>
        <path id="Trazado_876727" data-name="Trazado 876727" d="M8.907,85.225a.866.866,0,0,0-.885.284L5.993,87.945,1.515,82.871a.866.866,0,0,0-1.5.731L2.289,95.845a.866.866,0,0,0,1.517.4l2.031-2.436,4.476,5.074a.868.868,0,0,0,1.03.205.861.861,0,0,0,.471-.937L9.54,85.906a.868.868,0,0,0-.633-.681" transform="translate(119 -13)" fill="#ff6b77"/>
      </g>
    </g>
    <g id="Grupo_1101355" data-name="Grupo 1101355" transform="translate(1131.148 2759.515)">
      <g id="Grupo_1101432" data-name="Grupo 1101432" clip-path="url(#clip-path)">
        <g id="Grupo_1101431" data-name="Grupo 1101431" transform="translate(0 0)">
          <g id="Grupo_1101430" data-name="Grupo 1101430" clip-path="url(#clip-path)">
            <path id="Trazado_896958" data-name="Trazado 896958" d="M271.936,174.93c-16.03,0-218.219.109-218.219.083-.089-.209-36.937-41.483,6.912-76.128C81.862,82.109,48.089,56.442,74.937,30.307c20.476-19.932,41.724,2.173,63.909-7.1a35.651,35.651,0,0,0,11.791-8.317,43.786,43.786,0,0,1,7.246-5.981A51.331,51.331,0,0,1,173,2.24,66.756,66.756,0,0,1,185.234.209c24.788-1.853,52.685,8.568,67.081,23.8,2.9,3.067,16.078,18.937,5.689,40.75-6.56,13.772,19.572,31.691,25.669,49.367,15.347,44.492-11.512,60.284-11.737,60.806" transform="translate(-34.369 18.728)" fill="#ebf3fa"/>
            <path id="Trazado_896959" data-name="Trazado 896959" d="M401.865,829.7s7.831-11.484-1.343-17.214c0,0-6.575-3.049-11.567-2.19,0,0,8.441,11.152,6.269,12.595s-8.51-13.105-8.51-13.105-14.175.191-18.447,2.859c0,0,13.074,8.485,10.614,9.348s-16.475-7.334-16.475-7.334-12.807,3.665-11.231,11.551,6.346,9.847,8.3,9.417,13.028-6.123,13.46-4.531-5.944,7.655-10.791,8.442c0,0,10.325,9.131,16.117,5.526s5.8-8.306,9.42-10.469,6.875-2.519,5.5-.569-8.086,4.439-9.84,8.537-3.422,6.915,2.8,5.263,16-7.42,15.861-12.772Z" transform="translate(-308.189 -710.929)" fill="#aec3ff"/>
            <path id="Trazado_896960" data-name="Trazado 896960" d="M404.876,929.481s35.3-5.287,44.252,3.986a25.8,25.8,0,0,0,8.155,9.127l1.081,2.172s-6.86-5.8-9.1-5.947c0,0,2.048-12.941-44.387-9.338" transform="translate(-355.452 -814.699)" fill="#aec3ff"/>
            <path id="Trazado_896961" data-name="Trazado 896961" d="M819.148,1042.761a22.4,22.4,0,0,1,9.873,14.783l-1.367.276s-3.58-10.128-8.423-13.708-.083-1.351-.083-1.351" transform="translate(-717.316 -914.866)" fill="#aec3ff"/>
            <path id="Trazado_896962" data-name="Trazado 896962" d="M651.9,1104.142s6.109-18.3-8.312-22.481c0,0-9.936-1.582-16.277,1.455,0,0,15.5,11.7,13.142,14.446s-16.328-14.279-16.328-14.279-18.858,5.623-23.552,10.8c0,0,20.674,6.38,17.715,8.465s-24.78-3.555-24.78-3.555-15.715,9.745-10.624,19.679,12.2,10.747,14.65,9.432,15.08-13.112,16.259-11.149-5.039,12.474-11.214,15.36c0,0,17.247,8.284,23.616,1.276s4.6-13.289,8.616-17.549,8.227-5.967,7.126-2.841-9.118,8.991-9.908,15.127-1.951,10.531,5.733,5.968,18.552-15.967,16.345-23.063Z" transform="translate(-510.836 -949.258)" fill="#d2e0ff"/>
            <path id="Trazado_896963" data-name="Trazado 896963" d="M659.073,1263.765s45.141-20.43,60.606-11.436c0,0,5.257,6.446,2.207,7.1,0,0-2.165-18.058-62.813,4.34" transform="translate(-578.618 -1097.445)" fill="#d2e0ff"/>
            <g id="Grupo_1101357" data-name="Grupo 1101357" transform="translate(156.066 15.959)" opacity="0.3">
              <g id="Grupo_1101356" data-name="Grupo 1101356">
                <g id="Grupo_1101355-2" data-name="Grupo 1101355" clip-path="url(#clip-path-3)">
                  <path id="Trazado_896964" data-name="Trazado 896964" d="M1279.194,193.715s-3.735-24.05,5.756-41.716,21.7-24.768,23.7-19.633-17.172,19.556-22.342,33.85a158.739,158.739,0,0,0-7.11,27.5" transform="translate(-1278.47 -130.733)" fill="#afcdfb"/>
                </g>
              </g>
            </g>
            <g id="Grupo_1101360" data-name="Grupo 1101360" transform="translate(161.496 40.392)" opacity="0.3">
              <g id="Grupo_1101359" data-name="Grupo 1101359">
                <g id="Grupo_1101358" data-name="Grupo 1101358" clip-path="url(#clip-path-4)">
                  <path id="Trazado_896965" data-name="Trazado 896965" d="M1323.015,374.965s-1.193-17.715,6.823-29.954,17.34-16.628,18.464-12.77-13.718,13.126-18.38,23.187a115.793,115.793,0,0,0-6.907,19.536" transform="translate(-1322.952 -330.883)" fill="#afcdfb"/>
                </g>
              </g>
            </g>
            <g id="Grupo_1101363" data-name="Grupo 1101363" transform="translate(173.228 42.719)" opacity="0.3">
              <g id="Grupo_1101362" data-name="Grupo 1101362">
                <g id="Grupo_1101361" data-name="Grupo 1101361" clip-path="url(#clip-path-5)">
                  <path id="Trazado_896966" data-name="Trazado 896966" d="M1481.782,356.842c-2.54-9.4-18.4-6.473-18.4-6.473s-10.779,16.44-13.912,16.83,6.471-15.856,6.471-15.856c-6.069-.591-21.542,6.839-21.542,6.839s.967,19.189-2.165,18.8.01-17.034.01-17.034c-5.875,1.758-11.362,8.608-11.362,8.608-6.86,11.156,7.82,19.389,7.82,19.389a31.238,31.238,0,0,1-3.925,14.291h0a22.644,22.644,0,0,0-1.873,3.805h1.6q.2-.644.436-1.243a.009.009,0,0,1,0-.007l.007-.017c.11-.247.268-.6.464-1.028v0s0,0,0,0c.49-.958.821-1.665,1.03-2.175l0,0c1.468-3.006,3.582-6.921,4.991-7.742a3.1,3.1,0,0,1-.342-.735l.342.735c2.737,5.876,16.443,6.863,24.08,5.3s4.31-3.717.2-7.215-12.725-2.582-15.27-3.954,1.176-2.74,6.267-2.346,7.633,5.487,15.856,6.275,14.5-14.676,14.5-14.676c-5.679,1.759-15.859-1.38-16.249-3.338s14.686-1.753,17.036-2.339,6.464-5.282,3.925-14.682" transform="translate(-1419.057 -349.938)" fill="#afcdfb"/>
                </g>
              </g>
            </g>
            <path id="Trazado_896967" data-name="Trazado 896967" d="M922.2,648.561s10.786-28.041-9.58-27.4-64.021-7.283-66.889,3.209,1.238,49.368,5.4,54.466,3.652,14.143,17.565,16.267c0,0,2.443,5.685,13.063,5.179s26.127-7.728,26.127-7.728l18.055-1.7V665.575Z" transform="translate(-741.647 -543.338)" fill="#f49369"/>
            <path id="Trazado_896968" data-name="Trazado 896968" d="M819.571,560.491s4.885,9.982-.425,16.993c0,0-1.063,9.559-12.958,9.984a16.6,16.6,0,0,1-16.25,0,14.41,14.41,0,0,1-15.083,7l-.051-.007a7.728,7.728,0,0,1,1.165,2.829,8.686,8.686,0,0,1-.184,4.245,10.576,10.576,0,0,1-.981,2.285s0,.174.006.483c.006,2.489-.218,13.711-4.751,13.273-5.1-.492-8.69-11.844-8.265-13.332,0,0-4.886-4.248-2.762-9.983,0,0-5.1-12.744,6.585-20.392s19.755-1.911,19.755-1.911,3.991-3.6,8.61-2.648c0,0,.957-6.69,3.346-9.08,0,0-3.673-7.389-1.336-13.655,0,0-6.789-10.08-4.08-18.841,0,0-2.709-4.62-2.231-7.488a21.913,21.913,0,0,1-16.736,2.942s-9.23,3.908-16.558,1.519c0,0-9.877,2.7-16.089-1.519,0,0-6.849,2.633-12.106-1.189.034.1,1.732,5.141-.161,9.558,0,0,3.5,5.415,1.434,11.469,0,0,4.938,5.1,2.23,11.629,0,0,5.576,4.461,2.549,10.354,0,0,8.219,11.834-4.95,14.809,0,0-10.2,1.7-9.559-9.559,0,0-7.156-1.9-7.634-10.825,0,0-7.169-3.982-3.346-14.178,0,0-4.316-5.893-1.122-14.973,0,0-4.367-4.842-1.177-12.808a13.923,13.923,0,0,1-.209-13.063s-1.459-8.022,5.746-10.972q.387-.159.808-.3a15.171,15.171,0,0,1,2.9-.626c11.364-1.38,14.763,5.629,14.763,5.629a17.787,17.787,0,0,1,16.844,2.826s6.372-5.1,16.089-.8c0,0,9.283-5.291,17.548-1.426l.01.006.062.029a8.886,8.886,0,0,1,1.022-1.388,10.167,10.167,0,0,1,11.191-2.967s5.842-6.8,14.232-2.761a14.263,14.263,0,0,1,2.8,1.754c.227.183.443.372.648.564,4.71,4.4,3.994,10.932,1.865,14.791a16.618,16.618,0,0,1,1.651,14.411s8.067,3.749,5.358,15.378c0,0,4.62,6.372,3.823,12.9s-4.042,9.019-4.042,9.019" transform="translate(-618.714 -430.526)" fill="#ea7147"/>
            <path id="Trazado_896969" data-name="Trazado 896969" d="M756.33,663.958c-1.2,0-5.926-.248-8.943-3.981a13.023,13.023,0,0,1-4.162-1.008,10.512,10.512,0,0,1-6.121-6.827.425.425,0,1,1,.814-.244,9.545,9.545,0,0,0,5.613,6.278,12.041,12.041,0,0,0,4.076.96.425.425,0,0,1,.329.164c3.113,4.017,8.575,3.806,8.63,3.8a.425.425,0,0,1,.042.849c-.027,0-.123.005-.277.005" transform="translate(-647.107 -572.052)" fill="#d15e3f"/>
            <path id="Trazado_896970" data-name="Trazado 896970" d="M1225.769,1315.2c-.435-.061-1.517-.219-1.539-.222-4.83-.907-6.943-6.028-7.056-6.173a.426.426,0,0,1,.672-.522,11.411,11.411,0,0,0,1.883,1.775,12.5,12.5,0,0,0,4.925,2.32l-.051-.007a7.726,7.726,0,0,1,1.165,2.829" transform="translate(-1068.512 -1148.432)" fill="#d15e3f"/>
            <path id="Trazado_896971" data-name="Trazado 896971" d="M1399.594,1237.355a.425.425,0,0,1-.388-.6,9.3,9.3,0,0,0-.017-6.048.425.425,0,1,1,.811-.255,9.956,9.956,0,0,1-.017,6.647.425.425,0,0,1-.388.252" transform="translate(-1228.369 -1079.989)" fill="#d15e3f"/>
            <path id="Trazado_896972" data-name="Trazado 896972" d="M1231.7,1403.178s0,.174.006.484a8.661,8.661,0,0,1-4.039.918,10.218,10.218,0,0,1-2.171-.219.425.425,0,1,1,.193-.827h.039a12.113,12.113,0,0,0,6.953-2.642,10.569,10.569,0,0,1-.981,2.285" transform="translate(-1075.606 -1229.882)" fill="#d15e3f"/>
            <path id="Trazado_896973" data-name="Trazado 896973" d="M989.55,724.418a.424.424,0,0,1-.349-.181,4.511,4.511,0,0,1-.5-3.051,10.989,10.989,0,0,1,.336-1.769.425.425,0,0,1,.815.24c-.231.789-.674,3.063.047,4.093a.425.425,0,0,1-.348.668" transform="translate(-867.964 -631.327)" fill="#d15e3f"/>
            <path id="Trazado_896974" data-name="Trazado 896974" d="M1186.943,573.687a.425.425,0,0,1-.416-.342c-.693-3.465-4.506-5.434-4.544-5.453a.425.425,0,0,1,.383-.758c.172.087,4.219,2.17,4.994,6.045a.425.425,0,0,1-.417.508" transform="translate(-1037.49 -497.862)" fill="#d15e3f"/>
            <path id="Trazado_896975" data-name="Trazado 896975" d="M1037.667,577.4a.474.474,0,0,1-.056,0,.425.425,0,0,1-.366-.477c.013-.1.324-2.348,1.747-3.239a.425.425,0,0,1,.451.72c-1.082.678-1.353,2.611-1.355,2.63a.425.425,0,0,1-.421.369" transform="translate(-910.622 -503.591)" fill="#d15e3f"/>
            <path id="Trazado_896976" data-name="Trazado 896976" d="M913.233,557.607a.43.43,0,0,1-.081-.008.425.425,0,0,1-.336-.5A10.642,10.642,0,0,0,912,551.08a.425.425,0,1,1,.761-.377,11.361,11.361,0,0,1,.886,6.561.425.425,0,0,1-.417.344" transform="translate(-800.633 -483.269)" fill="#d15e3f"/>
            <path id="Trazado_896977" data-name="Trazado 896977" d="M740.772,938.914a15.612,15.612,0,0,1-6.4-1.721.425.425,0,0,1,.4-.75,14.662,14.662,0,0,0,6.365,1.613.425.425,0,1,1,.04.848c-.134.007-.268.009-.4.009" transform="translate(-644.527 -822.085)" fill="#d15e3f"/>
            <path id="Trazado_896978" data-name="Trazado 896978" d="M764.663,1053.709a11.084,11.084,0,0,1-2.807-.341.425.425,0,0,1,.234-.817,10.757,10.757,0,0,0,5.073,0,.425.425,0,1,1,.216.822,10.7,10.7,0,0,1-2.716.339" transform="translate(-668.584 -924.048)" fill="#d15e3f"/>
            <path id="Trazado_896979" data-name="Trazado 896979" d="M1166.526,855.559a6.326,6.326,0,0,1-4.263-1.724c-2.633-2.343-3.554-6.448-2.661-11.869a36.382,36.382,0,0,1,2.142-7.508.265.265,0,1,1,.488.21,35.833,35.833,0,0,0-2.107,7.394c-.6,3.646-.652,8.578,2.492,11.376a5.64,5.64,0,0,0,5.794,1.281c4.326-1.391,8.444-7.261,9.435-11.661a.266.266,0,0,1,.518.117,19.6,19.6,0,0,1-3.534,7.137,13.793,13.793,0,0,1-6.256,4.913,6.672,6.672,0,0,1-2.046.334" transform="translate(-1017.756 -732.453)" fill="#ea7147"/>
            <path id="Trazado_896980" data-name="Trazado 896980" d="M1243.911,830.109a6.986,6.986,0,0,1-1.09-.087,9.03,9.03,0,0,1-6.107-4.045c-.835-1.5.791-5.886,3.367-12.4,1.869-4.727,3.8-9.615,3.558-11.591a5.342,5.342,0,0,0-2.811-4.085c-2.416-1.34-5.822-1.169-9.345.47-6.646,3.091-8.813,15.529-8.834,15.654a.266.266,0,1,1-.524-.088,38.894,38.894,0,0,1,1.938-6.784c1.286-3.3,3.578-7.581,7.2-9.264,3.679-1.711,7.26-1.876,9.827-.453a5.86,5.86,0,0,1,3.08,4.484c.26,2.11-1.611,6.842-3.591,11.851-1.955,4.946-4.172,10.552-3.4,11.947a8.457,8.457,0,0,0,5.726,3.779,5.431,5.431,0,0,0,4.693-1.372.266.266,0,1,1,.363.388,5.79,5.79,0,0,1-4.048,1.6" transform="translate(-1072.933 -699.247)" fill="#ea7147"/>
            <path id="Trazado_896981" data-name="Trazado 896981" d="M969.456,968.962a.265.265,0,0,1-.214-.107,55.761,55.761,0,0,1-4.016-6.479c-2.53-4.83-3.409-8.554-2.614-11.068a4.761,4.761,0,0,1,3.271-3.14,6.8,6.8,0,0,1,7.471,1.652c1.823,1.788,3.129,4.409,4.392,6.943,1.153,2.314,2.242,4.5,3.566,5.648,2.056,1.784,2.937.943,4.4-.45a8.294,8.294,0,0,1,6.213-2.876c2.763,0,5.247,1.472,7.181,4.256a16.507,16.507,0,0,1,2.1,4.217.266.266,0,0,1-.509.153,16.282,16.282,0,0,0-2.032-4.078c-1.855-2.665-4.122-4.017-6.737-4.017a7.843,7.843,0,0,0-5.847,2.729c-1.444,1.378-2.691,2.567-5.112.467-1.4-1.218-2.516-3.449-3.693-5.812-1.244-2.5-2.53-5.076-4.289-6.8a6.308,6.308,0,0,0-6.932-1.528,4.257,4.257,0,0,0-2.932,2.8c-1.8,5.7,6.466,16.958,6.55,17.071a.266.266,0,0,1-.213.424" transform="translate(-844.855 -832.015)" fill="#ea7147"/>
            <path id="Trazado_896982" data-name="Trazado 896982" d="M1003.9,1034.215a.266.266,0,0,1-.188-.453,6.2,6.2,0,0,0,1.206-5.477,33.886,33.886,0,0,0-2.96-5.937,52.2,52.2,0,0,0-3.679-5.646,4.573,4.573,0,0,0-3.8-1.5.266.266,0,0,1-.068-.527,5.028,5.028,0,0,1,4.274,1.686c1.647,1.976,6.1,9.427,6.743,11.783a6.678,6.678,0,0,1-1.343,5.993.264.264,0,0,1-.188.078" transform="translate(-872.816 -890.79)" fill="#ea7147"/>
            <path id="Trazado_896983" data-name="Trazado 896983" d="M1022.944,994.037a.265.265,0,0,1-.216-.112,4.11,4.11,0,0,1-.548-3.386,6.39,6.39,0,0,1,.642-1.683.266.266,0,0,1,.457.271c-.015.025-1.487,2.569-.118,4.49a.266.266,0,0,1-.216.42" transform="translate(-897.28 -868.03)" fill="#ea7147"/>
            <path id="Trazado_896984" data-name="Trazado 896984" d="M978.994,820.038c-2.516,0-5.046-1.446-7.4-4.252a26.043,26.043,0,0,1-3.4-5.364.266.266,0,0,1,.485-.217,25.455,25.455,0,0,0,3.333,5.248c2.755,3.28,5.6,4.582,8.467,3.871a6.264,6.264,0,0,0,4.087-2.717c1.627-2.711.627-6.689-.035-9.322l-.1-.412a.265.265,0,1,1,.515-.128l.1.41c.683,2.718,1.716,6.825-.024,9.725a6.773,6.773,0,0,1-4.414,2.959,6.651,6.651,0,0,1-1.609.2" transform="translate(-849.979 -708.086)" fill="#ea7147"/>
            <path id="Trazado_896985" data-name="Trazado 896985" d="M1031.878,816.074a.258.258,0,0,1-.069-.009.265.265,0,0,1-.188-.325,7.327,7.327,0,0,0-.006-2.722c-.27-1.687-3.425-6.009-3.457-6.052a.266.266,0,0,1,.428-.314c.133.182,3.263,4.47,3.553,6.282a7.668,7.668,0,0,1-.006,2.943.266.266,0,0,1-.256.2" transform="translate(-902.604 -708.086)" fill="#ea7147"/>
            <path id="Trazado_896986" data-name="Trazado 896986" d="M1058.77,858.168a2.927,2.927,0,0,1-1.851-.631.265.265,0,1,1,.329-.417,2.79,2.79,0,0,0,2.7.283.265.265,0,1,1,.221.483,3.636,3.636,0,0,1-1.4.281" transform="translate(-927.81 -752.439)" fill="#ea7147"/>
            <path id="Trazado_896987" data-name="Trazado 896987" d="M919.578,786.7a.266.266,0,0,1-.2-.1c-1.334-1.609-3.073-4.944-2.4-7.539a4.421,4.421,0,0,1,2.939-3.016c4.451-1.717,7.173,2.82,7.2,2.866a.265.265,0,0,1-.458.269,7.525,7.525,0,0,0-1.773-1.93,4.706,4.706,0,0,0-4.778-.709,3.919,3.919,0,0,0-2.617,2.655c-.622,2.384,1.075,5.6,2.291,7.065a.265.265,0,0,1-.2.435" transform="translate(-804.907 -680.973)" fill="#ea7147"/>
            <path id="Trazado_896988" data-name="Trazado 896988" d="M1091.8,945.534a.265.265,0,0,1-.246-.165,5.456,5.456,0,0,0-2-2.53,4.013,4.013,0,0,0-1.206-.569.266.266,0,0,1,.114-.519,5.505,5.505,0,0,1,3.588,3.416.266.266,0,0,1-.246.366" transform="translate(-955.309 -826.784)" fill="#ea7147"/>
            <path id="Trazado_896989" data-name="Trazado 896989" d="M1108.44,932.194a.266.266,0,0,1-.24-.152,2.832,2.832,0,0,1,.1-2.465,4.563,4.563,0,0,1,.717-1.087.266.266,0,0,1,.387.364c-.019.02-1.4,1.522-.719,2.962a.266.266,0,0,1-.24.379" transform="translate(-972.71 -815.072)" fill="#ea7147"/>
            <path id="Trazado_896990" data-name="Trazado 896990" d="M1106.692,1098.165a9.7,9.7,0,0,1-4.5-1.1.266.266,0,0,1,.265-.46,9.241,9.241,0,0,0,7.623.34c4.005-1.7,4.583-4.1,4.588-4.125a.266.266,0,0,1,.518.116c-.024.109-.645,2.7-4.9,4.5a9.151,9.151,0,0,1-3.6.732" transform="translate(-967.528 -959.233)" fill="#ea7147"/>
            <path id="Trazado_896991" data-name="Trazado 896991" d="M1186.078,1111.415q-.244,0-.5-.013a.266.266,0,0,1,.029-.53,8.805,8.805,0,0,0,4.347-.887.265.265,0,1,1,.259.464,9.148,9.148,0,0,1-4.138.967" transform="translate(-1040.633 -974.455)" fill="#ea7147"/>
            <path id="Trazado_896992" data-name="Trazado 896992" d="M1200.348,912.89a.266.266,0,0,1-.017-.531c.706-.046,2.667-.329,3.26-1.082a.265.265,0,1,1,.417.328c-.86,1.093-3.53,1.276-3.642,1.284h-.017" transform="translate(-1053.585 -799.946)" fill="#ea7147"/>
            <path id="Trazado_896993" data-name="Trazado 896993" d="M1146.771,794.148a.284.284,0,0,1-.047,0,.266.266,0,0,1-.215-.308,5.846,5.846,0,0,0-.887-4.123,4.384,4.384,0,0,0-3.359-1.514,4.792,4.792,0,0,0-4.814,2.7,8.737,8.737,0,0,0-.929,3,.265.265,0,0,1-.529-.045,9.111,9.111,0,0,1,.983-3.2,5.363,5.363,0,0,1,5.32-2.994,4.887,4.887,0,0,1,3.747,1.717,6.284,6.284,0,0,1,.991,4.542.265.265,0,0,1-.261.219" transform="translate(-997.317 -691.506)" fill="#ea7147"/>
            <path id="Trazado_896994" data-name="Trazado 896994" d="M1311.638,1085.021a.266.266,0,0,1-.21-.428c.013-.017,1.311-1.732.548-3.259a.266.266,0,0,1,.473-.241c.04.076,1.032,1.889,3.882,1.628a.266.266,0,1,1,.049.529,4.716,4.716,0,0,1-3.635-1,3.742,3.742,0,0,1-.251,1.469,4.964,4.964,0,0,1-.645,1.2.265.265,0,0,1-.21.1" transform="translate(-1151.29 -948.995)" fill="#ea7147"/>
            <path id="Trazado_896995" data-name="Trazado 896995" d="M1567.064,1063.661a7.532,7.532,0,0,1-3.626-.78.425.425,0,0,1,.43-.733c.041.024,3.494,1.941,9.2-.936a.425.425,0,1,1,.383.759,14.177,14.177,0,0,1-6.385,1.69" transform="translate(-1372.402 -931.627)" fill="#d15e3f"/>
            <path id="Trazado_896996" data-name="Trazado 896996" d="M1463.973,1061.091a8.209,8.209,0,0,1-4.077-1.251.425.425,0,0,1,.469-.709,7.023,7.023,0,0,0,4.369,1.049.425.425,0,0,1,.139.838,5.459,5.459,0,0,1-.9.073" transform="translate(-1281.515 -929.778)" fill="#d15e3f"/>
            <path id="Trazado_896997" data-name="Trazado 896997" d="M1521.289,1245.813a.422.422,0,0,1-.258-.088,4.8,4.8,0,0,1-1.723-3.514,7.961,7.961,0,0,1,.086-2.078.425.425,0,0,1,.833.168c-.009.047-.619,3.259,1.322,4.75a.425.425,0,0,1-.259.762" transform="translate(-1333.814 -1088.447)" fill="#d15e3f"/>
            <path id="Trazado_896998" data-name="Trazado 896998" d="M1532.709,752.927a.425.425,0,0,1-.185-.808,10.9,10.9,0,0,1,8.595-.585.425.425,0,0,1-.334.781,10.249,10.249,0,0,0-7.891.569.422.422,0,0,1-.184.042" transform="translate(-1345.234 -659.259)" fill="#d15e3f"/>
            <path id="Trazado_896999" data-name="Trazado 896999" d="M1431.515,524.583a.425.425,0,0,1-.388-.252,6.446,6.446,0,0,0-4.618-3.469.425.425,0,0,1,.119-.841,7.191,7.191,0,0,1,5.276,3.965.425.425,0,0,1-.388.6" transform="translate(-1252.051 -456.536)" fill="#d15e3f"/>
            <path id="Trazado_897000" data-name="Trazado 897000" d="M1335.226,555.5a.416.416,0,0,1-.119.016.425.425,0,0,1-.407-.306,9.062,9.062,0,0,0-5.134-6.023,8.9,8.9,0,0,1,1.022-1.388c1.47.024,3.726,3.04,4.927,7.175a.426.426,0,0,1-.29.527" transform="translate(-1167.262 -480.925)" fill="#d15e3f"/>
            <path id="Trazado_897001" data-name="Trazado 897001" d="M1237.595,712.962a.422.422,0,0,1-.242-.076,9.047,9.047,0,0,1-3.35-6.354.425.425,0,1,1,.845-.088,8.836,8.836,0,0,0,1.644,4.34,6.719,6.719,0,0,0,1.347,1.406.425.425,0,0,1-.245.773" transform="translate(-1083.363 -619.871)" fill="#d15e3f"/>
            <path id="Trazado_897002" data-name="Trazado 897002" d="M887.733,1102.1a.425.425,0,0,1-.009-.85c.045,0,4.483-.13,6.455-2.868a.425.425,0,1,1,.689.5,7.87,7.87,0,0,1-4.424,2.789,12.214,12.214,0,0,1-2.7.432Z" transform="translate(-778.992 -964.148)" fill="#d15e3f"/>
            <path id="Trazado_897003" data-name="Trazado 897003" d="M863.063,513.812c-.433.75-3.569,5.823-11.893,10.821a65.05,65.05,0,0,1-18.123,7.191,108.322,108.322,0,0,1-25.509,2.786q-1.777,0-3.591-.045c-8.517-.212-15.906-1.458-21.96-3.7a33.291,33.291,0,0,1-11.957-7.282c-4.9-4.833-5.773-9.523-5.889-10.314q.387-.159.808-.3a.384.384,0,0,1,.021.091,13.511,13.511,0,0,0,1.4,4.126,22.233,22.233,0,0,0,4.3,5.838,32.56,32.56,0,0,0,11.658,7.061,67.846,67.846,0,0,0,21.634,3.63,111.226,111.226,0,0,0,28.822-2.7,64.357,64.357,0,0,0,17.879-7.069,40.566,40.566,0,0,0,9.132-7.278,19.582,19.582,0,0,0,2.564-3.347.342.342,0,0,1,.049-.07q.34.275.648.564" transform="translate(-670.861 -450.349)" fill="#d15e3f"/>
            <path id="Trazado_897004" data-name="Trazado 897004" d="M816.265,781.046a.426.426,0,0,1-.4-.273,184.663,184.663,0,0,1-11.309-44.635,89.145,89.145,0,0,1-.611-16.643.425.425,0,0,1,.845.083,88.487,88.487,0,0,0,.614,16.5,183.859,183.859,0,0,0,11.255,44.392.425.425,0,0,1-.4.576" transform="translate(-705.683 -631.327)" fill="#d15e3f"/>
            <path id="Trazado_897005" data-name="Trazado 897005" d="M1230.377,760.259a.425.425,0,0,1-.2-.8c6.474-3.4,13.2-2.55,19.129-1.8,4.112.518,8,1.006,11.336.071,7.99-2.237,8.539-14,8.125-24-.724-17.476-6.7-35.041-6.759-35.217a.425.425,0,1,1,.8-.276c.061.177,6.076,17.859,6.8,35.457.427,10.312-.181,22.456-8.745,24.854-3.505.981-7.472.482-11.672-.047-6.092-.767-12.391-1.559-18.629,1.713a.424.424,0,0,1-.2.048" transform="translate(-1079.809 -612.745)" fill="#d15e3f"/>
            <path id="Trazado_897006" data-name="Trazado 897006" d="M1397.492,679.768a.425.425,0,0,1-.026-.849c.064,0,6.429-.45,8.728-4.548a.425.425,0,0,1,.532-.185,12.94,12.94,0,0,0,4.1.79,7.928,7.928,0,0,0,6.953-3.2.425.425,0,1,1,.682.506,8.786,8.786,0,0,1-7.373,3.545c-.1,0-.206,0-.31,0a13.916,13.916,0,0,1-4.03-.725,9.982,9.982,0,0,1-5.5,3.9,16.342,16.342,0,0,1-3.726.77h-.027" transform="translate(-1226.524 -589.62)" fill="#d15e3f"/>
            <path id="Trazado_897007" data-name="Trazado 897007" d="M1635.4,1011.087s-.308-.693-.507-1.021-1.052-1.289-1.2-1.071-.725,1.682-.417,2.092-.02,1.124,1.513,1.556Z" transform="translate(-1433.823 -885.796)" fill="#ffb27d"/>
            <path id="Trazado_897008" data-name="Trazado 897008" d="M1663.508,990.533s-7.847,6.55-10.907,5.944a60.307,60.307,0,0,1-6.065-1.733l-.734,1.878s3.293,4.467,6.727,4.5a19.558,19.558,0,0,0,9.332-2.323Z" transform="translate(-1444.895 -869.616)" fill="#6980e0"/>
            <path id="Trazado_897009" data-name="Trazado 897009" d="M1838.668,1548.033s-.228,3.675-.939,3.727c-.095.007-3.606.007-3.606.007l-4.482-.026a1.454,1.454,0,0,1,1.339-1.308c1.31-.228,3.5-1.149,4.3-2.881.835-1.822,3.391.481,3.391.481" transform="translate(-1606.292 -1358.022)" fill="#20497a"/>
            <path id="Trazado_897010" data-name="Trazado 897010" d="M1796.339,1232.343a9.348,9.348,0,0,1-2.427.456,8.91,8.91,0,0,1-2.265-.323,62.006,62.006,0,0,0-1.668-7.947c-.74-2.865-1.8-6.549-3.3-11.127a150.642,150.642,0,0,1-5.538-20.753c-.006-.037-.009-.055-.009-.055l.013-.006,12.783-5.612s-1.58,17.436.436,24.129a28.19,28.19,0,0,1,.732,3.206c1.273,7.27,1.244,18.033,1.244,18.033" transform="translate(-1563.705 -1042.077)" fill="#f99746"/>
            <path id="Trazado_897011" data-name="Trazado 897011" d="M1790.041,1224.529c-.74-2.865-1.8-6.549-3.3-11.127a150.624,150.624,0,0,1-5.537-20.753c0-.021,0-.041,0-.061l12.783-5.613s-1.58,17.436.436,24.129c.282.935-4.385,13.425-4.385,13.425" transform="translate(-1563.766 -1042.077)" fill="#ed7d2b"/>
            <path id="Trazado_897012" data-name="Trazado 897012" d="M1756.881,1548.033s-.228,3.675-.939,3.727c-.095.007-3.606.007-3.606.007l-4.483-.026a1.454,1.454,0,0,1,1.34-1.308c1.31-.228,3.5-1.149,4.3-2.881.835-1.822,3.391.481,3.391.481" transform="translate(-1534.489 -1358.022)" fill="#20497a"/>
            <path id="Trazado_897013" data-name="Trazado 897013" d="M1762.41,1190.341a181.956,181.956,0,0,0,1.789,25.172c1.955,13.873,1.292,19.762,1.292,19.762a13.3,13.3,0,0,0,1.885.479,8.556,8.556,0,0,0,2.8-.324s2.8-13.878,2-20.822,3.832-23.827,3.832-23.827Z" transform="translate(-1547.265 -1045.032)" fill="#f99746"/>
            <path id="Trazado_897014" data-name="Trazado 897014" d="M1797.188,929.271l-1.745,2.25-3.662.2c-.02-.295-.074-1.523-.122-2.636,0-.066,0-.132-.008-.2-.039-.947-.055-1.986-.055-1.986l2.9-2.015,1.089-.835c0,.02.171,1.024.172,1.172.013,2.89,1.427,4.046,1.427,4.046" transform="translate(-1572.892 -811.251)" fill="#ffb27d"/>
            <path id="Trazado_897015" data-name="Trazado 897015" d="M1756.295,993.851c.051,5.964.449,19.915.742,20.2,3.106,3,16.769-.822,17.494-4.125s-2.753-42.355-8.059-43.915c-1.1-.323-6.987,1.579-6.987,1.579a37.355,37.355,0,0,0-1.528,5.492c-.224,1.14-.957,9.274-1.384,14.71-.113,1.449-.205,2.706-.26,3.587-.022.364-.027,1.252-.017,2.473" transform="translate(-1541.895 -848.054)" fill="#8c9df4"/>
            <path id="Trazado_897016" data-name="Trazado 897016" d="M1795.4,930.649c-.422,1.392-2.844,3.1-3.866,3.754,0-.066-.005-.132-.008-.2-.039-.947-.072-2.861-.072-2.861l2.921-1.14c.721-.186,1.2-.131,1.026.442" transform="translate(-1572.77 -816.57)" fill="#fca56b"/>
            <path id="Trazado_897017" data-name="Trazado 897017" d="M1778.724,878.808s5.424,1.692,6.426-1.7,2.376-5.462-1.044-6.685-4.479-.128-5.089.923-1.678,6.937-.292,7.464" transform="translate(-1560.995 -763.692)" fill="#ffb27d"/>
            <path id="Trazado_897018" data-name="Trazado 897018" d="M1784.074,857.689s.346,3.95,1.163,3.778,1.894-.2,1.775.991,1.006,3.211,1.757,3.206c2.526-.016,5.308-6.81,4.616-8.04-2-3.546-12.194-4.262-9.31.064" transform="translate(-1565.84 -750.364)" fill="#163560"/>
            <path id="Trazado_897019" data-name="Trazado 897019" d="M1783.906,955c.07-.03,4.038-1.809,4.5-1.656s1.042,1.57,1.042,1.57l-6.987,1.58a3.469,3.469,0,0,1,1.442-1.494" transform="translate(-1564.873 -836.96)" fill="#6980e0"/>
            <path id="Trazado_897020" data-name="Trazado 897020" d="M1582.439,1108.841l20.4,21.665a1.071,1.071,0,0,0,1.51.016l1.388-1.306a1.071,1.071,0,0,0,.077-1.507L1585.373,1106c-.394-.419-.737-.089-1.173.321l-1.387,1.306c-.436.41-.767.792-.373,1.211" transform="translate(-1389.112 -970.819)" fill="#1f4d84"/>
            <path id="Trazado_897021" data-name="Trazado 897021" d="M1675.326,1207.758l9.186,9.764a1.092,1.092,0,0,0,1.539.047l1.388-1.305a1.092,1.092,0,0,0,.047-1.539l-9.186-9.764Z" transform="translate(-1470.815 -1057.867)" fill="#ed7d2b"/>
            <path id="Trazado_897022" data-name="Trazado 897022" d="M1359.1,904.57a17.434,17.434,0,1,0,.752-24.643c-.092.087-.184.175-.273.264a17.431,17.431,0,0,0-.479,24.379m1.5-23.853a16.352,16.352,0,1,1-.7,23.109,16.276,16.276,0,0,1,.7-23.109" transform="translate(-1189.035 -768.353)" fill="#163560"/>
            <path id="Trazado_897023" data-name="Trazado 897023" d="M1367.7,911.634a16.356,16.356,0,1,0,.7-23.108,16.267,16.267,0,0,0-.7,23.108" transform="translate(-1196.844 -776.162)" fill="#b3cff9"/>
            <path id="Trazado_897024" data-name="Trazado 897024" d="M1756.295,1044.372c12.964-8.779,11.907-20.853,11.907-20.853-5.058,2.854-10.072,9.608-11.63,14.793-.113,1.449-.205,2.706-.26,3.587-.022.364-.027,1.252-.017,2.473" transform="translate(-1541.895 -898.575)" fill="#6980e0"/>
            <path id="Trazado_897025" data-name="Trazado 897025" d="M1637.413,1150.994a3.341,3.341,0,0,1-1.565-.967s-.369.025.06.811c.036.066.115.235.176.354a.076.076,0,0,1-.064.11,8.165,8.165,0,0,0-1.961.041c-.132.028-.171.345-.166.48a1.226,1.226,0,0,0,.258.837,4.283,4.283,0,0,0,1.549.811,4.684,4.684,0,0,0,2.4-.3l.784-.363-.243-1.458-.2.041c-.313.066-.7-.317-1.027-.4" transform="translate(-1434.439 -1009.64)" fill="#ffb27d"/>
            <path id="Trazado_897026" data-name="Trazado 897026" d="M1688.725,979.218s11.012,2.1-3.24,18.044c-2.279,2.551-14.594,5.871-14.594,5.871s-1.249-1.063-.619-1.923c0,0,8.479-6.157,10.345-7.136.839-.44,3.257-9.828,4.626-12.088a6.167,6.167,0,0,1,3.483-2.767" transform="translate(-1466.221 -859.682)" fill="#8c9df4"/>
            <path id="Trazado_897027" data-name="Trazado 897027" d="M1638.11,1008.644a5.611,5.611,0,0,1-.431-1.051,5.813,5.813,0,0,0-.711-1.609c-.075-.075-.321.022-.351.343a1.87,1.87,0,0,0,.177.7,7.826,7.826,0,0,1,.233,1.384c.171.555,1.082.237,1.082.237" transform="translate(-1436.831 -883.159)" fill="#ffb27d"/>
            <path id="Trazado_897028" data-name="Trazado 897028" d="M1066.82,649.2c.189.217-5.462,5.143-5.158,4.618.106-.183.226-.382.348-.586l.069-.115c.063-.1.126-.211.188-.316.555-.948.413-1.392.281-2.8-.107-1.146-1.783-6.4-1.783-6.4l2.433-.419s.733,4.186,1.54,4.83c.432.344.915.348,1.33.6l.086.054a3.2,3.2,0,0,1,.666.535" transform="translate(-931.275 -564.667)" fill="#ffb27d"/>
            <path id="Trazado_897029" data-name="Trazado 897029" d="M1070.409,688.671a.671.671,0,0,1,.12.718.007.007,0,0,1,0,0,5.176,5.176,0,0,1-1.412,1.542c-.084.07-.158.134-.224.194l-.051.045-.039.035c-.62.571-.387.7-1.5,1.861-1.27,1.321-2.144,1.345-2.393,1.224-.177-.087.1-.6.473-1.228.07-.117.143-.239.218-.363a5.411,5.411,0,0,0,2.263-1.668c.736-.94,1.826-2.89,1.881-2.9a3.194,3.194,0,0,1,.666.535" transform="translate(-934.864 -604.133)" fill="#233862"/>
            <path id="Trazado_897030" data-name="Trazado 897030" d="M903.676,642.36c-.15.751-6.923-1.121-6.36-1.194.233-.031.492-.059.757-.089l.341-.041a7.365,7.365,0,0,0,2.69-1.325,10.813,10.813,0,0,0,2.184-2.594l2.334.185s-1.225,1.86-1.7,2.669a2.822,2.822,0,0,0-.229,1.591,2.992,2.992,0,0,1-.018.8" transform="translate(-787.749 -559.341)" fill="#ffb27d"/>
            <path id="Trazado_897031" data-name="Trazado 897031" d="M894.725,671.172c-1.2-.292-.912.055-2.614-.133s-2.218-.823-2.27-1.076c-.026-.123.216-.2.589-.267.306-.052.7-.094,1.108-.141l.008.017a4.8,4.8,0,0,0,2.438.758c1.155.028,2.378-.3,3.175-.29a3,3,0,0,1-.018.8c-.15.751-1.221.626-2.417.333" transform="translate(-781.215 -587.82)" fill="#233862"/>
            <path id="Trazado_897032" data-name="Trazado 897032" d="M1022.94,530.885l2.182,5.872,2.849,7.667a4.616,4.616,0,0,0,1.513-.138,6.563,6.563,0,0,0,1.464-.712s-.791-8.232-2.267-12.958a8.416,8.416,0,0,0-1.27-2.747c-2.288-2.7-4.472,3.016-4.472,3.016" transform="translate(-898.067 -462.793)" fill="#233862"/>
            <path id="Trazado_897033" data-name="Trazado 897033" d="M948.311,472.971c1.242-.4,4.483-.006,8,.63a2.384,2.384,0,0,0,2.462-1.112l8.847-.691s3.524,7.005.9,10.564c-1.536,2.079-6.711,1.781-8.279,1.46-4.31-.884-9.21-3.444-9.845-3.571-1.04-.208-1.456,1.872-2.5,4.056s-9.776,9.672-9.776,9.672a7.691,7.691,0,0,1-1.9-.195,1.867,1.867,0,0,1-.815-.514s9.68-19.259,12.9-20.3" transform="translate(-821.219 -414.204)" fill="#2b478b"/>
            <path id="Trazado_897034" data-name="Trazado 897034" d="M1107.749,428.476c-.038,5.084-1.35,7.419-1.35,7.419a16.716,16.716,0,0,1-13.91-12,4.105,4.105,0,0,0,3.333-1.507l9.587-6.117.583-.372.6-.382s.179.969.4,2.531a79.859,79.859,0,0,1,.738,8.5c.019.642.026,1.288.021,1.935" transform="translate(-959.126 -364.792)" fill="#8c9df4"/>
            <path id="Trazado_897035" data-name="Trazado 897035" d="M1110.7,274.662c3.151,1.735,9.542,5.331,9.575,5.307,0,0,2.349.885,3.682,0,2.221-1.475,3.412-5.445-.65-8.862-2.026-1.7-3.465-2.119-3.684-4.84-.119-1.482-2.153-6.387-5.529-5.891a4.693,4.693,0,0,1-.816.049,3.139,3.139,0,0,0-1.69.44c-1.9,1.13-5.611,13.125-.888,13.8" transform="translate(-973.094 -228.561)" fill="#2b478b"/>
            <path id="Trazado_897036" data-name="Trazado 897036" d="M1145.976,329.928a4.166,4.166,0,0,0,2.6.08,4.625,4.625,0,0,0,1.714-2.054c-.448-.021-.958-.736-1.317-2.979l-.191.068-3.2,1.153s.232,1.028.383,2.007c.126.822.194,1.609.019,1.725" transform="translate(-1005.731 -285.303)" fill="#ffb27d"/>
            <path id="Trazado_897037" data-name="Trazado 897037" d="M1145.574,326.687s.128.555.315,1.591a3.618,3.618,0,0,0,2.89-2.744Z" transform="translate(-1005.731 -285.795)" fill="#ed975d"/>
            <path id="Trazado_897038" data-name="Trazado 897038" d="M1125.479,287.879s4.384-.588,3.975-3.313-.118-4.635-2.934-4.375-3.2,1.381-3.288,2.324,1.1,5.447,2.246,5.364" transform="translate(-986.113 -245.966)" fill="#ffb27d"/>
            <path id="Trazado_897039" data-name="Trazado 897039" d="M1124.573,279.291s2.806,2.419,4.715,2.613a3.66,3.66,0,0,0,2.632-.418,7.454,7.454,0,0,1-1.8-2.442,1.343,1.343,0,0,0-1.106-.791c-1.363-.118-3.947-.171-4.438,1.037" transform="translate(-987.293 -244.235)" fill="#2b478b"/>
            <path id="Trazado_897040" data-name="Trazado 897040" d="M1122.641,281.622a6.913,6.913,0,0,0-1.234,1.581,5.307,5.307,0,0,0-.144,2.821s-1.463-2.844-.635-4.226a1.169,1.169,0,0,1,2.013-.176" transform="translate(-983.607 -246.783)" fill="#2b478b"/>
            <path id="Trazado_897041" data-name="Trazado 897041" d="M1118.619,356.938c.132,8.874.036,7.02,1.007,7.862a3.725,3.725,0,0,0,1.757.381c2.721.181,7.5-.268,7.686-.771.628-1.74.185-2.281.708-4.944.054-.283.122-.59.2-.924.437-1.83.862-2.452-.687-5.392a24.044,24.044,0,0,0-2.968-4.764c-3.706,2.2-4.032.369-4.032.369s-3.737,3.854-3.672,8.183" transform="translate(-982.066 -305.856)" fill="#8c9df4"/>
            <path id="Trazado_897042" data-name="Trazado 897042" d="M1040.816,561.731l2.849,7.667a4.617,4.617,0,0,0,1.513-.138,6.562,6.562,0,0,0,1.464-.712s-.791-8.233-2.267-12.958Z" transform="translate(-913.761 -487.766)" fill="#2b478b"/>
            <path id="Trazado_897043" data-name="Trazado 897043" d="M1107.03,351.419s-3.362.492-3.842,2.347c-.426,1.647-1.953,10.984-1.953,10.984s.687,1.615,1.583.72,2.818-9.324,2.818-9.324Z" transform="translate(-966.804 -308.52)" fill="#8c9df4"/>
            <path id="Trazado_897044" data-name="Trazado 897044" d="M1132.648,474.974a5.2,5.2,0,0,1-.747.812.55.55,0,0,1-.3.065l.379-.682Z" transform="translate(-993.461 -416.992)" fill="#ffb27d"/>
            <path id="Trazado_897045" data-name="Trazado 897045" d="M1129.506,468.853l-1.636.794a.292.292,0,0,0,.271.1,3.9,3.9,0,0,0,.709-.195Z" transform="translate(-990.188 -411.618)" fill="#ffb27d"/>
            <path id="Trazado_897046" data-name="Trazado 897046" d="M1160.193,426.453c-2.529-.2-8.911-2.351-7.82-3.869.5-.7,3.885-1.015,5.63-3.24.47-.6-.059-2.236-.128-3.163-.029-.4-.009-.689.128-.754s.288.107.454.382a13.837,13.837,0,0,1,.914,2.168l.084-.02a79.859,79.859,0,0,1,.738,8.5" transform="translate(-1011.591 -364.704)" fill="#6980e0"/>
            <path id="Trazado_897047" data-name="Trazado 897047" d="M1132.624,468.809s-2.685-.6-3.118-.359a6.3,6.3,0,0,0-1.624,1.408c-.133.3.964-.229,1.321-.325a3.173,3.173,0,0,1,1.14.25,3.788,3.788,0,0,0,2.043.2Z" transform="translate(-990.188 -411.215)" fill="#ffb27d"/>
            <path id="Trazado_897048" data-name="Trazado 897048" d="M1164.466,348.4s3.579.238,4.827,1.979c1.756,2.45,3.642,12.926,1.645,14.319-2.249,1.568-8.636.375-8.636.375s-.6-1.776.1-1.843c1.9-.181,5.621-.973,5.587-1.8-.053-1.263-2.4-5.454-2.4-6.286s-1.129-6.74-1.129-6.74" transform="translate(-1020.208 -305.87)" fill="#8c9df4"/>
            <path id="Trazado_897049" data-name="Trazado 897049" d="M1026.869,484.146h17.082v.377h-16.931Z" transform="translate(-901.516 -425.044)" fill="#f99746"/>
            <path id="Trazado_897050" data-name="Trazado 897050" d="M1013.061,417.64h-12.936l-3.892-9.677h12.917Z" transform="translate(-874.62 -358.161)" fill="#f99746"/>
            <path id="Trazado_897051" data-name="Trazado 897051" d="M1054.683,443.169a.448.448,0,0,1,.439-.616.883.883,0,0,1,.793.616.448.448,0,0,1-.439.616.882.882,0,0,1-.792-.616" transform="translate(-925.913 -388.529)" fill="#fff"/>
            <path id="Trazado_897052" data-name="Trazado 897052" d="M809.038,1063.233v28.874a3.232,3.232,0,0,1-3.223,3.223H788.652a3.232,3.232,0,0,1-3.222-3.223v-28.874a3.232,3.232,0,0,1,3.222-3.223h17.163a3.232,3.232,0,0,1,3.223,3.223" transform="translate(-689.55 -930.611)" fill="#d2e0ff"/>
            <g id="Grupo_1101366" data-name="Grupo 1101366" transform="translate(109.609 133.466)" opacity="0.4">
              <g id="Grupo_1101365" data-name="Grupo 1101365">
                <g id="Grupo_1101364" data-name="Grupo 1101364" clip-path="url(#clip-path-6)">
                  <path id="Trazado_897053" data-name="Trazado 897053" d="M900.172,1100.117a3.507,3.507,0,1,1,4.516-2.05,3.507,3.507,0,0,1-4.516,2.05" transform="translate(-897.897 -1093.326)" fill="#8c9df4"/>
                </g>
              </g>
            </g>
            <g id="Grupo_1101369" data-name="Grupo 1101369" transform="translate(98.742 133.467)" opacity="0.4">
              <g id="Grupo_1101368" data-name="Grupo 1101368">
                <g id="Grupo_1101367" data-name="Grupo 1101367" clip-path="url(#clip-path-7)">
                  <path id="Trazado_897054" data-name="Trazado 897054" d="M810.17,1099.557a3.507,3.507,0,1,1,4.935-.5,3.507,3.507,0,0,1-4.935.5" transform="translate(-808.88 -1093.333)" fill="#8c9df4"/>
                </g>
              </g>
            </g>
            <g id="Grupo_1101372" data-name="Grupo 1101372" transform="translate(109.609 154.861)" opacity="0.4">
              <g id="Grupo_1101371" data-name="Grupo 1101371">
                <g id="Grupo_1101370" data-name="Grupo 1101370" clip-path="url(#clip-path-6)">
                  <path id="Trazado_897055" data-name="Trazado 897055" d="M900.172,1275.381a3.507,3.507,0,1,1,4.516-2.051,3.507,3.507,0,0,1-4.516,2.051" transform="translate(-897.897 -1268.59)" fill="#8c9df4"/>
                </g>
              </g>
            </g>
            <g id="Grupo_1101375" data-name="Grupo 1101375" transform="translate(98.743 154.861)" opacity="0.4">
              <g id="Grupo_1101374" data-name="Grupo 1101374">
                <g id="Grupo_1101373" data-name="Grupo 1101373" clip-path="url(#clip-path-7)">
                  <path id="Trazado_897056" data-name="Trazado 897056" d="M810.172,1274.82a3.505,3.505,0,0,1-.619-4.778c.037-.053.078-.105.12-.157a3.507,3.507,0,1,1,5.434,4.436c-.042.051-.084.1-.129.149a3.507,3.507,0,0,1-4.806.35" transform="translate(-808.883 -1268.596)" fill="#8c9df4"/>
                </g>
              </g>
            </g>
            <g id="Grupo_1101378" data-name="Grupo 1101378" transform="translate(109.609 144.562)" opacity="0.4">
              <g id="Grupo_1101377" data-name="Grupo 1101377">
                <g id="Grupo_1101376" data-name="Grupo 1101376" clip-path="url(#clip-path-6)">
                  <path id="Trazado_897057" data-name="Trazado 897057" d="M902.907,1190.9a3.507,3.507,0,1,1,1.667-4.672,3.507,3.507,0,0,1-1.667,4.672" transform="translate(-897.897 -1184.223)" fill="#8c9df4"/>
                </g>
              </g>
            </g>
            <g id="Grupo_1101381" data-name="Grupo 1101381" transform="translate(98.742 144.561)" opacity="0.4">
              <g id="Grupo_1101380" data-name="Grupo 1101380">
                <g id="Grupo_1101379" data-name="Grupo 1101379" clip-path="url(#clip-path-6)">
                  <path id="Trazado_897058" data-name="Trazado 897058" d="M809.127,1186.427a3.507,3.507,0,1,1,1.953,4.559,3.507,3.507,0,0,1-1.953-4.559" transform="translate(-808.875 -1184.221)" fill="#8c9df4"/>
                </g>
              </g>
            </g>
            <path id="Trazado_897059" data-name="Trazado 897059" d="M905.04,1119.237h0a.394.394,0,0,1,.393-.393h4.486a.393.393,0,0,1,0,.786h-4.486a.394.394,0,0,1-.393-.393" transform="translate(-794.559 -982.263)" fill="#8c9df4"/>
            <path id="Trazado_897060" data-name="Trazado 897060" d="M910.54,1196.866h0a.394.394,0,0,1,.556,0l3.172,3.172a.393.393,0,0,1-.556.556l-3.172-3.172a.394.394,0,0,1,0-.556" transform="translate(-799.287 -1050.66)" fill="#8c9df4"/>
            <path id="Trazado_897061" data-name="Trazado 897061" d="M908.61,1283.5h0a.394.394,0,0,1,.549-.088l3.633,2.632a.393.393,0,1,1-.461.637l-3.633-2.631a.394.394,0,0,1-.088-.549" transform="translate(-797.628 -1126.673)" fill="#8c9df4"/>
            <path id="Trazado_897062" data-name="Trazado 897062" d="M818.533,1287.755h0a.394.394,0,0,1,.144-.537l3.885-2.243a.393.393,0,0,1,.393.681l-3.885,2.243a.394.394,0,0,1-.537-.144" transform="translate(-718.567 -1128.068)" fill="#8c9df4"/>
            <path id="Trazado_897063" data-name="Trazado 897063" d="M829.927,1197.1h0a.394.394,0,0,1-.278-.481l1.161-4.333a.393.393,0,1,1,.759.2l-1.161,4.333a.394.394,0,0,1-.481.278" transform="translate(-728.36 -1046.48)" fill="#8c9df4"/>
            <path id="Trazado_897064" data-name="Trazado 897064" d="M828.039,1107.551h0a.394.394,0,0,1-.537-.144l-2.243-3.885a.393.393,0,0,1,.681-.393l2.243,3.885a.394.394,0,0,1-.144.537" transform="translate(-724.472 -968.294)" fill="#8c9df4"/>
            <g id="Grupo_1101384" data-name="Grupo 1101384" transform="translate(100.201 140.995)" opacity="0.5">
              <g id="Grupo_1101383" data-name="Grupo 1101383">
                <g id="Grupo_1101382" data-name="Grupo 1101382" clip-path="url(#clip-path-12)">
                  <path id="Trazado_897065" data-name="Trazado 897065" d="M840.115,1155.008v20.5a3.232,3.232,0,0,1-3.223,3.223H820.828v-20.5a3.232,3.232,0,0,1,3.223-3.223Z" transform="translate(-820.828 -1155.008)" fill="#8c9df4"/>
                </g>
              </g>
            </g>
            <path id="Trazado_897066" data-name="Trazado 897066" d="M830.006,1191.516V1162.64a3.232,3.232,0,0,1,3.222-3.222h17.163a3.232,3.232,0,0,1,3.222,3.222v28.875a3.231,3.231,0,0,1-3.222,3.222H833.228a3.231,3.231,0,0,1-3.222-3.222" transform="translate(-728.685 -1017.884)" fill="#d2e0ff"/>
            <g id="Grupo_1101387" data-name="Grupo 1101387" transform="translate(115.05 145.601)" opacity="0.4">
              <g id="Grupo_1101386" data-name="Grupo 1101386">
                <g id="Grupo_1101385" data-name="Grupo 1101385" clip-path="url(#clip-path-6)">
                  <path id="Trazado_897067" data-name="Trazado 897067" d="M944.746,1199.527a3.507,3.507,0,1,1,4.516-2.051,3.507,3.507,0,0,1-4.516,2.051" transform="translate(-942.471 -1192.735)" fill="#8c9df4"/>
                </g>
              </g>
            </g>
            <g id="Grupo_1101390" data-name="Grupo 1101390" transform="translate(104.184 145.602)" opacity="0.4">
              <g id="Grupo_1101389" data-name="Grupo 1101389">
                <g id="Grupo_1101388" data-name="Grupo 1101388" clip-path="url(#clip-path-7)">
                  <path id="Trazado_897068" data-name="Trazado 897068" d="M854.745,1198.965a3.507,3.507,0,1,1,4.935-.5,3.507,3.507,0,0,1-4.935.5" transform="translate(-853.456 -1192.74)" fill="#8c9df4"/>
                </g>
              </g>
            </g>
            <g id="Grupo_1101393" data-name="Grupo 1101393" transform="translate(115.05 166.996)" opacity="0.4">
              <g id="Grupo_1101392" data-name="Grupo 1101392">
                <g id="Grupo_1101391" data-name="Grupo 1101391" clip-path="url(#clip-path-6)">
                  <path id="Trazado_897069" data-name="Trazado 897069" d="M944.746,1374.79a3.507,3.507,0,1,1,4.516-2.051,3.507,3.507,0,0,1-4.516,2.051" transform="translate(-942.471 -1367.998)" fill="#8c9df4"/>
                </g>
              </g>
            </g>
            <g id="Grupo_1101396" data-name="Grupo 1101396" transform="translate(104.184 166.996)" opacity="0.4">
              <g id="Grupo_1101395" data-name="Grupo 1101395">
                <g id="Grupo_1101394" data-name="Grupo 1101394" clip-path="url(#clip-path-7)">
                  <path id="Trazado_897070" data-name="Trazado 897070" d="M854.747,1374.229a3.505,3.505,0,0,1-.619-4.778c.037-.053.078-.105.12-.157a3.507,3.507,0,0,1,5.434,4.436c-.042.051-.084.1-.129.149a3.507,3.507,0,0,1-4.806.35" transform="translate(-853.458 -1368.005)" fill="#8c9df4"/>
                </g>
              </g>
            </g>
            <g id="Grupo_1101399" data-name="Grupo 1101399" transform="translate(115.05 156.697)" opacity="0.4">
              <g id="Grupo_1101398" data-name="Grupo 1101398">
                <g id="Grupo_1101397" data-name="Grupo 1101397" clip-path="url(#clip-path-6)">
                  <path id="Trazado_897071" data-name="Trazado 897071" d="M947.483,1290.309a3.507,3.507,0,1,1,1.667-4.672,3.507,3.507,0,0,1-1.667,4.672" transform="translate(-942.472 -1283.631)" fill="#8c9df4"/>
                </g>
              </g>
            </g>
            <g id="Grupo_1101402" data-name="Grupo 1101402" transform="translate(104.183 156.696)" opacity="0.4">
              <g id="Grupo_1101401" data-name="Grupo 1101401">
                <g id="Grupo_1101400" data-name="Grupo 1101400" clip-path="url(#clip-path-6)">
                  <path id="Trazado_897072" data-name="Trazado 897072" d="M853.7,1285.834a3.507,3.507,0,1,1,1.953,4.559,3.507,3.507,0,0,1-1.953-4.559" transform="translate(-853.451 -1283.629)" fill="#8c9df4"/>
                </g>
              </g>
            </g>
            <path id="Trazado_897073" data-name="Trazado 897073" d="M949.613,1218.645h0a.394.394,0,0,1,.393-.393h4.486a.393.393,0,1,1,0,.786h-4.486a.394.394,0,0,1-.393-.393" transform="translate(-833.691 -1069.536)" fill="#8c9df4"/>
            <path id="Trazado_897074" data-name="Trazado 897074" d="M955.116,1296.273h0a.394.394,0,0,1,.556,0l3.172,3.172a.393.393,0,0,1-.556.556l-3.172-3.172a.394.394,0,0,1,0-.556" transform="translate(-838.421 -1137.932)" fill="#8c9df4"/>
            <path id="Trazado_897075" data-name="Trazado 897075" d="M953.185,1382.9h0a.394.394,0,0,1,.549-.088l3.633,2.631a.393.393,0,0,1-.461.637l-3.633-2.631a.394.394,0,0,1-.088-.549" transform="translate(-836.762 -1213.946)" fill="#8c9df4"/>
            <path id="Trazado_897076" data-name="Trazado 897076" d="M863.108,1387.164h0a.394.394,0,0,1,.144-.537l3.885-2.243a.393.393,0,1,1,.393.681l-3.885,2.243a.394.394,0,0,1-.537-.144" transform="translate(-757.7 -1215.342)" fill="#8c9df4"/>
            <path id="Trazado_897077" data-name="Trazado 897077" d="M874.5,1296.5h0a.394.394,0,0,1-.278-.481l1.161-4.333a.393.393,0,1,1,.76.2l-1.161,4.333a.394.394,0,0,1-.482.278" transform="translate(-767.494 -1133.753)" fill="#8c9df4"/>
            <path id="Trazado_897078" data-name="Trazado 897078" d="M872.614,1206.959h0a.394.394,0,0,1-.537-.144l-2.243-3.885a.393.393,0,0,1,.681-.393l2.243,3.885a.394.394,0,0,1-.144.537" transform="translate(-763.605 -1055.567)" fill="#8c9df4"/>
            <rect id="Rectángulo_401573" data-name="Rectángulo 401573" width="26.195" height="39.292" transform="translate(95.453 154.299)" fill="#ed7d2b"/>
            <rect id="Rectángulo_401574" data-name="Rectángulo 401574" width="26.195" height="39.292" transform="translate(99.102 154.299)" fill="#f99746"/>
            <path id="Trazado_897079" data-name="Trazado 897079" d="M785.586,1266.261l-1.255,1.952h-2.394v-4.221h3.649Z" transform="translate(-686.484 -1109.693)" fill="#d36c26"/>
            <path id="Trazado_897080" data-name="Trazado 897080" d="M767.256,1267.073h-3.649l2.238-3.08h3.649Z" transform="translate(-670.391 -1109.694)" fill="#f99746"/>
            <g id="Grupo_1101405" data-name="Grupo 1101405" transform="translate(99.102 156.081)" opacity="0.3">
              <g id="Grupo_1101404" data-name="Grupo 1101404">
                <g id="Grupo_1101403" data-name="Grupo 1101403" clip-path="url(#clip-path-19)">
                  <path id="Trazado_897081" data-name="Trazado 897081" d="M825.338,1316.1H811.828v-37.51l13.511,1.3Z" transform="translate(-811.828 -1278.586)" fill="#ed7d2b"/>
                </g>
              </g>
            </g>
            <path id="Trazado_897082" data-name="Trazado 897082" d="M838.023,1267.072l-2.125,1.141H813.091l-1.263-1.952v-2.269Z" transform="translate(-712.726 -1109.693)" fill="#d36c26"/>
            <path id="Trazado_897083" data-name="Trazado 897083" d="M839.873,1267.073h-26.2l-1.85-3.08h26.2Z" transform="translate(-712.725 -1109.694)" fill="#f99746"/>
            <path id="Trazado_897084" data-name="Trazado 897084" d="M471.766,1152.42a2.846,2.846,0,0,0-5.131-.68,2.578,2.578,0,0,0-.384,1.294c-.07,2.722,5.3,13.256,6.01,14.188,1.3,1.7,9.126,5.776,9.126,5.776l1.664-.242a12.333,12.333,0,0,1-1.914-1.563c-2.012-2.008-4.944-5.273-5.481-5.725-.922-.776-2.517-8.64-3.889-13.047" transform="translate(-409.333 -1009.971)" fill="#ed985f"/>
            <path id="Trazado_897085" data-name="Trazado 897085" d="M607.643,1372.511H571.356a4.061,4.061,0,0,1-4.049-4.049v-21.568a4.061,4.061,0,0,1,4.049-4.049h36.287a4.061,4.061,0,0,1,4.049,4.049v21.568a4.061,4.061,0,0,1-4.049,4.049" transform="translate(-498.054 -1178.92)" fill="#d2e0ff"/>
            <g id="Grupo_1101408" data-name="Grupo 1101408" transform="translate(74.363 167.522)" opacity="0.4">
              <g id="Grupo_1101407" data-name="Grupo 1101407">
                <g id="Grupo_1101406" data-name="Grupo 1101406" clip-path="url(#clip-path-20)">
                  <path id="Trazado_897086" data-name="Trazado 897086" d="M617.708,1378.264a4.407,4.407,0,1,1-2.577-5.675,4.407,4.407,0,0,1,2.577,5.675" transform="translate(-609.173 -1372.306)" fill="#8c9df4"/>
                </g>
              </g>
            </g>
            <g id="Grupo_1101411" data-name="Grupo 1101411" transform="translate(74.364 181.179)" opacity="0.4">
              <g id="Grupo_1101410" data-name="Grupo 1101410">
                <g id="Grupo_1101409" data-name="Grupo 1101409" clip-path="url(#clip-path-21)">
                  <path id="Trazado_897087" data-name="Trazado 897087" d="M617,1491.381a4.407,4.407,0,1,1-.627-6.2,4.407,4.407,0,0,1,.627,6.2" transform="translate(-609.181 -1484.186)" fill="#8c9df4"/>
                </g>
              </g>
            </g>
            <g id="Grupo_1101414" data-name="Grupo 1101414" transform="translate(101.249 167.522)" opacity="0.4">
              <g id="Grupo_1101413" data-name="Grupo 1101413">
                <g id="Grupo_1101412" data-name="Grupo 1101412" clip-path="url(#clip-path-20)">
                  <path id="Trazado_897088" data-name="Trazado 897088" d="M837.953,1378.264a4.407,4.407,0,1,1-2.577-5.675,4.407,4.407,0,0,1,2.577,5.675" transform="translate(-829.418 -1372.306)" fill="#8c9df4"/>
                </g>
              </g>
            </g>
            <g id="Grupo_1101417" data-name="Grupo 1101417" transform="translate(101.25 181.179)" opacity="0.4">
              <g id="Grupo_1101416" data-name="Grupo 1101416">
                <g id="Grupo_1101415" data-name="Grupo 1101415" clip-path="url(#clip-path-21)">
                  <path id="Trazado_897089" data-name="Trazado 897089" d="M837.249,1491.379a4.4,4.4,0,0,1-6,.777c-.067-.047-.132-.1-.2-.151a4.407,4.407,0,1,1,5.574-6.828c.064.053.126.106.187.162a4.407,4.407,0,0,1,.44,6.039" transform="translate(-829.428 -1484.184)" fill="#8c9df4"/>
                </g>
              </g>
            </g>
            <g id="Grupo_1101420" data-name="Grupo 1101420" transform="translate(88.307 167.522)" opacity="0.4">
              <g id="Grupo_1101419" data-name="Grupo 1101419">
                <g id="Grupo_1101418" data-name="Grupo 1101418" clip-path="url(#clip-path-20)">
                  <path id="Trazado_897090" data-name="Trazado 897090" d="M731.79,1374.829a4.407,4.407,0,1,1-5.87-2.1,4.407,4.407,0,0,1,5.87,2.1" transform="translate(-723.399 -1372.308)" fill="#8c9df4"/>
                </g>
              </g>
            </g>
            <g id="Grupo_1101423" data-name="Grupo 1101423" transform="translate(88.307 181.178)" opacity="0.4">
              <g id="Grupo_1101422" data-name="Grupo 1101422">
                <g id="Grupo_1101421" data-name="Grupo 1101421" clip-path="url(#clip-path-20)">
                  <path id="Trazado_897091" data-name="Trazado 897091" d="M726.168,1492.676a4.407,4.407,0,1,1,5.729-2.454,4.407,4.407,0,0,1-5.729,2.454" transform="translate(-723.397 -1484.175)" fill="#8c9df4"/>
                </g>
              </g>
            </g>
            <path id="Trazado_897092" data-name="Trazado 897092" d="M641.734,1387.909h0a.5.5,0,0,1-.494-.494v-5.638a.494.494,0,0,1,.988,0v5.638a.5.5,0,0,1-.494.494" transform="translate(-562.962 -1212.666)" fill="#8c9df4"/>
            <path id="Trazado_897093" data-name="Trazado 897093" d="M739.286,1392.88h0a.5.5,0,0,1,0-.7l3.986-3.986a.494.494,0,0,1,.7.7l-3.986,3.987a.5.5,0,0,1-.7,0" transform="translate(-648.913 -1218.607)" fill="#8c9df4"/>
            <path id="Trazado_897094" data-name="Trazado 897094" d="M848.15,1391.135h0a.5.5,0,0,1-.11-.69l3.307-4.566a.494.494,0,1,1,.8.579l-3.307,4.566a.5.5,0,0,1-.69.11" transform="translate(-744.435 -1216.522)" fill="#8c9df4"/>
            <path id="Trazado_897095" data-name="Trazado 897095" d="M853.5,1502.054h0a.5.5,0,0,1-.675-.181l-2.819-4.883a.494.494,0,0,1,.856-.494l2.819,4.882a.5.5,0,0,1-.181.675" transform="translate(-746.189 -1313.598)" fill="#8c9df4"/>
            <path id="Trazado_897096" data-name="Trazado 897096" d="M739.576,1512.35h0a.5.5,0,0,1-.6.349l-5.446-1.459a.494.494,0,1,1,.256-.954l5.446,1.459a.5.5,0,0,1,.349.6" transform="translate(-643.661 -1325.906)" fill="#8c9df4"/>
            <path id="Trazado_897097" data-name="Trazado 897097" d="M627.05,1504.949h0a.5.5,0,0,1-.181.675l-4.882,2.819a.494.494,0,1,1-.494-.856l4.882-2.819a.5.5,0,0,1,.675.181" transform="translate(-545.409 -1321.019)" fill="#8c9df4"/>
            <path id="Trazado_897098" data-name="Trazado 897098" d="M492.757,1057.5a26.65,26.65,0,0,0-3.993,1.952c-1.8,2-1.288,4.606-.257,4.631.661.016.533,1.115.533,1.115l7.365-3.116s-.887-5.171-3.648-4.583" transform="translate(-428.053 -928.369)" fill="#2b478b"/>
            <path id="Trazado_897099" data-name="Trazado 897099" d="M463.59,1040.508a2.638,2.638,0,0,0-2.942-2.869,3.765,3.765,0,0,1,1.474.79,3.791,3.791,0,0,0-4.27.644c-2.225,1.844-.842,6.47-1.519,7.348s-3.311,1.054-2.989,3.894,8.362,6.4,7.846,8.746c0,0,3.151-4.632.9-6.746a4.175,4.175,0,0,1,1.21,2.264s.3-2.4-1.23-3.168a5.64,5.64,0,0,1-2.342-3.609c.117-.444,3.865-7.3,3.865-7.3" transform="translate(-397.979 -910.971)" fill="#2b478b"/>
            <path id="Trazado_897100" data-name="Trazado 897100" d="M333.166,1280.077l-1.594-.234a18.841,18.841,0,0,1-6.157-12.2,17.081,17.081,0,0,0-1.272-4.589c-.57-.923-1.545-2.668-2.617-4.626-1.932-3.526-4.182-7.743-4.954-9.086-2.459-4.281-1.273-7.159-1.273-7.159s6.859-.678,8.739-2.322l.677,1.043s1.486,6.579,1.416,6.61l.223.683a114.4,114.4,0,0,1,3.257,11.829c.413,2.073.523,6.181.636,6.982.664,4.722,2.92,13.074,2.92,13.074" transform="translate(-276.559 -1088.502)" fill="#2b478b"/>
            <path id="Trazado_897101" data-name="Trazado 897101" d="M443.019,1559.255H436.37a3.654,3.654,0,0,1,.188-1.782c.333-.738.807-.761.061-1.918a4.05,4.05,0,0,0,2.742.486,8.14,8.14,0,0,0,1.153,1.755c.434.312,2.372.2,2.506,1.46" transform="translate(-383.069 -1365.664)" fill="#2c4977"/>
            <path id="Trazado_897102" data-name="Trazado 897102" d="M321.525,1255.409c-1.932-3.526-4.182-7.743-4.954-9.086-2.459-4.281-1.274-7.159-1.274-7.159a18.149,18.149,0,0,0,5.2-2.741s1.536,13.384,1.023,18.987" transform="translate(-276.558 -1085.488)" fill="#233862"/>
            <path id="Trazado_897103" data-name="Trazado 897103" d="M249.672,1232.693l.022-1.244c-2.478.313-8.543-2.961-8.543-2.961s-2.592,1.724-2.947,6.648c-.173,2.4-1.269,12.567-1.39,15.6a17.042,17.042,0,0,1-1.512,4.516c-3.781,7.035-1.8,16.593-1.8,16.593l.878-.223s3.2-9.909,5.286-14.2c.355-.727,2.56-4.194,3.377-6.145a118.265,118.265,0,0,0,4.111-12.319c.075.014,2.521-6.271,2.521-6.271" transform="translate(-204.541 -1078.523)" fill="#2b478b"/>
            <path id="Trazado_897104" data-name="Trazado 897104" d="M472.248,1127.214c-4.051-.93-1.463-6.622-1.228-6.521,1.736-.66,1.3-.131,2.672-2.078a6.307,6.307,0,0,0,.374-.817l2.488,2.181a7.529,7.529,0,0,1-1.059,1.679c-.863.979-1.629,1.148-1.578,1.368.2.158-.587,4.436-1.668,4.188" transform="translate(-412.617 -981.344)" fill="#ffb27d"/>
            <path id="Trazado_897105" data-name="Trazado 897105" d="M485.521,1160.3a20.411,20.411,0,0,1,1.092,2.623c.38,1.217,1.331,5.089,1.331,5.089a6.516,6.516,0,0,1-4.688,2.107s-1.467-2.3-.95-4.369,3.215-5.45,3.215-5.45" transform="translate(-423.332 -1018.659)" fill="#6980e0"/>
            <path id="Trazado_897106" data-name="Trazado 897106" d="M505.676,1119.983a3.92,3.92,0,0,1-1.059,1.679,4.767,4.767,0,0,1-1.429-3.86Z" transform="translate(-441.74 -981.348)" fill="#ed985f"/>
            <path id="Trazado_897107" data-name="Trazado 897107" d="M504.856,1089.094s-3.756-2.09-2.418-4.409,1.754-4.15,4.208-2.914,2.406,2.387,2.148,3.27-2.926,4.537-3.937,4.053" transform="translate(-440.851 -949.367)" fill="#ffb27d"/>
            <path id="Trazado_897108" data-name="Trazado 897108" d="M506.588,1081.429c-.172-1.03-.7-1.128-1.06-1.059a3,3,0,0,0-3.653-1.4,5.114,5.114,0,0,1-2.96,1.778s.436.811,2.232,1.313a3.068,3.068,0,0,0,1.772-.142,10.021,10.021,0,0,1-2.549.961c2.366.217,4.618-1.947,4.851-2.178a3.369,3.369,0,0,1,.186,1.55c-.156.7-.775,1.96-.4,2.124,0,0,1.836-1.4,1.578-2.948" transform="translate(-438.011 -947.107)" fill="#2b478b"/>
            <path id="Trazado_897109" data-name="Trazado 897109" d="M232.446,1558.911H225.8a3.652,3.652,0,0,1,.188-1.782c.333-.738.854-1.073.729-1.965a2.4,2.4,0,0,0,2.073.793,7.292,7.292,0,0,0,1.154,1.5c.434.312,2.372.2,2.506,1.459" transform="translate(-198.201 -1365.32)" fill="#2c4977"/>
            <path id="Trazado_897110" data-name="Trazado 897110" d="M284.244,1146.6a16.162,16.162,0,0,1-3.284.6,22.146,22.146,0,0,0-4.5.7,5.985,5.985,0,0,0-1.261.688h0a.394.394,0,0,0-.037.028,4.063,4.063,0,0,0-.521.45,2.852,2.852,0,0,0-.61.905c-.347.857.113,3.232.407,4.53a1.18,1.18,0,0,1-.6,1.309q-1,.516-1.96.952l-.1.045c.006-.132.008-.263.008-.391a12.119,12.119,0,0,0-.112-1.641,6.877,6.877,0,0,1-1.309,2.632c-8.924,3.581-15.158,2.024-15.056.241.352-6.193,4.528-11.461,4.528-11.461,7.789-9.057,23.545-11.442,23.545-11.442s.755-.091,1.665,1c1.31,1.576,1.375,1.987,1.375,1.987s.346,7.99-2.172,8.869" transform="translate(-224.137 -996.22)" fill="#8c9df4"/>
            <path id="Trazado_897111" data-name="Trazado 897111" d="M432.852,1169.038a22.209,22.209,0,0,0-4.5.7,18.438,18.438,0,0,1,2.339-10.118s1.778,7.234,2.161,9.42" transform="translate(-376.03 -1018.06)" fill="#6980e0"/>
            <path id="Trazado_897112" data-name="Trazado 897112" d="M446.344,1150.465s-4.382.433-4.733,3.28,4.2,14.445,4.853,15.495c1.187,1.912,8.176,8.465,8.176,8.465l1.288-.781s-4.958-8.393-5.725-9.178c-1.205-1.233-2.375-16.3-3.859-17.281" transform="translate(-387.685 -1010.024)" fill="#ffb27d"/>
            <path id="Trazado_897113" data-name="Trazado 897113" d="M445.274,1153s.45-7.342-5.169-5.567.872,14.4.872,14.4,3.3-.163,4.467-3.041Z" transform="translate(-384.37 -1007.121)" fill="#8c9df4"/>
            <path id="Trazado_897114" data-name="Trazado 897114" d="M392.055,1257.5a1.18,1.18,0,0,1-.6,1.309q-1,.515-1.96.952c-.034-.11-.065-.224-.093-.346a6.021,6.021,0,0,1-.112-1.641,8.9,8.9,0,0,1,2.973-5.709,2.852,2.852,0,0,0-.61.905c-.347.857.113,3.232.407,4.531" transform="translate(-341.754 -1099.225)" fill="#6980e0"/>
            <path id="Trazado_897115" data-name="Trazado 897115" d="M485.28,1128.715s.686-.867,1.15-.839c0,0,1.875,2.625,1.89,3.829,0,0-2.339-3.112-3.04-2.99" transform="translate(-426.041 -990.192)" fill="#6980e0"/>
            <path id="Trazado_897116" data-name="Trazado 897116" d="M593.808,1334s-1,.018-1.212-.013a6.4,6.4,0,0,0-.777-.132,3.315,3.315,0,0,0-.8.134.585.585,0,0,1-.119.011h-1.654a.991.991,0,0,1-.348-.371c-.078-.126-.089-.427-.268-.527-1-.559,1.664-.243,1.664-.243a10.3,10.3,0,0,1,1.828.085,18.19,18.19,0,0,1,1.684,1.055" transform="translate(-516.579 -1170.074)" fill="#ed985f"/>
            <path id="Trazado_897117" data-name="Trazado 897117" d="M595.1,1337.866a7.7,7.7,0,0,1,1.291.481l.291.184s.169-.188-.1-.4a1.276,1.276,0,0,1-.539-.8c-.013-.37-1.159-.047-.946.535" transform="translate(-522.433 -1173.941)" fill="#ed985f"/>
            <path id="Trazado_897118" data-name="Trazado 897118" d="M548.347,1366.875a4.067,4.067,0,0,0,1.277.781c.552.136,1.179,1.716,1.279,1.942s-.527-.1-.777-.485-.422-.535-.5-.452a2.946,2.946,0,0,0,.462,1.722c.418.585.669,1.1.368,1.07s-2.09-.468-2.458-1.555-.1-1.125-.944-2.243,1.288-.781,1.288-.781" transform="translate(-480.104 -1199.974)" fill="#ffb27d"/>
            <path id="Trazado_897119" data-name="Trazado 897119" d="M1416.779,1534.359a3.36,3.36,0,0,1-3.349,3.349h-15.812a3.348,3.348,0,0,1,0-6.7h15.812a3.358,3.358,0,0,1,3.349,3.347" transform="translate(-1224.069 -1344.117)" fill="#6980e0"/>
            <path id="Trazado_897120" data-name="Trazado 897120" d="M1408.622,1534.359a3.358,3.358,0,0,1-3.348,3.349h-7.656a3.348,3.348,0,0,1,0-6.7h7.656a3.357,3.357,0,0,1,3.348,3.347" transform="translate(-1224.069 -1344.117)" fill="#8c9df4"/>
            <g id="Grupo_1101426" data-name="Grupo 1101426" transform="translate(174.073 187.638)" opacity="0.4">
              <g id="Grupo_1101425" data-name="Grupo 1101425">
                <g id="Grupo_1101424" data-name="Grupo 1101424" clip-path="url(#clip-path-26)">
                  <path id="Trazado_897121" data-name="Trazado 897121" d="M1441.534,1538.151h-15.082a.476.476,0,0,1-.474-.474v-.107a.476.476,0,0,1,.474-.474h15.082a.476.476,0,0,1,.474.474v.107a.476.476,0,0,1-.474.474" transform="translate(-1425.978 -1537.095)" fill="#e9f3fe"/>
                </g>
              </g>
            </g>
            <path id="Trazado_897122" data-name="Trazado 897122" d="M1312.005,1468.18a3.562,3.562,0,0,1-1.583,4.764l-14.987,7.51a3.549,3.549,0,0,1-3.18-6.347l14.987-7.51a3.56,3.56,0,0,1,4.764,1.582" transform="translate(-1132.788 -1287.238)" fill="#ef7e29"/>
            <path id="Trazado_897123" data-name="Trazado 897123" d="M1304.274,1499.916a3.56,3.56,0,0,1-1.582,4.764l-7.257,3.637a3.549,3.549,0,0,1-3.18-6.347l7.257-3.636a3.559,3.559,0,0,1,4.763,1.583" transform="translate(-1132.788 -1315.099)" fill="#f99746"/>
            <g id="Grupo_1101429" data-name="Grupo 1101429" transform="translate(160.488 179.884)" opacity="0.5">
              <g id="Grupo_1101428" data-name="Grupo 1101428">
                <g id="Grupo_1101427" data-name="Grupo 1101427" clip-path="url(#clip-path-27)">
                  <path id="Trazado_897124" data-name="Trazado 897124" d="M1329.763,1474.63l-14.3,7.164a.5.5,0,0,1-.675-.224l-.051-.1a.505.505,0,0,1,.225-.675l14.3-7.164a.5.5,0,0,1,.675.224l.051.1a.5.5,0,0,1-.224.675" transform="translate(-1314.689 -1473.577)" fill="#ffe2cc"/>
                </g>
              </g>
            </g>
            <path id="Trazado_897125" data-name="Trazado 897125" d="M279.063,1586.759H.348a.349.349,0,0,1-.348-.348v-.2a.349.349,0,0,1,.348-.348H279.063a.349.349,0,0,1,.348.348v.2a.349.349,0,0,1-.348.348" transform="translate(0 -1392.274)" fill="#233862"/>
          </g>
        </g>
      </g>
    </g>
  </g>
</svg>
