<svg xmlns="http://www.w3.org/2000/svg" width="68" height="68" viewBox="0 0 68 68">
  <g id="Grupo_1100811" data-name="Grupo 1100811" transform="translate(-203 -511)">
    <g id="Elipse_11543" data-name="Elipse 11543" transform="translate(203 511)" fill="#ece4d8" stroke="#a49f96" stroke-width="1">
      <circle cx="34" cy="34" r="34" stroke="none"/>
      <circle cx="34" cy="34" r="33.5" fill="none"/>
    </g>
    <g id="nutricionista" transform="translate(220.902 519.656)">
      <path id="Trazado_876158" data-name="Trazado 876158" d="M84.032,22.33c0,.816-1.327,1.521-1.445,2.3-.122.8.93,1.874.692,2.628-.245.774-1.722,1.042-2.078,1.75-.364.724.3,2.07-.167,2.712s-1.96.43-2.531.983-.408,2.053-1.071,2.5-1.975-.287-2.714.024S73.589,36.98,72.8,37.14c-.775.157-1.7-1.021-2.515-1.021S68.541,37.3,67.766,37.14c-.792-.16-1.186-1.609-1.921-1.918s-2.046.422-2.714-.024-.492-1.935-1.071-2.5-2.055-.329-2.531-.983.2-1.987-.167-2.712c-.355-.708-1.833-.975-2.078-1.75-.238-.754.815-1.823.692-2.628-.118-.779-1.445-1.484-1.445-2.3s1.327-1.521,1.445-2.3c.122-.8-.93-1.874-.692-2.628.245-.774,1.722-1.042,2.078-1.75.364-.724-.3-2.07.167-2.712s1.96-.43,2.531-.983.408-2.053,1.071-2.5,1.975.287,2.714-.024,1.129-1.758,1.921-1.918c.775-.157,1.7,1.021,2.515,1.021S72.022,7.362,72.8,7.519c.792.16,1.186,1.609,1.921,1.918s2.046-.422,2.714.024.492,1.935,1.071,2.5,2.055.329,2.531.983-.2,1.987.167,2.712c.355.708,1.833.975,2.078,1.75.238.754-.815,1.823-.692,2.628.118.779,1.445,1.484,1.445,2.3Z" transform="translate(-55.801 -6.823)" fill="#704444"/>
      <path id="Trazado_876159" data-name="Trazado 876159" d="M96.1,133.07l-.084-1.315h-1A1.742,1.742,0,0,0,93.28,133.5a3.424,3.424,0,0,0,3.424,3.424h.066l.365-4.881Z" transform="translate(-89.211 -119.783)" fill="#ca6e59"/>
      <path id="Trazado_876160" data-name="Trazado 876160" d="M138,262.071h10.035s1.477-8.494,1.372-8.523l-.748-.214a2.1,2.1,0,0,1-1.525-2.022v-2.432H138.9v2.432a2.1,2.1,0,0,1-1.525,2.022l-.748.214c-.1.03,1.371,8.524,1.371,8.524Z" transform="translate(-128.618 -226.265)" fill="#bb5d4c"/>
      <path id="Trazado_876161" data-name="Trazado 876161" d="M154.248,334.115a4.051,4.051,0,0,1-3.895,2.938h-3.925a4.051,4.051,0,0,1-3.895-2.938l3.348,11.719V349.6H150.9v-3.763Z" transform="translate(-133.99 -303.756)" fill="#fed402"/>
      <path id="Trazado_876162" data-name="Trazado 876162" d="M175.4,484.5l.361,1.817h5.017l.361-1.817Z" transform="translate(-163.869 -440.476)" fill="#fac600"/>
      <path id="Trazado_876163" data-name="Trazado 876163" d="M63.332,300.253l-.618.177-.955.273A7.939,7.939,0,0,0,56,308.336v10.385a.091.091,0,0,0,.091.091h11.12v-3.763Z" transform="translate(-55.32 -272.971)" fill="#dff6fd"/>
      <path id="Trazado_876164" data-name="Trazado 876164" d="M238.484,300.253l.618.177.955.273a7.939,7.939,0,0,1,5.758,7.633v10.385a.091.091,0,0,1-.091.091H234.6v-3.763Z" transform="translate(-217.694 -272.971)" fill="#dff6fd"/>
      <path id="Trazado_876165" data-name="Trazado 876165" d="M116.627,313.756l-6.272-8.781,1.254-1.254-1.254-1.505,2.389-3.344a.1.1,0,0,1,.17.032Z" transform="translate(-104.735 -271.678)" fill="#f2fbff"/>
      <path id="Trazado_876166" data-name="Trazado 876166" d="M234.593,313.756l6.273-8.781-1.254-1.254,1.253-1.505-2.389-3.344a.1.1,0,0,0-.17.032Z" transform="translate(-217.684 -271.678)" fill="#f2fbff"/>
      <path id="Trazado_876167" data-name="Trazado 876167" d="M55.99,484.5v1.727a.091.091,0,0,0,.091.091H67.2V484.5Z" transform="translate(-55.31 -440.475)" fill="#c8effe"/>
      <path id="Trazado_876168" data-name="Trazado 876168" d="M240.036,303.475l-.6-.172a7.937,7.937,0,0,1,2.726,5.988v4.9a5.58,5.58,0,0,1-5.58,5.58h-2v1.817H245.7a.091.091,0,0,0,.091-.091V311.109A7.939,7.939,0,0,0,240.036,303.475Z" transform="translate(-217.673 -275.743)" fill="#c8effe"/>
      <circle id="Elipse_11544" data-name="Elipse 11544" cx="1.254" cy="1.254" r="1.254" transform="translate(21.269 38.315)" fill="#91b9de"/>
      <path id="Trazado_876169" data-name="Trazado 876169" d="M278.046,131.755h2.133a1.742,1.742,0,0,1,1.742,1.742,3.424,3.424,0,0,1-3.424,3.424h-.066Z" transform="translate(-257.189 -119.783)" fill="#bb5d4c"/>
      <path id="Trazado_876170" data-name="Trazado 876170" d="M290.693,416.644h12.469a.1.1,0,0,0,.1-.072l2.452-8.582a.1.1,0,0,0-.1-.127H293.2Z" transform="translate(-268.686 -370.803)" fill="#fd6930"/>
      <path id="Trazado_876171" data-name="Trazado 876171" d="M305.614,407.862h-4.022l-1.137,3.979a4.115,4.115,0,0,1-3.957,2.984h-5.287l-.519,1.817h12.469a.1.1,0,0,0,.1-.072l2.452-8.582a.1.1,0,0,0-.1-.127Z" transform="translate(-268.686 -370.802)" fill="#fd5426"/>
      <path id="Trazado_876172" data-name="Trazado 876172" d="M360.44,394.059h4.886a.1.1,0,0,1,.1.127l-.66,2.31a.1.1,0,0,1-.1.072h-4.943Z" transform="translate(-331.444 -358.253)" fill="#b4d2e2"/>
      <path id="Trazado_876173" data-name="Trazado 876173" d="M61.647,441.745A5.645,5.645,0,0,1,56,436.1v-.627h11.29v.627A5.645,5.645,0,0,1,61.647,441.745Z" transform="translate(-55.321 -395.904)" fill="#05e39c"/>
      <path id="Trazado_876174" data-name="Trazado 876174" d="M72.464,484.5a5.63,5.63,0,0,0,4.146,1.817h.007a5.629,5.629,0,0,0,4.146-1.817Z" transform="translate(-70.287 -440.475)" fill="#0ed290"/>
      <path id="Trazado_876175" data-name="Trazado 876175" d="M83.613,435.473v.627a3.136,3.136,0,0,0,6.272,0v-.627Z" transform="translate(-80.423 -395.904)" fill="#fd4755"/>
      <path id="Trazado_876176" data-name="Trazado 876176" d="M137.244,92.75a9.194,9.194,0,0,1-5.1-1.544l-3.2-2.135a1.291,1.291,0,0,0-2.007,1.074,3.261,3.261,0,0,1-.955,2.306l-1.614,1.614.241,3.785a7.281,7.281,0,0,0,14.533,0l.325-5.1h-2.22Z" transform="translate(-117.471 -80.778)" fill="#d78878"/>
      <path id="Trazado_876177" data-name="Trazado 876177" d="M162.909,130.368a9.189,9.189,0,0,1-1.591-.139,2.091,2.091,0,0,1,.035.537l-.184,2.884a7.287,7.287,0,0,1-8.575,6.7,7.281,7.281,0,0,0,12.209-4.883l.325-5.1Z" transform="translate(-143.136 -118.396)" fill="#ca6e59"/>
      <path id="Trazado_876178" data-name="Trazado 876178" d="M360.44,394.059h4.886a.1.1,0,0,1,.1.127l-.66,2.31a.1.1,0,0,1-.1.072h-4.943Z" transform="translate(-331.444 -358.253)" fill="#b4d2e2"/>
      <path id="Trazado_876179" data-name="Trazado 876179" d="M193.068,155.812h.174a1.8,1.8,0,0,0,1.8-1.8v-1.465a.681.681,0,0,0-1.363,0v1.465a.436.436,0,0,1-.436.436h-.174a.682.682,0,1,0,0,1.363Z" transform="translate(-179.313 -138.067)"/>
      <path id="Trazado_876180" data-name="Trazado 876180" d="M176.691,206.271a.682.682,0,1,0-.964-.964,3.086,3.086,0,0,1-4.358,0,.682.682,0,1,0-.964.964A4.45,4.45,0,0,0,176.691,206.271Z" transform="translate(-159.147 -186.471)"/>
      <path id="Trazado_876181" data-name="Trazado 876181" d="M86.053,36.69a.785.785,0,0,0-.623-.31H83.061l.074-.258a.781.781,0,0,0-.751-1H77.5a.678.678,0,0,0-.2.029,8.679,8.679,0,0,0-.1-1.122.682.682,0,0,0-1.347.21,7.3,7.3,0,0,1,.087,1.123v1.014H73.018a.681.681,0,0,0-.655.494l-.3,1.06a1.929,1.929,0,0,0-.353-.176V34.438l.532-.744a.681.681,0,0,0-.073-.878l-.459-.459v-.782l.5-.6a.681.681,0,0,0,.031-.832l-1.163-1.628A7.251,7.251,0,0,1,74.8,31.457a.682.682,0,1,0,1.148-.734A8.613,8.613,0,0,0,71.4,27.183a2.205,2.205,0,0,1,.283-.814,2.406,2.406,0,0,1,.864-.257,2.582,2.582,0,0,0,1.744-.814,2.562,2.562,0,0,0,.239-1.881,2.4,2.4,0,0,1-.014-.926,2.394,2.394,0,0,1,.731-.52,2.6,2.6,0,0,0,1.387-1.33,2.564,2.564,0,0,0-.364-1.849,2.393,2.393,0,0,1-.3-.881A2.387,2.387,0,0,1,76.5,17.2a2.612,2.612,0,0,0,.918-1.69,2.613,2.613,0,0,0-.918-1.69,2.387,2.387,0,0,1-.535-.712,2.391,2.391,0,0,1,.3-.881,2.564,2.564,0,0,0,.364-1.849,2.6,2.6,0,0,0-1.387-1.33,2.394,2.394,0,0,1-.731-.52,2.4,2.4,0,0,1,.014-.926,2.562,2.562,0,0,0-.239-1.881A2.582,2.582,0,0,0,72.542,4.9a2.408,2.408,0,0,1-.864-.257,2.418,2.418,0,0,1-.3-.87,2.553,2.553,0,0,0-.872-1.7,2.553,2.553,0,0,0-1.92-.151,2.428,2.428,0,0,1-.908.065A2.434,2.434,0,0,1,67.1,1.3,2.552,2.552,0,0,0,65.633.029a2.524,2.524,0,0,0-1.817.592,2.391,2.391,0,0,1-.834.415,2.393,2.393,0,0,1-.833-.415A2.523,2.523,0,0,0,60.332.029,2.552,2.552,0,0,0,58.865,1.3a2.433,2.433,0,0,1-.584.688,2.422,2.422,0,0,1-.908-.065,2.554,2.554,0,0,0-1.92.151,2.554,2.554,0,0,0-.872,1.7,2.416,2.416,0,0,1-.3.87,2.406,2.406,0,0,1-.864.257,2.582,2.582,0,0,0-1.744.814A2.562,2.562,0,0,0,51.439,7.6a2.4,2.4,0,0,1,.014.926,2.393,2.393,0,0,1-.731.52,2.6,2.6,0,0,0-1.387,1.33,2.565,2.565,0,0,0,.364,1.849,2.391,2.391,0,0,1,.3.881,2.388,2.388,0,0,1-.535.712,2.613,2.613,0,0,0-.918,1.69,2.613,2.613,0,0,0,.918,1.69A2.386,2.386,0,0,1,50,17.91a2.389,2.389,0,0,1-.3.881,2.565,2.565,0,0,0-.364,1.849,2.6,2.6,0,0,0,1.387,1.33,2.4,2.4,0,0,1,.731.519,2.4,2.4,0,0,1-.014.926,2.562,2.562,0,0,0,.239,1.881,2.582,2.582,0,0,0,1.744.814,2.408,2.408,0,0,1,.864.257,2.047,2.047,0,0,1,.272.767,8.621,8.621,0,0,0-6.056,8.23v.447a.681.681,0,1,0,1.363,0v-.447a7.291,7.291,0,0,1,4.865-6.852l-1.163,1.628a.681.681,0,0,0,.031.832l.325.39a3.148,3.148,0,0,0-3.015,3.141v4.383H49.857a.682.682,0,0,0-1.355.105v6.758a.773.773,0,0,0,.772.772h33.7a.785.785,0,0,0,.751-.566l2.452-8.583a.785.785,0,0,0-.128-.684Zm-4.441-.2-.327,1.146h-3.6l.327-1.146ZM71.5,39.889a.573.573,0,1,1,.1-.34ZM64.75,41.913a.681.681,0,0,0-.02.186V45.16H61.076V42.1a.69.69,0,0,0-.023-.192l-.065-.26a6.324,6.324,0,0,0,.167-1.446V39.57a.681.681,0,0,0-.681-.681H60.3l-1.335-5.341a4.728,4.728,0,0,0,1.977.431h3.925a4.728,4.728,0,0,0,1.976-.431Zm-7.468-1.662a2.454,2.454,0,0,1-4.908,0Zm-1.424-7.726A.681.681,0,0,0,55.9,31.6l-.914-1.1,1.345-1.883,2.535,10.139-3.85-5.39Zm3.611-7.478V23.793a7.952,7.952,0,0,0,6.869,0v1.258A2.8,2.8,0,0,0,68.3,27.708l-.955,3.819a3.362,3.362,0,0,1-2.481,1.09H60.941a3.362,3.362,0,0,1-2.482-1.091L57.5,27.708a2.8,2.8,0,0,0,1.965-2.661Zm10.008,3.576,1.345,1.883-.917,1.1a.682.682,0,0,0,.042.918l.846.846-3.851,5.391Zm-15.8-3.85a2.232,2.232,0,0,1-.893-.277,2.276,2.276,0,0,1,.012-.911,2.973,2.973,0,0,0-.12-1.705,2.921,2.921,0,0,0-1.279-1.095c-.283-.16-.71-.4-.758-.554a2.282,2.282,0,0,1,.3-.856,2.967,2.967,0,0,0,.42-1.669,2.9,2.9,0,0,0-.882-1.433c-.221-.239-.555-.6-.555-.765s.334-.526.555-.765a2.9,2.9,0,0,0,.882-1.433,2.969,2.969,0,0,0-.42-1.669,2.286,2.286,0,0,1-.3-.856c.048-.153.476-.395.758-.554a2.921,2.921,0,0,0,1.279-1.095,2.973,2.973,0,0,0,.121-1.7,2.275,2.275,0,0,1-.012-.911,2.234,2.234,0,0,1,.893-.277,2.946,2.946,0,0,0,1.561-.618,2.985,2.985,0,0,0,.677-1.551,2.259,2.259,0,0,1,.3-.868,2.24,2.24,0,0,1,.924.058,2.987,2.987,0,0,0,1.675-.021,2.984,2.984,0,0,0,1.18-1.174c.172-.252.461-.673.612-.7s.576.253.811.4a3.034,3.034,0,0,0,1.569.631,3.035,3.035,0,0,0,1.569-.631c.235-.151.673-.431.811-.4s.44.452.612.7a2.984,2.984,0,0,0,1.18,1.174,2.987,2.987,0,0,0,1.675.021,2.239,2.239,0,0,1,.924-.058,2.259,2.259,0,0,1,.3.868,2.984,2.984,0,0,0,.677,1.551,2.945,2.945,0,0,0,1.562.618,2.233,2.233,0,0,1,.893.277,2.275,2.275,0,0,1-.012.911,2.973,2.973,0,0,0,.121,1.7,2.921,2.921,0,0,0,1.279,1.095c.283.16.71.4.758.554a2.282,2.282,0,0,1-.3.856,2.968,2.968,0,0,0-.42,1.669,2.9,2.9,0,0,0,.882,1.433c.221.239.556.6.556.765s-.334.526-.556.765a2.9,2.9,0,0,0-.882,1.433,2.968,2.968,0,0,0,.42,1.669,2.284,2.284,0,0,1,.3.856c-.048.153-.476.395-.758.554a2.921,2.921,0,0,0-1.279,1.095,2.973,2.973,0,0,0-.121,1.7,2.276,2.276,0,0,1,.012.911,2.233,2.233,0,0,1-.893.277,2.944,2.944,0,0,0-1.561.618,2.744,2.744,0,0,0-.645,1.41l-.305-.087a.779.779,0,0,0-.757-.217l-.29-.083A1.427,1.427,0,0,1,67.7,25.047V22.956A7.965,7.965,0,0,0,70.791,17.7a4.092,4.092,0,0,0,3.126-3.988,2.427,2.427,0,0,0-2.424-2.424H68.275a8.486,8.486,0,0,1-4.722-1.43l-3.2-2.135a1.973,1.973,0,0,0-3.067,1.641,2.562,2.562,0,0,1-.755,1.824l-.569.569a.682.682,0,0,0-.647-.469h-1a2.427,2.427,0,0,0-2.424,2.424A4.092,4.092,0,0,0,55.016,17.7a7.958,7.958,0,0,0,.2.988.682.682,0,0,0,1.316-.356,6.65,6.65,0,0,1-.212-1.262c0-.03-.035-.54-.225-3.522l1.4-1.4a3.916,3.916,0,0,0,1.155-2.788.61.61,0,0,1,.948-.507L62.8,11a9.845,9.845,0,0,0,5.478,1.659h1.494l-.279,4.374a6.6,6.6,0,0,1-11.607,3.863.682.682,0,1,0-1.036.885,7.992,7.992,0,0,0,1.26,1.187v2.083a1.427,1.427,0,0,1-1.031,1.367l-.291.083a.78.78,0,0,0-.758.217l-.156.045a2.681,2.681,0,0,0-.635-1.368A2.946,2.946,0,0,0,53.673,24.773Zm17.82-12.119a1.062,1.062,0,0,1,1.061,1.061,2.734,2.734,0,0,1-1.647,2.517l.228-3.578ZM54.9,16.232a2.734,2.734,0,0,1-1.648-2.517,1.062,1.062,0,0,1,1.061-1.061h.359ZM52.272,34.506A1.784,1.784,0,0,1,53.7,32.761l-.055.055a.681.681,0,0,0-.073.878l3.614,5.059v.136H52.272Zm-1.261,5.746a3.818,3.818,0,0,0,7.634,0h1.146a4.963,4.963,0,0,1-9.926,0ZM49.865,45.16V44.116A6.38,6.38,0,0,0,50.91,45.16Zm9.848-.947v.947h-.966A6.385,6.385,0,0,0,59.713,44.213Zm6.38-1.917,4.251-5.95v1.412a1.936,1.936,0,0,0,.7,3.748L69.995,45.16h-3.9ZM82.539,45.16H71.412l2.119-7.418h2.7l-.11.386a.681.681,0,0,0,.655.869h4.943a.784.784,0,0,0,.751-.567l.2-.688h1.987Z" transform="translate(-48.502 -0.001)"/>
    </g>
  </g>
</svg>
