<svg xmlns="http://www.w3.org/2000/svg" xmlns:xlink="http://www.w3.org/1999/xlink" width="610" height="420.241" viewBox="0 0 610 420.241">
  <defs>
    <clipPath id="clip-path">
      <rect id="Rectángulo_401450" data-name="Rectángulo 401450" width="495" height="420.241" fill="none"/>
    </clipPath>
    <clipPath id="clip-path-2">
      <rect id="Rectángulo_401449" data-name="Rectángulo 401449" width="72.161" height="53.575" fill="none"/>
    </clipPath>
  </defs>
  <g id="Grupo_1101236" data-name="Grupo 1101236" transform="translate(-810 -1119.8)">
    <rect id="Rectángulo_401509" data-name="Rectángulo 401509" width="610" height="176.85" rx="6" transform="translate(810 1153.782)" fill="#ece4d8"/>
    <g id="Grupo_1101233" data-name="Grupo 1101233" transform="translate(883 1119.801)">
      <g id="Grupo_1101228" data-name="Grupo 1101228" transform="translate(0 0)">
        <g id="Grupo_1101227" data-name="Grupo 1101227" clip-path="url(#clip-path)">
          <g id="Grupo_1101226" data-name="Grupo 1101226" transform="translate(384.565 40.004)">
            <g id="Grupo_1101225" data-name="Grupo 1101225" clip-path="url(#clip-path-2)">
              <g id="Grupo_1101224" data-name="Grupo 1101224">
                <g id="Grupo_1101223" data-name="Grupo 1101223" clip-path="url(#clip-path-2)">
                  <rect id="Rectángulo_401447" data-name="Rectángulo 401447" width="72.162" height="53.575" transform="translate(0)" fill="#c2c8ef"/>
                </g>
              </g>
            </g>
          </g>
        </g>
      </g>
      <rect id="Rectángulo_401451" data-name="Rectángulo 401451" width="54.895" height="40.755" transform="translate(393.798 46.408)" fill="#e9ebf9"/>
      <g id="Grupo_1101230" data-name="Grupo 1101230" transform="translate(0 0)">
        <g id="Grupo_1101229" data-name="Grupo 1101229" clip-path="url(#clip-path)">
          <path id="Trazado_876432" data-name="Trazado 876432" d="M67.82,47.661a5.367,5.367,0,1,0-5.368,5.368,5.368,5.368,0,0,0,5.368-5.368" transform="translate(358.307 8.732)" fill="#dadef5"/>
          <path id="Trazado_876433" data-name="Trazado 876433" d="M66.6,47.983c.321.107,2.89,7.812,2.782,7.491s-3.531-1.712-3.531-1.712-1.712,3-1.712,2.567a13.566,13.566,0,0,0-1.5-2.567L60.5,56.437l-.963-2.89-2.782,1.391,3.21-7.918Z" transform="translate(357.134 9.709)" fill="#dadef5"/>
          <rect id="Rectángulo_401452" data-name="Rectángulo 401452" width="17.624" height="1.841" transform="translate(423.23 70.376)" fill="#dadef5"/>
          <rect id="Rectángulo_401453" data-name="Rectángulo 401453" width="17.624" height="1.841" transform="translate(423.23 74.058)" fill="#dadef5"/>
          <rect id="Rectángulo_401454" data-name="Rectángulo 401454" width="17.624" height="1.841" transform="translate(423.23 77.74)" fill="#dadef5"/>
          <rect id="Rectángulo_401455" data-name="Rectángulo 401455" width="17.624" height="1.841" transform="translate(423.23 81.424)" fill="#dadef5"/>
          <rect id="Rectángulo_401456" data-name="Rectángulo 401456" width="17.624" height="1.841" transform="translate(401.924 70.376)" fill="#dadef5"/>
          <rect id="Rectángulo_401457" data-name="Rectángulo 401457" width="17.624" height="1.841" transform="translate(401.924 74.058)" fill="#dadef5"/>
          <rect id="Rectángulo_401458" data-name="Rectángulo 401458" width="17.624" height="1.841" transform="translate(401.924 77.74)" fill="#dadef5"/>
          <rect id="Rectángulo_401459" data-name="Rectángulo 401459" width="17.624" height="1.841" transform="translate(401.924 81.424)" fill="#dadef5"/>
          <rect id="Rectángulo_401460" data-name="Rectángulo 401460" width="65.287" height="99.918" transform="translate(429.713 266.324)" fill="#c2c8ef"/>
          <rect id="Rectángulo_401461" data-name="Rectángulo 401461" width="12.219" height="99.918" transform="translate(482.781 319.798)" fill="#c2c8ef"/>
          <rect id="Rectángulo_401462" data-name="Rectángulo 401462" width="12.219" height="99.918" transform="translate(429.713 319.798)" fill="#c2c8ef"/>
          <line id="Línea_646" data-name="Línea 646" x1="65.287" transform="translate(429.713 314.76)" fill="none" stroke="#e9ebf9" stroke-miterlimit="10" stroke-width="1"/>
          <line id="Línea_647" data-name="Línea 647" x1="65.287" transform="translate(429.713 366.242)" fill="none" stroke="#dadef5" stroke-miterlimit="10" stroke-width="1"/>
          <path id="Trazado_876434" data-name="Trazado 876434" d="M19.423,243.544H40.546a1.973,1.973,0,0,0,0-3.946H19.423a1.973,1.973,0,0,0,0,3.946" transform="translate(431.426 49.471)" fill="#e9ebf9"/>
          <path id="Trazado_876435" data-name="Trazado 876435" d="M19.423,282.861H40.546a1.973,1.973,0,0,0,0-3.946H19.423a1.973,1.973,0,0,0,0,3.946" transform="translate(431.426 57.589)" fill="#e9ebf9"/>
          <rect id="Rectángulo_401463" data-name="Rectángulo 401463" width="24.547" height="32.71" transform="translate(434.924 233.614)" fill="#e9ebf9"/>
          <rect id="Rectángulo_401464" data-name="Rectángulo 401464" width="24.547" height="13.934" transform="translate(463.351 252.39)" fill="#e9ebf9"/>
          <rect id="Rectángulo_401465" data-name="Rectángulo 401465" width="72.162" height="36.354" transform="translate(178.961 0)" fill="#e9ebf9"/>
          <rect id="Rectángulo_401466" data-name="Rectángulo 401466" width="34.146" height="27.856" transform="translate(212.106 4.165)" fill="#c2c8ef"/>
          <rect id="Rectángulo_401467" data-name="Rectángulo 401467" width="72.162" height="36.354" transform="translate(178.961 41.642)" fill="#e9ebf9"/>
          <rect id="Rectángulo_401468" data-name="Rectángulo 401468" width="34.146" height="27.993" transform="translate(183.154 45.822)" fill="#c2c8ef"/>
          <rect id="Rectángulo_401469" data-name="Rectángulo 401469" width="25.375" height="2.474" transform="translate(220.877 46.078)" fill="#dadef5"/>
          <rect id="Rectángulo_401470" data-name="Rectángulo 401470" width="25.375" height="2.474" transform="translate(220.877 51.155)" fill="#dadef5"/>
          <rect id="Rectángulo_401471" data-name="Rectángulo 401471" width="25.375" height="2.474" transform="translate(220.877 56.23)" fill="#dadef5"/>
          <rect id="Rectángulo_401472" data-name="Rectángulo 401472" width="25.375" height="2.474" transform="translate(220.877 61.307)" fill="#dadef5"/>
          <rect id="Rectángulo_401473" data-name="Rectángulo 401473" width="25.375" height="2.474" transform="translate(220.877 66.383)" fill="#dadef5"/>
          <rect id="Rectángulo_401474" data-name="Rectángulo 401474" width="25.375" height="2.474" transform="translate(220.877 71.46)" fill="#dadef5"/>
          <rect id="Rectángulo_401475" data-name="Rectángulo 401475" width="25.375" height="2.474" transform="translate(183.154 4.166)" fill="#dadef5"/>
          <rect id="Rectángulo_401476" data-name="Rectángulo 401476" width="25.375" height="2.474" transform="translate(183.154 9.242)" fill="#dadef5"/>
          <rect id="Rectángulo_401477" data-name="Rectángulo 401477" width="25.375" height="2.474" transform="translate(183.154 14.318)" fill="#dadef5"/>
          <rect id="Rectángulo_401478" data-name="Rectángulo 401478" width="25.375" height="2.474" transform="translate(183.154 19.394)" fill="#dadef5"/>
          <rect id="Rectángulo_401479" data-name="Rectángulo 401479" width="25.375" height="2.474" transform="translate(183.154 24.471)" fill="#dadef5"/>
          <rect id="Rectángulo_401480" data-name="Rectángulo 401480" width="25.375" height="2.474" transform="translate(183.154 29.547)" fill="#dadef5"/>
          <rect id="Rectángulo_401481" data-name="Rectángulo 401481" width="11.897" height="190.849" transform="translate(229.397 226.742)" fill="#dadef5"/>
          <rect id="Rectángulo_401482" data-name="Rectángulo 401482" width="11.897" height="190.849" transform="translate(131.94 226.742)" fill="#dadef5"/>
          <path id="Trazado_876436" data-name="Trazado 876436" d="M225.619,159.434h61.219a5.471,5.471,0,0,0,5.471-5.471V82.35a5.471,5.471,0,0,0-5.471-5.47H225.619a5.471,5.471,0,0,0-5.471,5.47v71.613a5.471,5.471,0,0,0,5.471,5.471" transform="translate(-62.913 15.874)" fill="#e9ebf9"/>
          <rect id="Rectángulo_401483" data-name="Rectángulo 401483" width="84.058" height="149.866" transform="translate(157.235 190.585)" fill="#dadef5"/>
          <rect id="Rectángulo_401484" data-name="Rectángulo 401484" width="84.058" height="2.347" transform="translate(157.235 203.405)" fill="#e9ebf9"/>
          <rect id="Rectángulo_401485" data-name="Rectángulo 401485" width="84.058" height="2.347" transform="translate(157.235 218.57)" fill="#e9ebf9"/>
          <rect id="Rectángulo_401486" data-name="Rectángulo 401486" width="84.058" height="2.347" transform="translate(157.235 233.737)" fill="#e9ebf9"/>
          <rect id="Rectángulo_401487" data-name="Rectángulo 401487" width="84.058" height="2.347" transform="translate(157.235 248.902)" fill="#e9ebf9"/>
          <rect id="Rectángulo_401488" data-name="Rectángulo 401488" width="84.058" height="2.347" transform="translate(157.235 264.069)" fill="#dadef5"/>
          <rect id="Rectángulo_401489" data-name="Rectángulo 401489" width="84.058" height="2.347" transform="translate(157.235 299.663)" fill="#e9ebf9"/>
          <rect id="Rectángulo_401490" data-name="Rectángulo 401490" width="39.851" height="6.958" transform="translate(163.767 279.457)" fill="#e9ebf9"/>
          <rect id="Rectángulo_401491" data-name="Rectángulo 401491" width="39.851" height="6.958" transform="translate(163.767 317.628)" fill="#e9ebf9"/>
          <path id="Trazado_876437" data-name="Trazado 876437" d="M231.052,149.684h47.862a4.872,4.872,0,0,0,4.872-4.872V88.653a4.872,4.872,0,0,0-4.872-4.872H231.052a4.872,4.872,0,0,0-4.872,4.872v56.159a4.872,4.872,0,0,0,4.872,4.872" transform="translate(-61.666 17.299)" fill="#c2c8ef"/>
          <path id="Trazado_876438" data-name="Trazado 876438" d="M245.322,140.964s4.171,11.533,16.892,13.154,20.181,1.476,20.181,7.492H210.287V140.329Z" transform="translate(-41.101 28.975)" fill="#e9ebf9"/>
          <rect id="Rectángulo_401492" data-name="Rectángulo 401492" width="116.232" height="212.493" transform="translate(0 0)" fill="#c2c8ef"/>
          <rect id="Rectángulo_401493" data-name="Rectángulo 401493" width="81.794" height="15.229" transform="translate(17.219 8.787)" fill="#dadef5"/>
          <rect id="Rectángulo_401494" data-name="Rectángulo 401494" width="81.794" height="15.229" transform="translate(9.113 173.117)" fill="#dadef5"/>
          <rect id="Rectángulo_401495" data-name="Rectángulo 401495" width="46.101" height="48.176" transform="translate(61.33 33.258)" fill="#dadef5"/>
          <rect id="Rectángulo_401496" data-name="Rectángulo 401496" width="46.101" height="48.176" transform="translate(8.8 33.258)" fill="#dadef5"/>
          <rect id="Rectángulo_401497" data-name="Rectángulo 401497" width="46.101" height="48.176" transform="translate(61.33 90.69)" fill="#dadef5"/>
          <rect id="Rectángulo_401498" data-name="Rectángulo 401498" width="46.101" height="48.176" transform="translate(8.8 90.69)" fill="#dadef5"/>
          <rect id="Rectángulo_401499" data-name="Rectángulo 401499" width="29.62" height="30.952" transform="translate(69.571 41.87)" fill="#e9ebf9"/>
          <rect id="Rectángulo_401500" data-name="Rectángulo 401500" width="29.62" height="30.952" transform="translate(17.04 99.107)" fill="#e9ebf9"/>
          <path id="Trazado_876439" data-name="Trazado 876439" d="M403.619,50.874a16.9,16.9,0,1,0-16.9,16.9,16.9,16.9,0,0,0,16.9-16.9" transform="translate(-354.8 7.015)" fill="#e9ebf9"/>
          <path id="Trazado_876440" data-name="Trazado 876440" d="M360.136,98.131a16.9,16.9,0,1,0-16.9,16.9,16.9,16.9,0,0,0,16.9-16.9" transform="translate(-258.856 16.772)" fill="#e9ebf9"/>
          <line id="Línea_648" data-name="Línea 648" x1="90.213" transform="translate(8.8 146.962)" fill="none" stroke="#dadef5" stroke-miterlimit="10" stroke-width="1"/>
          <line id="Línea_649" data-name="Línea 649" x1="90.213" transform="translate(8.8 151.17)" fill="none" stroke="#dadef5" stroke-miterlimit="10" stroke-width="1"/>
          <line id="Línea_650" data-name="Línea 650" x1="90.213" transform="translate(8.8 155.377)" fill="none" stroke="#dadef5" stroke-miterlimit="10" stroke-width="1"/>
          <line id="Línea_651" data-name="Línea 651" x1="90.213" transform="translate(8.8 159.585)" fill="none" stroke="#dadef5" stroke-miterlimit="10" stroke-width="1"/>
          <line id="Línea_652" data-name="Línea 652" x1="90.213" transform="translate(8.8 163.793)" fill="none" stroke="#dadef5" stroke-miterlimit="10" stroke-width="1"/>
          <line id="Línea_653" data-name="Línea 653" x1="90.213" transform="translate(8.8 168)" fill="none" stroke="#dadef5" stroke-miterlimit="10" stroke-width="1"/>
          <line id="Línea_654" data-name="Línea 654" x1="90.213" transform="translate(8.8 193.434)" fill="none" stroke="#dadef5" stroke-miterlimit="10" stroke-width="1"/>
          <line id="Línea_655" data-name="Línea 655" x1="90.213" transform="translate(8.8 198.525)" fill="none" stroke="#dadef5" stroke-miterlimit="10" stroke-width="1"/>
          <line id="Línea_656" data-name="Línea 656" x1="90.213" transform="translate(8.8 203.616)" fill="none" stroke="#dadef5" stroke-miterlimit="10" stroke-width="1"/>
        </g>
      </g>
      <rect id="Rectángulo_401502" data-name="Rectángulo 401502" width="108.141" height="68.839" transform="translate(287.612 296.09)" fill="#c2c8ef"/>
      <rect id="Rectángulo_401503" data-name="Rectángulo 401503" width="10.371" height="136.912" transform="translate(392.037 282.935)" fill="#c2c8ef"/>
      <rect id="Rectángulo_401504" data-name="Rectángulo 401504" width="10.371" height="136.912" transform="translate(282.426 282.935)" fill="#c2c8ef"/>
      <rect id="Rectángulo_401505" data-name="Rectángulo 401505" width="10.371" height="7.101" transform="translate(392.037 412.746)" fill="#3e4e79"/>
      <rect id="Rectángulo_401506" data-name="Rectángulo 401506" width="10.371" height="7.101" transform="translate(282.426 412.746)" fill="#3e4e79"/>
      <g id="Grupo_1101232" data-name="Grupo 1101232" transform="translate(0 0)">
        <g id="Grupo_1101231" data-name="Grupo 1101231" clip-path="url(#clip-path)">
          <path id="Trazado_876441" data-name="Trazado 876441" d="M71.971,254.189h131.5V234.057a13.466,13.466,0,0,0-13.467-13.467H85.438a13.467,13.467,0,0,0-13.467,13.467Z" transform="translate(204.696 45.547)" fill="#3e4e79"/>
          <line id="Línea_657" data-name="Línea 657" y2="120.112" transform="translate(392.038 299.736)" fill="none" stroke="#3e4e79" stroke-miterlimit="10" stroke-width="1"/>
          <line id="Línea_658" data-name="Línea 658" y2="120.112" transform="translate(292.797 299.736)" fill="none" stroke="#3e4e79" stroke-miterlimit="10" stroke-width="1"/>
          <path id="Trazado_876442" data-name="Trazado 876442" d="M341.478,271.192h68.993V259.854a18.1,18.1,0,0,0-18.1-18.1H359.582a18.1,18.1,0,0,0-18.1,18.1Z" transform="translate(-327.456 49.916)" fill="#3e4e79"/>
          <rect id="Rectángulo_401507" data-name="Rectángulo 401507" width="68.994" height="11.862" transform="translate(14.022 313.603)" fill="#c2c8ef"/>
          <path id="Trazado_876443" data-name="Trazado 876443" d="M370.741,314.326h.361a4.792,4.792,0,0,0,4.792-4.792v-39.92a4.792,4.792,0,0,0-4.792-4.792h-.361a4.792,4.792,0,0,0-4.792,4.792v39.92a4.792,4.792,0,0,0,4.792,4.792" transform="translate(-322.402 54.679)" fill="#c2c8ef"/>
          <path id="Trazado_876444" data-name="Trazado 876444" d="M340.918,300.026a75.747,75.747,0,0,1,12.536,5.814c7.565,4.278,14.876,9.828,19.585,17.254a28.037,28.037,0,0,1,4.5,14.881,1.207,1.207,0,0,1-2.413,0c-.031-9.034-5.306-16.664-11.895-22.407a73.587,73.587,0,0,0-18.823-11.559c-.323-.142-.649-.282-.974-.421-.257-.11.187.08.023.01l-.257-.107-.384-.158c-.455-.186-.91-.368-1.368-.544-.391-.15-.782-.3-1.178-.434-1.46-.5-.832-2.834.642-2.327" transform="translate(-292.079 61.933)" fill="#c2c8ef"/>
          <path id="Trazado_876445" data-name="Trazado 876445" d="M369.07,337.972c.033-9.543,5.411-17.77,12.365-23.905a75.074,75.074,0,0,1,19.547-12.143c1.548-.68,3.113-1.35,4.714-1.9a1.217,1.217,0,0,1,1.527,1.164v32.454a1.207,1.207,0,0,1-2.413,0V301.188l1.526,1.163c-.317.109-.633.228-.947.347q-.557.212-1.111.434-.329.132-.658.268l-.358.148c-.286.118.142-.062-.205.087a88.579,88.579,0,0,0-8.444,4.153c-7.2,4.042-14.24,9.238-18.785,16.256a25.761,25.761,0,0,0-4.346,13.928,1.207,1.207,0,0,1-2.413,0" transform="translate(-357.497 61.936)" fill="#c2c8ef"/>
          <path id="Trazado_876446" data-name="Trazado 876446" d="M346.58,335.372a5.251,5.251,0,1,0-5.237,4.863A5.06,5.06,0,0,0,346.58,335.372Z" transform="translate(-257.085 68.242)" fill="none" stroke="#3e4e79" stroke-miterlimit="10" stroke-width="4"/>
          <path id="Trazado_876447" data-name="Trazado 876447" d="M405.827,335.372a5.251,5.251,0,1,0-5.237,4.863A5.06,5.06,0,0,0,405.827,335.372Z" transform="translate(-387.812 68.242)" fill="none" stroke="#3e4e79" stroke-miterlimit="10" stroke-width="4"/>
          <path id="Trazado_876448" data-name="Trazado 876448" d="M376.2,332.3a5.251,5.251,0,1,0-5.237,4.863A5.06,5.06,0,0,0,376.2,332.3Z" transform="translate(-322.448 67.608)" fill="none" stroke="#3e4e79" stroke-miterlimit="10" stroke-width="4"/>
          <path id="Trazado_876449" data-name="Trazado 876449" d="M140.417,25.894C150.778,23.636,163.41,23.117,172,33.37s6.289,21.552,6.079,27.411,6.487,21.133,1.675,26.781c0,0-29.712-4.811-53.984,2.3,0,0-6.382-8.11-3.138-24.481,4.394-22.18-1.675-35.247,17.785-39.489" transform="translate(166.659 5.069)" fill="#3e4e79"/>
          <path id="Trazado_876450" data-name="Trazado 876450" d="M165.228,60.449c-.373,2.686,1.38,5.287.791,7.966a2.025,2.025,0,0,1-2.462,1.693c-1.384-.438-1.1-2.286-1.005-3.4a18.893,18.893,0,0,1,1.032-4.785.606.606,0,0,1,1.185.159q.054,3.27.107,6.542c.013.783-1.153.767-1.206,0A17.613,17.613,0,0,1,163.806,65c.088-.636,1-.508,1.164,0a8.068,8.068,0,0,1,.376,3.148c-.062.769-1.268.775-1.206,0a7.133,7.133,0,0,0-.334-2.828h1.164a15.955,15.955,0,0,0-.094,3.3h-1.206q-.054-3.27-.107-6.542l1.185.16a17.669,17.669,0,0,0-1,4.548c-.029.361-.046.721-.053,1.082a2.119,2.119,0,0,0,.057.939c.258.467.854-.041.991-.346a3.813,3.813,0,0,0,.121-1.894,18.514,18.514,0,0,0-.4-2.094,11.985,11.985,0,0,1-.4-4.347.608.608,0,0,1,.742-.421.618.618,0,0,1,.421.742" transform="translate(132.851 12.324)" fill="#c2c8ef"/>
          <path id="Trazado_876451" data-name="Trazado 876451" d="M119.765,44.881c2.131,4.884,4.265,9.774,6.066,14.791,1.737,4.84,3.43,9.976,3.875,15.127a12.651,12.651,0,0,1-1.4,7.562.6.6,0,0,1-1.042-.609c2.414-4.125,1.044-9.369-.076-13.686a112.476,112.476,0,0,0-4.967-14.4c-1.126-2.742-2.312-5.461-3.5-8.177-.308-.7.731-1.32,1.041-.609" transform="translate(222.055 9.202)" fill="#3e4e79"/>
          <path id="Trazado_876452" data-name="Trazado 876452" d="M175.619,47.665c-2.92,9.344-6.992,18.673-6.744,28.65a28.436,28.436,0,0,0,1.349,8.091c.24.741-.923,1.058-1.164.321-3.126-9.624-.45-19.748,2.627-29.009.928-2.791,1.893-5.568,2.771-8.374.229-.738,1.4-.423,1.162.321" transform="translate(117.069 9.689)" fill="#3e4e79"/>
          <path id="Trazado_876453" data-name="Trazado 876453" d="M234.552,271.977l-3.063,35.534a15.357,15.357,0,0,1-12.253,6.332c-8.374.2-25.733-4.7-25.733-4.7s19.81-6.944,22.261-12.867,2.45-25.119,2.45-25.119Z" transform="translate(26.991 55.988)" fill="#f9c49d"/>
          <path id="Trazado_876454" data-name="Trazado 876454" d="M245.983,301.431s-15.725,5.719-32.471-.817c0,0-22.465,5.923-18.381,16.746L246.8,314.3a17.293,17.293,0,0,0-.817-12.866" transform="translate(12.496 62.07)" fill="#ebb2df"/>
          <path id="Trazado_876455" data-name="Trazado 876455" d="M226.935,273.839l-3.063,35.534a15.357,15.357,0,0,1-12.253,6.332c-8.374.2-25.733-4.7-25.733-4.7s19.81-6.944,22.261-12.867,2.45-25.119,2.45-25.119Z" transform="translate(43.798 56.373)" fill="#f9c49d"/>
          <path id="Trazado_876456" data-name="Trazado 876456" d="M238.306,303.293s-15.725,5.719-32.471-.817c0,0-22.465,5.923-18.381,16.746h51.863s2.256-9.6-1.011-15.929" transform="translate(29.364 62.454)" fill="#ebb2df"/>
          <path id="Trazado_876457" data-name="Trazado 876457" d="M223.642,196.42,211,184.979s-18.065.6-31.712,8.431-13.248,39.942-9.435,68.644c0,0,4.281,26.577,4.416,26.7,3.834,3.315,9.233.6,9.233.6l8.229-74.265Z" transform="translate(69.207 38.194)" fill="#7fa3ce"/>
          <path id="Trazado_876458" data-name="Trazado 876458" d="M175.268,83.724c-.382,0-23.71,31.358-23.71,31.358l-9.178-30.338-12.109,7.521-14.733,60.3s-10.648,29.115.018,52.7c5.734,12.678,14.378,15.045,14.378,15.045l68.763-8.976L189.89,90.405Z" transform="translate(162.612 17.287)" fill="#ecd9c5"/>
          <path id="Trazado_876459" data-name="Trazado 876459" d="M205.629,188.141s-46.967.4-78.479,13.047c0,0-24.286,8.028-25.892,20.874s2.208,69.447,2.208,69.447,9.369,10.761,21.075,3.814c.864-.513,8.229-55.4,8.229-55.4s69.647-4.014,82.895-10.638,8.631-34.925,8.631-34.925Z" transform="translate(148.236 38.847)" fill="#7fa3ce"/>
          <path id="Trazado_876460" data-name="Trazado 876460" d="M171.292,38.375c2.373,4.763,2.62,10.3,2.347,15.611a45.967,45.967,0,0,1-3.124,15.619A23.4,23.4,0,0,1,160.2,81.433a26.877,26.877,0,0,1-10.9,2.636c-3.133.18-6.424.013-9.16-1.527-4.615-2.6-6.383-8.249-7.68-13.383-1.889-7.481-3.63-15.216-2.535-22.854,1.138-7.931,6.355-17.149,14.755-18.762,10.139-1.948,21.695.966,26.611,10.833" transform="translate(164.931 5.569)" fill="#f9c49d"/>
          <path id="Trazado_876461" data-name="Trazado 876461" d="M147.328,64.275S144.49,82.72,153,86.976s18.445,8.513,18.445,8.513L130.3,123.865,116.114,92.651s11.351-4.256,8.513-18.445Z" transform="translate(183.464 13.271)" fill="#f9c49d"/>
          <path id="Trazado_876462" data-name="Trazado 876462" d="M128.979,33.8c1.7,7.67,7.42,13.889,13.873,18.371,5.076,3.524,11.192,6.8,12.9,12.742.235.82.515,1.821,1.342,2.034a37.209,37.209,0,0,0,1.97-24.764,21.027,21.027,0,0,0-3.069-6.891c-4.317-5.976-12.271-7.813-19.538-9.059a18.887,18.887,0,0,0-5.467-.387c-5.646.694-2.847,4.185-2.01,7.956" transform="translate(180.798 5.321)" fill="#3e4e79"/>
          <path id="Trazado_876463" data-name="Trazado 876463" d="M167.448,41.494c-2.25,1.942-4.848,3.475-6.977,5.55a18.775,18.775,0,0,0-5.109,9.1c-.227.974-.157,2.388-1.378,1.439-1.52-1.181-1.42-5.5-1.338-7.177a29.639,29.639,0,0,1,1.512-7.551c1.874-5.835,5.815-14.218,12.622-15.538,3.184-.618,5.278.893,5.385,4.148a12.478,12.478,0,0,1-4.553,9.892l-.163.142" transform="translate(138.713 5.611)" fill="#3e4e79"/>
          <path id="Trazado_876464" data-name="Trazado 876464" d="M122.265,54.794c-1.827,5.581-.29,11.094,3.435,12.312s8.222-2.318,10.05-7.9.288-11.094-3.435-12.312-8.223,2.318-10.05,7.9" transform="translate(211.9 9.633)" fill="#f9c49d"/>
          <path id="Trazado_876465" data-name="Trazado 876465" d="M95.711,83.724s-6.55,37.507,2.088,75.613l-7.113.17s.677,20.323.677,30.655l8.977,2.71s-2.033,10.67-5.421,16.429,2.2,21.848,1.864,27.436,34.8,9.156,39.461-.169C136.753,235.553,137.6,222,137.6,222s4.912-4.741,2.88-30.485c0,0,.339-8.468.676-8.976s3.728-2.2,1.525-29.132-8.806-50.641-18.29-57.076-28.679-12.61-28.679-12.61" transform="translate(242.17 17.287)" fill="#8caba6"/>
          <path id="Trazado_876466" data-name="Trazado 876466" d="M205.551,84.569s-2.793,11.421-7.367,19.212-12.533,21-4.912,36.583l-4.912,9.145-5.419-1.016s-12.7,13.719-9.484,23.542l4.065,3.726a110.654,110.654,0,0,0,1.863,30.655L165.5,208.28l-.678-28.116s-9.315-8.3-6.943-24.558,13.38-24.9,18.63-42.849,29.045-28.188,29.045-28.188" transform="translate(99.443 17.461)" fill="#8caba6"/>
          <path id="Trazado_876467" data-name="Trazado 876467" d="M194.457,148.392l-13.888-4.4-17.276,2.71.169,2.88s-6.774-7.452-14.057-11.009l-5.419-1.016s-14.058,10.5-9.315,24.558l9.992,4.234,11.009,2.372,21,1.355,18.63-1.355Z" transform="translate(138.397 28.401)" fill="#f9c49d"/>
          <path id="Trazado_876468" data-name="Trazado 876468" d="M150.181,32.015c.822,5.339,1.742,10.821,4.628,15.489.409.662-.635,1.269-1.042.609-2.941-4.761-3.911-10.332-4.749-15.777-.117-.76,1.045-1.087,1.163-.321" transform="translate(160.321 6.52)" fill="#3e4e79"/>
          <path id="Trazado_876469" data-name="Trazado 876469" d="M152.645,33.313c.218,5.123.464,10.295,2.09,15.2.244.738-.921,1.056-1.164.321-1.657-5-1.91-10.3-2.132-15.521-.033-.776,1.174-.775,1.206,0" transform="translate(157.527 6.758)" fill="#3e4e79"/>
          <path id="Trazado_876470" data-name="Trazado 876470" d="M155.951,36.161a42.131,42.131,0,0,0-.992,11.588c.04.776-1.167.773-1.206,0a43.383,43.383,0,0,1,1.035-11.909c.173-.756,1.336-.437,1.163.321" transform="translate(153.603 7.311)" fill="#3e4e79"/>
          <path id="Trazado_876471" data-name="Trazado 876471" d="M159.936,35.088A42.54,42.54,0,0,0,154.7,47.4a.6.6,0,0,1-1.164-.321,43.634,43.634,0,0,1,5.36-12.6c.411-.656,1.455-.051,1.041.609" transform="translate(149.758 7.061)" fill="#3e4e79"/>
          <path id="Trazado_876472" data-name="Trazado 876472" d="M133.869,53.011a9.52,9.52,0,0,1,.848,6.832.6.6,0,0,1-1.163-.321,8.239,8.239,0,0,0-.726-5.9c-.369-.684.672-1.293,1.041-.609" transform="translate(199.835 10.884)" fill="#3e4e79"/>
          <path id="Trazado_876473" data-name="Trazado 876473" d="M136.69,52.1a9.305,9.305,0,0,1-2.1,8.064c-.513.584-1.363-.271-.853-.853a8.027,8.027,0,0,0,1.794-6.89c-.163-.758,1-1.081,1.163-.321" transform="translate(196.95 10.669)" fill="#3e4e79"/>
          <path id="Trazado_876474" data-name="Trazado 876474" d="M146.182,51.728c0,1.684.785,3.049,1.755,3.049s1.754-1.365,1.754-3.049-.785-3.049-1.754-3.049-1.755,1.365-1.755,3.049" transform="translate(168.943 10.051)" fill="#341f08"/>
          <path id="Trazado_876475" data-name="Trazado 876475" d="M157.668,51.641c0,1.684.785,3.049,1.755,3.049s1.754-1.365,1.754-3.049-.785-3.049-1.754-3.049-1.755,1.365-1.755,3.049" transform="translate(143.6 10.033)" fill="#341f08"/>
          <path id="Trazado_876476" data-name="Trazado 876476" d="M155.388,47.51a4.763,4.763,0,0,1,1.532,2.752,6.3,6.3,0,0,1-1.184,3.313,10.022,10.022,0,0,0-1.453,3.3c-.159,1.167,1.091,1.456,1.985,1.649.759.164.438,1.328-.321,1.164a3.842,3.842,0,0,1-2.564-1.39c-.638-1.007-.2-2.254.233-3.251.5-1.17,1.226-2.228,1.763-3.384a2.287,2.287,0,0,0,.223-1.831,4.956,4.956,0,0,0-1.068-1.469c-.526-.571.326-1.426.853-.853" transform="translate(153.404 9.771)" fill="#341f08"/>
          <path id="Trazado_876477" data-name="Trazado 876477" d="M160.749,59.178a7.566,7.566,0,0,1-6.251,4.075,10.392,10.392,0,0,1-7.784-3.11c-.563-.537.291-1.389.853-.854a9.257,9.257,0,0,0,6.739,2.771,6.368,6.368,0,0,0,5.4-3.492c.334-.7,1.374-.088,1.041.609" transform="translate(157.402 12.029)" fill="#341f08"/>
          <path id="Trazado_876478" data-name="Trazado 876478" d="M159.963,73.654a21.989,21.989,0,0,1-15.979.8c-.732-.246-.417-1.413.321-1.163a20.743,20.743,0,0,0,15.048-.682c.7-.315,1.317.724.609,1.041" transform="translate(161.511 14.981)" fill="#341f08"/>
          <path id="Trazado_876479" data-name="Trazado 876479" d="M131.164,49.909c-.871-.215-1.642.56-2.163,1.156a14.234,14.234,0,0,0-1.652,2.36,15.224,15.224,0,0,0-1.8,5.358.608.608,0,0,1-.742.422.618.618,0,0,1-.421-.742,16.064,16.064,0,0,1,2.242-6.183c.989-1.6,2.654-4.078,4.86-3.534a.6.6,0,0,1-.321,1.163" transform="translate(213.032 10.049)" fill="#341f08"/>
          <path id="Trazado_876480" data-name="Trazado 876480" d="M127.86,53.333a4.92,4.92,0,0,1,1.21,6.923.622.622,0,0,1-.826.216.609.609,0,0,1-.216-.825,3.723,3.723,0,0,0-.777-5.272.619.619,0,0,1-.216-.825.607.607,0,0,1,.825-.216" transform="translate(211.848 10.994)" fill="#341f08"/>
          <path id="Trazado_876481" data-name="Trazado 876481" d="M131.656,61.939c-.373,2.686,1.38,5.287.791,7.966a2.025,2.025,0,0,1-2.462,1.693c-1.384-.438-1.1-2.286-1-3.4a18.892,18.892,0,0,1,1.032-4.785.606.606,0,0,1,1.185.159q.054,3.27.107,6.542c.013.783-1.153.767-1.206,0a17.618,17.618,0,0,1,.136-3.618c.088-.636,1-.508,1.164,0a8.068,8.068,0,0,1,.376,3.148c-.062.769-1.268.775-1.206,0a7.133,7.133,0,0,0-.334-2.828H131.4a15.955,15.955,0,0,0-.094,3.3H130.1q-.054-3.27-.107-6.542l1.185.16a17.669,17.669,0,0,0-1,4.548c-.029.361-.046.721-.053,1.082a2.119,2.119,0,0,0,.057.939c.258.467.854-.041.991-.346a3.813,3.813,0,0,0,.121-1.894,18.513,18.513,0,0,0-.4-2.094,11.985,11.985,0,0,1-.4-4.347.608.608,0,0,1,.742-.421.618.618,0,0,1,.421.742" transform="translate(206.927 12.632)" fill="#c2c8ef"/>
          <path id="Trazado_876482" data-name="Trazado 876482" d="M162.7,82.8c-2.668,6.431-6.215,12.727-11.5,17.372a29.088,29.088,0,0,1-4.1,3.027,5.549,5.549,0,0,1-2.193.9,3.366,3.366,0,0,1-2.481-.9,24.485,24.485,0,0,1-6.494-7.818A34.556,34.556,0,0,1,132.3,84.225c-.116-.76,1.046-1.087,1.163-.321.968,6.309,3.459,12.632,8.191,17.07a15.705,15.705,0,0,0,1.789,1.5c1,.69,1.857.376,2.829-.193a26.275,26.275,0,0,0,3.886-2.805,35.432,35.432,0,0,0,6.234-7.185,57,57,0,0,0,5.137-9.81c.293-.707,1.461-.4,1.163.321" transform="translate(172.643 16.948)" fill="#c2c8ef"/>
          <path id="Trazado_876483" data-name="Trazado 876483" d="M145.136,97.618a2.523,2.523,0,0,1,.916.72,1.3,1.3,0,0,1,.187,1.109,1.07,1.07,0,0,1-1.057.776,2.1,2.1,0,0,1-1.192-.588,2.242,2.242,0,0,1-.714-.963,1.477,1.477,0,0,1,.094-1.205,1.261,1.261,0,0,1,1.074-.619,1.729,1.729,0,0,1,.991.319,1.964,1.964,0,0,1,.685.761,1.856,1.856,0,0,1,.171,1.092,1.088,1.088,0,0,1-.654.825,1.141,1.141,0,0,1-.736.052,1.643,1.643,0,0,1-.619-.345,2.365,2.365,0,0,1-.333-.335,1.493,1.493,0,0,1-.36-.615.969.969,0,0,1,.183-.825,1.039,1.039,0,0,1,.592-.385,1.256,1.256,0,0,1,1.295.573,1.091,1.091,0,0,1-.045,1.387,1.073,1.073,0,0,1-1.083.234,1.056,1.056,0,0,1-.548-.421,1.014,1.014,0,0,1-.151-.595,1.22,1.22,0,0,1,.73-1.042,1.286,1.286,0,0,1,1.233.146,1.59,1.59,0,0,1,.46.49.6.6,0,1,1-1.041.609.984.984,0,0,0-.063-.094l.094.122a1,1,0,0,0-.158-.162l.122.094a1.031,1.031,0,0,0-.192-.117l.144.062a.867.867,0,0,0-.212-.059l.16.022a.689.689,0,0,0-.165,0l.16-.022a.63.63,0,0,0-.148.041l.144-.062a.746.746,0,0,0-.125.077l.122-.1a.773.773,0,0,0-.1.1l.094-.122a.763.763,0,0,0-.088.148l.062-.145a.625.625,0,0,0-.039.139c.006-.053.013-.106.021-.159a.614.614,0,0,0,0,.141c-.006-.053-.013-.107-.021-.16a.544.544,0,0,0,.034.115l-.062-.144a.652.652,0,0,0,.043.074l-.094-.123a.433.433,0,0,0,.071.07l-.122-.094a.47.47,0,0,0,.086.051l-.144-.06a.586.586,0,0,0,.136.037l-.16-.022a.7.7,0,0,0,.142,0l-.16.022a.619.619,0,0,0,.115-.031l-.144.062a.579.579,0,0,0,.084-.047l-.123.094a.4.4,0,0,0,.069-.066l-.094.122a.53.53,0,0,0,.039-.066c-.021.047-.041.1-.06.144a.5.5,0,0,0,.027-.1l-.022.16a.678.678,0,0,0,0-.1c.007.054.013.107.021.16a.719.719,0,0,0-.054-.193l.062.144a1.091,1.091,0,0,0-.109-.181l.094.122a.942.942,0,0,0-.141-.145l.122.094a.773.773,0,0,0-.145-.088l.144.06a.7.7,0,0,0-.163-.046l.16.022a.533.533,0,0,0-.107,0l.16-.022a.581.581,0,0,0-.129.034l.144-.06a.6.6,0,0,0-.115.066l.122-.094a.7.7,0,0,0-.074.074l.094-.122a.5.5,0,0,0-.054.087c.021-.047.041-.1.06-.144a.462.462,0,0,0-.027.1c.007-.054.014-.107.021-.16a.479.479,0,0,0,0,.083l-.022-.16a.507.507,0,0,0,.033.118l-.062-.144a1.034,1.034,0,0,0,.117.187l-.094-.122a2.511,2.511,0,0,0,.419.428l-.123-.094a1.232,1.232,0,0,0,.234.139l-.145-.062a.793.793,0,0,0,.164.047l-.16-.022a.679.679,0,0,0,.14,0l-.16.022a.627.627,0,0,0,.134-.036l-.144.06a.5.5,0,0,0,.11-.064l-.122.1a.63.63,0,0,0,.084-.086l-.094.122a.6.6,0,0,0,.06-.1l-.06.144a.771.771,0,0,0,.049-.181l-.022.16a1.071,1.071,0,0,0,0-.249l.022.16a1.371,1.371,0,0,0-.1-.345l.062.145a1.332,1.332,0,0,0-.153-.267c.031.041.063.082.1.122a1.558,1.558,0,0,0-.264-.263l.122.094a1.592,1.592,0,0,0-.329-.2l.145.062a1.2,1.2,0,0,0-.3-.084l.16.022a.893.893,0,0,0-.2,0l.16-.022a.769.769,0,0,0-.186.049l.145-.06a.753.753,0,0,0-.128.075l.123-.094a.712.712,0,0,0-.115.111l.094-.122a.79.79,0,0,0-.094.164l.062-.144a.9.9,0,0,0-.048.186l.022-.16a1.028,1.028,0,0,0,0,.251l-.022-.16a1.224,1.224,0,0,0,.065.245c-.019-.048-.04-.1-.06-.144a1.375,1.375,0,0,0,.174.3l-.094-.123a2.762,2.762,0,0,0,.49.467l-.122-.1a1.948,1.948,0,0,0,.411.258l-.144-.06a.824.824,0,0,0,.209.058l-.16-.022a.658.658,0,0,0,.119,0l-.16.022a.637.637,0,0,0,.117-.028l-.144.06a.522.522,0,0,0,.107-.06l-.122.094a.49.49,0,0,0,.078-.08l-.094.122a.521.521,0,0,0,.066-.118l-.06.144a.747.747,0,0,0,.036-.135l-.022.16a.785.785,0,0,0,0-.192l.022.16a.783.783,0,0,0-.048-.188l.062.145a.893.893,0,0,0-.111-.185l.094.122a1.309,1.309,0,0,0-.216-.209l.122.094a3.349,3.349,0,0,0-.474-.284.608.608,0,0,1-.216-.825.617.617,0,0,1,.825-.216" transform="translate(175.911 19.997)" fill="#c2c8ef"/>
          <path id="Trazado_876484" data-name="Trazado 876484" d="M148.277,98.306a2.241,2.241,0,0,1,.753,2,1.615,1.615,0,0,1-1.264,1.268,1.365,1.365,0,0,1-1-.162,1.435,1.435,0,0,1-.615-.867,3.047,3.047,0,0,1,.275-1.9A1.077,1.077,0,0,1,147.4,98a1.2,1.2,0,0,1,.952.615,3.064,3.064,0,0,1,.346.911,2.688,2.688,0,0,1,.059,1.254,1.466,1.466,0,0,1-1.747,1.14,1.866,1.866,0,0,1-1.088-1.777,3.72,3.72,0,0,1,.111-1.29,1.153,1.153,0,0,1,.328-.6.861.861,0,0,1,.86-.169,1.594,1.594,0,0,1,.889,1.07,2.713,2.713,0,0,1,.132,1.222.659.659,0,0,1-.176.426.616.616,0,0,1-.427.177c-.293-.013-.645-.268-.6-.6a2.419,2.419,0,0,0,.019-.374c0-.056-.008-.109-.011-.164-.006-.088.021.107,0,.022-.008-.039-.014-.077-.022-.116a2.983,2.983,0,0,0-.1-.335c-.028-.082.047.09.006.014-.014-.028-.027-.057-.041-.084l-.033-.062a.513.513,0,0,0-.031-.051c-.025-.037-.014-.024.033.039,0-.013-.133-.134-.06-.065l.029.023c-.046-.025-.045-.027,0,0,.13.014-.1.013.048.012a.375.375,0,0,0,.353-.163c-.056.087.012-.021.011-.037a.6.6,0,0,1-.031.1,1.109,1.109,0,0,0-.08.37c-.013-.1.006-.055,0-.01s-.006.066-.008.1c-.006.076-.008.152-.01.227a1.471,1.471,0,0,0,.02.379c-.034-.116-.007-.042,0-.01l.018.1c.012.06.025.119.041.179.013.043.028.086.041.128.034.1-.007-.036-.017-.037l.033.069a.707.707,0,0,1,.077.128s-.081-.092-.037-.049c.022.021.042.043.063.066.069.076-.024-.033-.039-.028l.063.037c.074.048-.021-.045-.043-.017,0,0,.078.022.074.018s-.127,0-.069-.011c.031,0,.094-.021.011.006s-.017,0,.008,0c.115-.03-.012-.01-.022.017a.964.964,0,0,1,.131-.075c-.014,0-.106.1-.031.023l.042-.04c.018-.018.034-.039.053-.057.054-.057-.062.1-.023.028a1.458,1.458,0,0,1,.086-.153c-.013.017-.041.13-.019.035,0-.021.011-.04.016-.06s.028-.124.012-.041,0-.021,0-.042a1.616,1.616,0,0,0,0-.171c0-.034,0-.066-.007-.1-.012-.156.018.076,0-.012a5.807,5.807,0,0,0-.194-.73c-.051-.139.052.1-.014-.031a1.229,1.229,0,0,0-.065-.116l-.041-.063c0,.012.1.109.028.037-.017-.016-.034-.034-.049-.051-.068-.076.087.063.031.024-.1-.071.106.027.013,0,.153.036.116.011.068.013.163-.008.1-.021.06,0,.013,0,.127-.07.048-.017.007,0,.113-.094.041-.028-.013.012-.054.063,0-.007s0,.01-.012.03l-.034.068c.028-.007.045-.122.017-.04-.014.048-.031.1-.047.142-.029.1-.056.2-.08.294q-.018.074-.033.152c0,.028-.027.171-.013.072s0,.071-.006.092a1.575,1.575,0,0,0,0,.169c0,.029.014.169,0,.065s.014.052.022.075.016.045.022.066c.012.057-.024-.063-.028-.065a.541.541,0,0,1,.033.06.387.387,0,0,0,.028.043c.025.037.012.021-.041-.053,0,0,.15.113.041.051-.089-.051.028.013.048.027.077.049-.043-.024-.057-.023a.325.325,0,0,1,.059.018.348.348,0,0,1,.062.013c-.034-.016-.153-.008-.051-.012h.064c.1,0-.021-.007-.049.008a.866.866,0,0,1,.141-.037c.014,0,.031-.014.046-.017-.124.022-.088.04-.024,0a.708.708,0,0,1,.113-.071c-.084.025-.089.076-.043.031.024-.023.049-.045.072-.069a.336.336,0,0,1,.034-.037c.052-.043-.075.116-.024.029.017-.028.088-.171.049-.074s-.007.019,0,0,.016-.065.025-.1c.031-.1-.018.046,0,.039s.007-.093.007-.1c0-.027,0-.054,0-.082s0-.027,0-.04q-.005-.071.011.058c.016-.016-.034-.16-.04-.182s-.012-.04-.019-.059-.013-.04-.021-.059c-.016-.042-.01-.027.021.047a.632.632,0,0,1-.076-.151c-.033-.055-.07-.107-.1-.162-.043-.07.071.082.017.021-.023-.027-.045-.054-.069-.081-.047-.053-.1-.1-.15-.15a.607.607,0,0,1,0-.853.616.616,0,0,1,.853,0" transform="translate(169.914 20.235)" fill="#c2c8ef"/>
          <path id="Trazado_876485" data-name="Trazado 876485" d="M150.308,96.839a2.445,2.445,0,0,1,1.115,2.613,1.493,1.493,0,0,1-.387.763.8.8,0,0,1-1.249-.147,2.012,2.012,0,0,1-.216-.849,2.56,2.56,0,0,1,.072-.772,2.61,2.61,0,0,1,1-1.477.6.6,0,0,1,.731.094,1.969,1.969,0,0,1,0,2.522,1.449,1.449,0,0,1-1.4.574,1.181,1.181,0,0,1-.651-1.518,2.593,2.593,0,0,1,1.032-1.473.6.6,0,0,1,.609,0,.612.612,0,0,1,.3.521c.007.187.013.374.019.561a.609.609,0,0,1-.6.6.616.616,0,0,1-.6-.6c-.006-.187-.012-.374-.019-.561l.908.521c-.09.065.083-.074,0,0-.035.03-.069.059-.1.09l-.081.083-.037.043c-.007.008-.089.107-.027.03s-.018.029-.03.048c-.025.039-.048.077-.071.116s-.036.069-.053.1c-.008.017-.016.035-.025.052-.034.07.04-.111.017-.037s-.054.158-.074.241c-.006.027-.033.185-.016.064s0,.016,0,.045.007.065,0,.1c.008-.152-.022-.116,0-.068a.29.29,0,0,1,.012.043c0,.051-.027-.069-.033-.074.01.008.013.028.021.037.04.051-.06-.075-.051-.065.071.075-.1-.065-.046-.034s-.084-.035-.076-.033-.127-.014-.057-.01-.059,0-.054.006a.559.559,0,0,0,.082-.024c.094-.025-.121.062-.036.016.03-.016.06-.031.089-.048s.054-.041.083-.055c.006,0-.106.092-.065.049.01-.01.022-.018.033-.028.049-.046.089-.1.138-.147,0,0-.08.116-.051.065a.315.315,0,0,1,.024-.036c.019-.028.036-.057.053-.087s.027-.051.04-.077c.059-.111-.045.133,0,.01a1.675,1.675,0,0,0,.051-.168c0-.016.028-.083.021-.1s-.016.151-.012.088c0-.019,0-.04.006-.059,0-.072,0-.145,0-.217,0-.023-.01-.081,0,.023s0,.021,0-.006-.014-.065-.023-.1-.025-.072-.036-.109c-.017-.057.037.084.033.078a.408.408,0,0,1-.025-.052c-.018-.034-.04-.066-.059-.1s-.047-.063.013.013,0,.007-.008-.007l.731.1c.008-.006.113-.094.039-.029l-.04.034c-.03.028-.06.055-.089.086s-.057.059-.083.09c-.087.1.063-.093-.014.016a2.088,2.088,0,0,0-.129.21c-.019.036-.037.072-.055.11-.008.017-.034.077,0-.007s0,0-.008.027a2.043,2.043,0,0,0-.07.236c-.008.035-.014.069-.021.1-.021.1,0-.046,0-.056,0,.023,0,.047-.007.07a1.865,1.865,0,0,0-.006.246c0,.041.006.082.008.123,0,.078-.023-.134-.007-.057,0,.023.007.047.012.07.008.04.017.08.028.119s.056.151.014.063l-.018-.039c.036.059.017.046-.056-.041l-.072-.071-.346-.046a.35.35,0,0,0-.156.09c.062-.06-.023.027-.023.043,0-.024.046-.081.059-.1.029-.055-.029.071-.029.068a.322.322,0,0,1,.023-.062,2.015,2.015,0,0,0,.06-.238c.028-.128-.007.119,0,.014,0-.037.006-.076.006-.113,0-.081-.017-.166-.011-.246,0-.006.025.142.011.08,0-.022-.007-.043-.012-.065-.007-.037-.014-.075-.024-.112-.019-.075-.045-.147-.071-.22-.033-.09.018.047.023.053a.45.45,0,0,1-.029-.059c-.022-.045-.045-.088-.07-.13s-.047-.074-.071-.11c-.074-.11.083.093-.006-.007a2.222,2.222,0,0,0-.183-.186c-.1-.087.1.063-.007-.006-.042-.027-.082-.054-.125-.08a.6.6,0,0,1,.609-1.041" transform="translate(163.091 19.978)" fill="#c2c8ef"/>
          <path id="Trazado_876486" data-name="Trazado 876486" d="M137.782,23.418a10.119,10.119,0,0,0-6.279,9.733c.037.776-1.169.773-1.206,0a11.341,11.341,0,0,1,7.164-10.9c.725-.28,1.039.886.321,1.163" transform="translate(199.626 4.586)" fill="#3e4e79"/>
          <path id="Trazado_876487" data-name="Trazado 876487" d="M136.39,22.318a15.179,15.179,0,0,0-.1,9.628c.238.741-.927,1.058-1.164.32a16.291,16.291,0,0,1,.1-10.268c.251-.73,1.418-.416,1.163.321" transform="translate(196.489 4.456)" fill="#3e4e79"/>
          <path id="Trazado_876488" data-name="Trazado 876488" d="M149.479,46.137a5,5,0,0,0-5.749-.392c-.662.41-1.269-.633-.609-1.041a6.233,6.233,0,0,1,7.211.58.608.608,0,0,1,0,.853.616.616,0,0,1-.853,0" transform="translate(172.165 9.047)" fill="#341f08"/>
          <path id="Trazado_876489" data-name="Trazado 876489" d="M162.763,45.234a3.818,3.818,0,0,0-4.519,1.171.621.621,0,0,1-.825.216.609.609,0,0,1-.217-.825,5.043,5.043,0,0,1,6.171-1.6.608.608,0,0,1,.216.825.617.617,0,0,1-.825.216" transform="translate(141.779 9.029)" fill="#341f08"/>
          <line id="Línea_659" data-name="Línea 659" x1="99.189" transform="translate(292.848 353.183)" fill="none" stroke="#3e4e79" stroke-miterlimit="10" stroke-width="1"/>
          <path id="Trazado_876490" data-name="Trazado 876490" d="M131.305,83.983a18.365,18.365,0,0,0-.526,2.186,66.722,66.722,0,0,0-.981,7.138c-.408,4.41-.557,8.841-.578,13.268-.031,6.756.252,13.513.715,20.252.649,9.433,1.657,18.84,2.886,28.215q.279,2.119.572,4.236c.1.759-1.057,1.087-1.163.32-1.357-9.8-2.5-19.638-3.262-29.5-.55-7.1-.914-14.212-.953-21.33-.027-4.738.086-9.482.468-14.205a79.789,79.789,0,0,1,1.009-8.062,14.439,14.439,0,0,1,.639-2.8.239.239,0,0,0,.011-.031c.243-.734,1.408-.419,1.163.321" transform="translate(207.157 17.188)" fill="#341f08"/>
          <path id="Trazado_876491" data-name="Trazado 876491" d="M139.546,148.626a253.42,253.42,0,0,0-29.468-.952.6.6,0,0,1,0-1.206,253.427,253.427,0,0,1,29.468.952c.767.07.775,1.276,0,1.206" transform="translate(222.772 30.224)" fill="#341f08"/>
          <path id="Trazado_876492" data-name="Trazado 876492" d="M118.784,146.076a10.949,10.949,0,0,0-7.486,1.45.6.6,0,0,1-.609-1.041,12.236,12.236,0,0,1,8.416-1.572c.764.13.439,1.293-.321,1.163" transform="translate(242.262 29.884)" fill="#341f08"/>
          <path id="Trazado_876493" data-name="Trazado 876493" d="M119.139,124.348a241.091,241.091,0,0,1,2.67,26.493c.035.777-1.171.775-1.206,0a238.233,238.233,0,0,0-2.626-26.172c-.119-.76,1.042-1.087,1.163-.321" transform="translate(230.866 25.585)" fill="#341f08"/>
          <path id="Trazado_876494" data-name="Trazado 876494" d="M121.006,125.554a23.28,23.28,0,0,0,1.9,6.551.621.621,0,0,1-.217.825.608.608,0,0,1-.825-.216,24.34,24.34,0,0,1-2.024-6.84.624.624,0,0,1,.421-.742.608.608,0,0,1,.742.421" transform="translate(227.442 25.833)" fill="#341f08"/>
          <path id="Trazado_876495" data-name="Trazado 876495" d="M131.453,86.821c-2.244,6.648-3.15,13.8-4.012,20.734-.88,7.09-1.553,14.207-2.29,21.314q-.639,6.144-1.275,12.288c-.08.764-1.286.772-1.206,0l2.269-21.878c.736-7.089,1.473-14.187,2.669-21.217A75.523,75.523,0,0,1,130.29,86.5c.246-.731,1.413-.417,1.163.321" transform="translate(215.518 17.774)" fill="#341f08"/>
          <path id="Trazado_876496" data-name="Trazado 876496" d="M131.45,89.568l.04.011a.592.592,0,0,1,.422.421.748.748,0,0,1-.179.68.608.608,0,0,1-.588.156c-.332-.06-.544-.372-.775-.594a9.182,9.182,0,0,0-.75-.654,9.71,9.71,0,0,0-1.665-1.025,9.333,9.333,0,0,0-3.721-.931c-.775-.03-.778-1.237,0-1.206a10.818,10.818,0,0,1,4.074.976,10.087,10.087,0,0,1,1.755,1.023c.578.42,1.05.925,1.587,1.389l-.267-.156.082.016-.586.154.033-.041-.156.588c0-.018-.006-.036-.01-.053l.422.421-.041-.011a.6.6,0,0,1,.321-1.163" transform="translate(213.885 17.845)" fill="#341f08"/>
          <path id="Trazado_876497" data-name="Trazado 876497" d="M132.344,96.408a.827.827,0,0,1,.62.637.627.627,0,0,1-.276.682.609.609,0,0,1-.731-.094c-1.607-1.858-3.634-3.78-6.272-3.645-.777.04-.775-1.167,0-1.206,2.959-.151,5.311,1.9,7.125,4l-1.009.586,0,0,.217.216,0-.008a.6.6,0,0,1,.321-1.163" transform="translate(211.089 19.156)" fill="#341f08"/>
          <path id="Trazado_876498" data-name="Trazado 876498" d="M132.1,104.018c-1.469-1.523-3.156-3.291-5.41-3.426-.771-.047-.777-1.254,0-1.206,2.617.157,4.54,1.994,6.263,3.78.539.559-.312,1.413-.853.853" transform="translate(209.725 20.52)" fill="#341f08"/>
          <path id="Trazado_876499" data-name="Trazado 876499" d="M132.1,111.495a9.252,9.252,0,0,1-.942-1.457,4.426,4.426,0,0,0-.9-1.024,4.662,4.662,0,0,0-2.418-1.058.62.62,0,0,1-.6-.6.608.608,0,0,1,.6-.6,5.935,5.935,0,0,1,3.108,1.275,5.7,5.7,0,0,1,1.11,1.2,12.687,12.687,0,0,0,.89,1.419.6.6,0,0,1-.853.853" transform="translate(208.35 22.04)" fill="#341f08"/>
          <path id="Trazado_876500" data-name="Trazado 876500" d="M131.442,118.163a5.992,5.992,0,0,1-1.523-1.548,3.923,3.923,0,0,0-.369-.38c-.034-.03-.071-.058-.1-.088s.059.04-.029-.024-.15-.1-.227-.153-.158-.094-.239-.136c-.048-.025-.1-.049-.148-.074-.1-.049.031.008-.031-.014a4.2,4.2,0,0,0-.55-.171.607.607,0,0,1-.421-.742.615.615,0,0,1,.742-.421,4.188,4.188,0,0,1,2.129,1.237c.236.258.44.547.662.818a4.585,4.585,0,0,0,.357.393c.036.034.074.066.111.1s.039.031,0,0a2.533,2.533,0,0,0,.255.163.609.609,0,0,1,.216.825.615.615,0,0,1-.825.216" transform="translate(208.492 23.619)" fill="#341f08"/>
          <path id="Trazado_876501" data-name="Trazado 876501" d="M173.91,84.828A212.635,212.635,0,0,1,165.834,106c-1.589,3.418-3.552,6.637-5.171,10.038a22.781,22.781,0,0,0-2.444,11.622c.349,4.721,2.037,9.24,3.679,13.638.271.727-.894,1.042-1.163.32a58.033,58.033,0,0,1-3.519-12.112,22.7,22.7,0,0,1,1.369-11.71c1.428-3.6,3.5-6.878,5.213-10.333,1.731-3.481,3.218-7.078,4.6-10.709,1.542-4.047,2.949-8.144,4.347-12.242.249-.73,1.415-.416,1.163.321" transform="translate(131.665 17.363)" fill="#341f08"/>
          <path id="Trazado_876502" data-name="Trazado 876502" d="M168.489,87.314a187.775,187.775,0,0,0-5.888,23.344c-.141.762-1.3.44-1.164-.321a187.984,187.984,0,0,1,5.889-23.344c.236-.736,1.4-.421,1.163.321" transform="translate(131.723 17.875)" fill="#341f08"/>
          <path id="Trazado_876503" data-name="Trazado 876503" d="M163.528,90.789l-4.037-.536a.62.62,0,0,1-.6-.6c.013-.292.268-.648.6-.6l4.037.536a.62.62,0,0,1,.6.6c-.013.291-.268.648-.6.6" transform="translate(139.174 18.385)" fill="#341f08"/>
          <path id="Trazado_876504" data-name="Trazado 876504" d="M164.642,98.185l-2.337-.522a.609.609,0,0,1-.421-.742.616.616,0,0,1,.742-.421l2.337.522a.609.609,0,0,1,.421.742.617.617,0,0,1-.742.421" transform="translate(134.312 19.921)" fill="#341f08"/>
          <path id="Trazado_876505" data-name="Trazado 876505" d="M171.976,131.718a26.81,26.81,0,0,0-3.833,8c-.174.756-1.337.436-1.163-.321a27.788,27.788,0,0,1,3.955-8.291c.41-.656,1.454-.052,1.041.609" transform="translate(121.493 27.012)" fill="#341f08"/>
          <path id="Trazado_876506" data-name="Trazado 876506" d="M134.7,148.094q.378,14.228.069,28.463a.6.6,0,0,1-1.206,0q.309-14.23-.069-28.463a.6.6,0,0,1,1.206,0" transform="translate(199.037 30.458)" fill="#341f08"/>
          <path id="Trazado_876507" data-name="Trazado 876507" d="M161.908,149.911q-3.415-.163-6.832-.251a18.909,18.909,0,0,0-6.586.591c-.737.247-1.053-.918-.321-1.164a19.223,19.223,0,0,1,6.644-.641q3.549.087,7.1.258c.773.037.777,1.244,0,1.206" transform="translate(154.25 30.646)" fill="#341f08"/>
          <path id="Trazado_876508" data-name="Trazado 876508" d="M160.482,150.045q-.094,1.906-.033,3.812a.607.607,0,0,1-.6.6.615.615,0,0,1-.6-.6q-.062-1.906.033-3.812a.6.6,0,0,1,1.206,0" transform="translate(142.424 30.856)" fill="#341f08"/>
          <path id="Trazado_876509" data-name="Trazado 876509" d="M161.326,154.916l-6.143-.451a20.792,20.792,0,0,0-6.018-.063c-.756.171-1.079-.992-.321-1.163a20.79,20.79,0,0,1,6.093,0l6.389.469c.77.057.776,1.263,0,1.206" transform="translate(154.039 31.591)" fill="#341f08"/>
          <path id="Trazado_876510" data-name="Trazado 876510" d="M161.25,159.614q-5.713-.252-11.431.014c-.776.036-.773-1.17,0-1.206q5.713-.268,11.431-.014c.773.034.777,1.24,0,1.206" transform="translate(153.116 32.682)" fill="#341f08"/>
          <path id="Trazado_876511" data-name="Trazado 876511" d="M159.119,159.064a9.457,9.457,0,0,0,1.373,5.863c.41.662-.633,1.269-1.041.609a10.546,10.546,0,0,1-1.538-6.473.62.62,0,0,1,.6-.6.607.607,0,0,1,.6.6" transform="translate(143.948 32.718)" fill="#341f08"/>
          <path id="Trazado_876512" data-name="Trazado 876512" d="M160.025,153.953a20.2,20.2,0,0,0,.279,6.243c.156.758-1.007,1.082-1.163.321a21.225,21.225,0,0,1-.322-6.564.621.621,0,0,1,.6-.6.607.607,0,0,1,.6.6" transform="translate(143.218 31.663)" fill="#341f08"/>
          <path id="Trazado_876513" data-name="Trazado 876513" d="M159.893,146.147a14.83,14.83,0,0,0,.217,1.741,17.156,17.156,0,0,0,.433,1.793.6.6,0,1,1-1.163.321,17.866,17.866,0,0,1-.694-3.855.607.607,0,0,1,.6-.6.618.618,0,0,1,.6.6" transform="translate(142.984 30.051)" fill="#341f08"/>
          <path id="Trazado_876514" data-name="Trazado 876514" d="M148.646,148.29a52.439,52.439,0,0,0-10.124-4.3c-.74-.227-.425-1.391.321-1.164a54.026,54.026,0,0,1,10.412,4.418c.679.376.071,1.419-.609,1.041" transform="translate(178.833 29.485)" fill="#341f08"/>
          <path id="Trazado_876515" data-name="Trazado 876515" d="M174.476,154.567a45.993,45.993,0,0,0-14.292-9.2c-.711-.287-.4-1.455.321-1.163a47.539,47.539,0,0,1,14.824,9.513c.566.534-.288,1.386-.853.853" transform="translate(126.711 29.764)" fill="#341f08"/>
          <path id="Trazado_876516" data-name="Trazado 876516" d="M175.746,158.854a20.1,20.1,0,0,0-3.691-2.047q-1.951-1-3.94-1.926-3.974-1.846-8.085-3.365c-.721-.268-.409-1.434.321-1.163q4.253,1.578,8.372,3.486,2.054.954,4.067,1.991A20.558,20.558,0,0,1,176.6,158c.6.5-.261,1.346-.853.853" transform="translate(125.62 31.036)" fill="#341f08"/>
          <path id="Trazado_876517" data-name="Trazado 876517" d="M175.162,161.282a65.211,65.211,0,0,1-15.932-3.537c-.725-.261-.413-1.427.321-1.163a63.963,63.963,0,0,0,15.611,3.494c.767.072.775,1.279,0,1.206" transform="translate(127.649 32.322)" fill="#341f08"/>
          <path id="Trazado_876518" data-name="Trazado 876518" d="M178.744,142.8a12.142,12.142,0,0,0-1.436,5.1.616.616,0,0,1-.6.6.609.609,0,0,1-.6-.6,13.525,13.525,0,0,1,1.6-5.713c.368-.683,1.41-.075,1.041.609" transform="translate(103.716 29.298)" fill="#341f08"/>
          <path id="Trazado_876519" data-name="Trazado 876519" d="M178.831,153.76c.013.212.029.426.051.638.011.1.022.2.034.293.006.048.011.1.018.146-.022-.154,0,.028.01.059.06.414.14.825.235,1.233a.6.6,0,0,1-1.164.321,16.2,16.2,0,0,1-.39-2.69.606.606,0,0,1,.6-.6.618.618,0,0,1,.6.6" transform="translate(101.507 31.623)" fill="#341f08"/>
          <path id="Trazado_876520" data-name="Trazado 876520" d="M146.265,156.432a15.344,15.344,0,0,1-1.4,5.167.608.608,0,0,1-.825.216.616.616,0,0,1-.216-.825,13.678,13.678,0,0,0,1.235-4.558.619.619,0,0,1,.6-.6.607.607,0,0,1,.6.6" transform="translate(175.303 32.175)" fill="#341f08"/>
          <path id="Trazado_876521" data-name="Trazado 876521" d="M144.944,150.417v.691a.432.432,0,0,1-.052.233.439.439,0,0,1-.123.193.455.455,0,0,1-.194.125.46.46,0,0,1-.234.052.608.608,0,0,1-.426-.177.63.63,0,0,1-.177-.426v-.691a.469.469,0,0,1,.053-.233.463.463,0,0,1,.124-.194.674.674,0,0,1,.426-.176.618.618,0,0,1,.428.176.632.632,0,0,1,.175.427" transform="translate(176.64 30.933)" fill="#341f08"/>
          <path id="Trazado_876522" data-name="Trazado 876522" d="M187.61,136.525a34.376,34.376,0,0,0-11.74,23.213,32.754,32.754,0,0,0,.277,7.637c.118.76-1.044,1.087-1.163.321a35.578,35.578,0,0,1,6.449-26.266,34.119,34.119,0,0,1,5.324-5.757c.586-.5,1.444.347.853.853" transform="translate(96.568 27.981)" fill="#341f08"/>
          <path id="Trazado_876523" data-name="Trazado 876523" d="M185.366,159.138a6.952,6.952,0,0,1,.092,3.273,6.613,6.613,0,0,1-.541,1.552,1.185,1.185,0,0,1-1.261.8,1.345,1.345,0,0,1-.89-1.1,5.532,5.532,0,0,1-.186-1.554,5.662,5.662,0,0,1,.916-2.956.61.61,0,0,1,1.042,0,4.607,4.607,0,0,1-.191,4.535.61.61,0,0,1-1.1-.144,5.436,5.436,0,0,1,1.019-4.947.606.606,0,0,1,.947.122,3.33,3.33,0,0,1-.113,3.338.611.611,0,0,1-1.1-.144,4.664,4.664,0,0,1,.267-3.021.61.61,0,0,1,.682-.277.73.73,0,0,1-.052,1.4.78.78,0,0,1-.84-.373c-.1-.177-.1-.577-.165-.659l.217.216-.06-.041.305.082a1.021,1.021,0,0,1-.848-1.532l.682.886-.049.017.265-.156a.408.408,0,0,0,.064-.41l-.217-.217-.163-.042-.3.082a.486.486,0,0,0-.173.376l.156.267.045.031a.6.6,0,0,1,.609-1.042.792.792,0,1,1-.554-.069.609.609,0,0,1,.682.886c.107-.171-.07-.191-.136-.265-.111-.029-.077-.027.1,0l.144.062a.869.869,0,0,1,.229.2.93.93,0,0,1,.2.408,1.575,1.575,0,0,1,.03.239c0,.04,0,.078,0,.117.012.118-.03.063-.128-.169l-.3-.082.051,0-.3.082c-.06.109-.119.218-.18.327l.083.3-.023-.031.36.277-.045-.011.682-.277a3.305,3.305,0,0,0-.146,2.091l-1.1-.145a2.1,2.1,0,0,0,.112-2.12l.948.122a4.182,4.182,0,0,0-.709,3.773l-1.1-.145a3.373,3.373,0,0,0,.189-3.317h1.042a4.421,4.421,0,0,0-.73,2,4.6,4.6,0,0,0,.017,1.093,4.23,4.23,0,0,0,.1.491c.023.087.066.177.081.265s.11.027-.024,0c-.292-.048-.278.07-.135-.211a4.543,4.543,0,0,0,.21-.492,5.853,5.853,0,0,0,.291-1.133,5.65,5.65,0,0,0-.15-2.318.6.6,0,0,1,1.163-.321" transform="translate(89.113 32.501)" fill="#341f08"/>
          <path id="Trazado_876524" data-name="Trazado 876524" d="M176.166,136.538l.138.789a.738.738,0,0,1,0,.321c-.021.048-.041.1-.06.145a.466.466,0,0,1-.156.169.3.3,0,0,1-.134.077.294.294,0,0,1-.152.041.3.3,0,0,1-.16,0,.46.46,0,0,1-.224-.071,2.489,2.489,0,0,1-.664-.472,2.835,2.835,0,0,1-.3-.363,1.948,1.948,0,0,1-.179-.292.63.63,0,0,1-.062-.464l.062-.144a.449.449,0,0,1,.156-.17.573.573,0,0,1,.366-.129l.159.022a.6.6,0,0,1,.267.156c.083.071.165.142.247.215a.623.623,0,0,1,.245.5.825.825,0,0,1-.03.2.772.772,0,0,1-.34.443.289.289,0,0,1-.041.025,1.06,1.06,0,0,1-.18.074.989.989,0,0,1-.2.028.587.587,0,0,1-.122-.011.646.646,0,0,1-.121-.022.662.662,0,0,1-.181-.082.619.619,0,0,1-.216-.825.608.608,0,0,1,.36-.276.593.593,0,0,1,.466.06.133.133,0,0,0,.036.02l-.144-.06a.216.216,0,0,0,.04.011l-.16-.022a.262.262,0,0,0,.053,0l-.16.022a.264.264,0,0,0,.051-.013l-.144.06a.29.29,0,0,0,.055-.033l-.122.094a.212.212,0,0,0,.036-.037l-.094.122a.26.26,0,0,0,.021-.036l-.062.145a.229.229,0,0,0,.011-.041l-.022.16v-.011c.059.142.118.285.176.427l-.316-.275.947-.731a2.09,2.09,0,0,0,.2.32l-.094-.122a2.07,2.07,0,0,0,.37.37l-.122-.094a2.055,2.055,0,0,0,.36.218l-.886.682-.138-.789a.456.456,0,0,1-.011-.241.451.451,0,0,1,.071-.223.6.6,0,0,1,.825-.217.59.59,0,0,1,.278.361" transform="translate(108.526 28.076)" fill="#341f08"/>
          <path id="Trazado_876525" data-name="Trazado 876525" d="M184.62,138.218a25.7,25.7,0,0,0-9.985-6c-.736-.236-.421-1.4.321-1.163a27.049,27.049,0,0,1,10.517,6.307c.559.54-.294,1.393-.853.853" transform="translate(99.156 27.054)" fill="#341f08"/>
          <path id="Trazado_876526" data-name="Trazado 876526" d="M183.676,133.7c.152-.9-.917-1.684-1.611-2.132a24.307,24.307,0,0,0-3.478-1.851.608.608,0,0,1-.217-.825.62.62,0,0,1,.826-.216,21.169,21.169,0,0,1,3.829,2.086c1.08.766,2.055,1.842,1.813,3.259a.608.608,0,0,1-.742.421.617.617,0,0,1-.421-.742" transform="translate(95.017 26.553)" fill="#341f08"/>
          <path id="Trazado_876527" data-name="Trazado 876527" d="M171.181,125.275q-.062,4.533-.244,9.064c-.029.773-1.235.777-1.206,0q.183-4.532.244-9.064a.6.6,0,0,1,1.206,0" transform="translate(119.044 25.746)" fill="#341f08"/>
          <path id="Trazado_876528" data-name="Trazado 876528" d="M176.222,132.392a30.2,30.2,0,0,0-5.59,4.213c-.561.537-1.416-.315-.853-.853a31.457,31.457,0,0,1,5.833-4.4.6.6,0,0,1,.609,1.041" transform="translate(113.876 27.103)" fill="#341f08"/>
          <path id="Trazado_876529" data-name="Trazado 876529" d="M140.529,173.336a18.605,18.605,0,0,1-7.3,3.224,49.366,49.366,0,0,1-8.354,1.182,51.847,51.847,0,0,1-25.937-5.257c-.7-.343-.087-1.384.609-1.042a50.769,50.769,0,0,0,31.722,4.3,19.473,19.473,0,0,0,8.408-3.26c.607-.469,1.466.378.853.853" transform="translate(235.266 35.385)" fill="#341f08"/>
          <path id="Trazado_876530" data-name="Trazado 876530" d="M133.3,175.628l-5.949,19.377c-.227.74-1.392.425-1.163-.321q2.973-9.687,5.949-19.377c.227-.74,1.392-.425,1.163.321" transform="translate(209.467 36.11)" fill="#341f08"/>
          <path id="Trazado_876531" data-name="Trazado 876531" d="M135.743,211.514c-3.179,3.624-7.861,5.318-12.529,5.956a49.781,49.781,0,0,1-16.438-.753,55.527,55.527,0,0,1-9.683-2.9c-.712-.286-.4-1.453.321-1.164a54.79,54.79,0,0,0,16.483,3.82c4.868.345,9.969.2,14.592-1.518a15.678,15.678,0,0,0,6.4-4.3c.513-.585,1.363.271.853.853" transform="translate(242.446 43.456)" fill="#341f08"/>
          <path id="Trazado_876532" data-name="Trazado 876532" d="M103.407,199.827a40.412,40.412,0,0,1-1.527,18.316c-.239.735-1.4.42-1.164-.321a39.044,39.044,0,0,0,1.529-17.674c-.111-.76,1.051-1.087,1.163-.321" transform="translate(269.691 41.169)" fill="#341f08"/>
          <path id="Trazado_876533" data-name="Trazado 876533" d="M108.2,200.506a87.4,87.4,0,0,1,.141,10.592q-.125,2.573-.4,5.136c-.121,1.109-.07,2.838-1.3,3.366-.706.3-1.32-.735-.608-1.041.571-.246.553-1.063.615-1.593q.139-1.171.242-2.343.21-2.347.292-4.7a87.558,87.558,0,0,0-.189-9.415c-.057-.775,1.15-.771,1.206,0" transform="translate(259.021 41.28)" fill="#341f08"/>
          <path id="Trazado_876534" data-name="Trazado 876534" d="M114.692,200.51a96.084,96.084,0,0,1-1.408,18.148c-.133.764-1.3.439-1.164-.321a94.291,94.291,0,0,0,1.366-17.827.6.6,0,0,1,1.206,0" transform="translate(245.036 41.28)" fill="#341f08"/>
          <path id="Trazado_876535" data-name="Trazado 876535" d="M120.955,201.577q-.362,4.24-.725,8.48-.177,2.083-.356,4.166a6.528,6.528,0,0,1-.86,3.226c-.432.639-1.478.037-1.041-.609a6.823,6.823,0,0,0,.759-3.361q.17-2.009.343-4.016.337-3.943.674-7.886c.065-.767,1.273-.775,1.206,0" transform="translate(231.838 41.501)" fill="#341f08"/>
          <path id="Trazado_876536" data-name="Trazado 876536" d="M127.137,200.241a58.176,58.176,0,0,1-1.708,16.521.6.6,0,0,1-1.163-.321,57.02,57.02,0,0,0,1.665-16.2c-.031-.777,1.175-.775,1.206,0" transform="translate(217.918 41.225)" fill="#341f08"/>
          <path id="Trazado_876537" data-name="Trazado 876537" d="M97.353,161.518a26.07,26.07,0,0,1-5.9,12.363c-.507.59-1.356-.267-.853-.853A24.908,24.908,0,0,0,96.19,161.2c.136-.762,1.3-.439,1.163.321" transform="translate(288.513 33.194)" fill="#341f08"/>
          <path id="Trazado_876538" data-name="Trazado 876538" d="M195.345,165.314a18.811,18.811,0,0,1-11.642-3.286c-.635-.439-.033-1.485.609-1.042a17.722,17.722,0,0,0,11.033,3.122c.776-.042.773,1.165,0,1.206" transform="translate(77.768 33.218)" fill="#341f08"/>
          <path id="Trazado_876539" data-name="Trazado 876539" d="M201.48,186.073a78.452,78.452,0,0,0-22,5.473c-.719.293-1.032-.873-.321-1.164a79.58,79.58,0,0,1,22.322-5.515c.772-.076.767,1.132,0,1.206" transform="translate(77.277 38.17)" fill="#341f08"/>
          <path id="Trazado_876540" data-name="Trazado 876540" d="M186.342,183.347a22.865,22.865,0,0,1-.685,3.88.6.6,0,0,1-1.164-.321,21.052,21.052,0,0,0,.643-3.559.616.616,0,0,1,.6-.6.61.61,0,0,1,.6.6" transform="translate(86.096 37.732)" fill="#341f08"/>
          <path id="Trazado_876541" data-name="Trazado 876541" d="M190.117,183.342a33.161,33.161,0,0,1-.834,5.824c-.179.755-1.342.436-1.164-.321a31.253,31.253,0,0,0,.791-5.5c.041-.772,1.249-.777,1.206,0" transform="translate(77.942 37.736)" fill="#341f08"/>
          <path id="Trazado_876542" data-name="Trazado 876542" d="M126.492,180.392a14.522,14.522,0,0,1-1.524,7.267c-.347.695-1.389.084-1.042-.609a13.279,13.279,0,0,0,1.36-6.657c-.042-.776,1.164-.773,1.206,0" transform="translate(219.057 37.127)" fill="#341f08"/>
          <path id="Trazado_876543" data-name="Trazado 876543" d="M125.261,141.334l1.456,3.074a.6.6,0,0,1-1.042.609l-1.455-3.074a.6.6,0,0,1,1.041-.609" transform="translate(218.43 29.122)" fill="#341f08"/>
          <path id="Trazado_876544" data-name="Trazado 876544" d="M181.164,160.817a107.544,107.544,0,0,0,1.2,27.989c.133.76-1.029,1.086-1.164.321a108.794,108.794,0,0,1-1.24-28.31c.068-.767,1.274-.775,1.206,0" transform="translate(96.01 33.085)" fill="#341f08"/>
          <path id="Trazado_876545" data-name="Trazado 876545" d="M184.291,172.343a7.205,7.205,0,0,1,1.67,6.593,3.7,3.7,0,0,1-.7,1.612c-.559.578-1.25.232-1.71-.264a5.766,5.766,0,0,1-1.45-3,5.923,5.923,0,0,1,.621-3.8c.374-.68,1.416-.072,1.042.609a4.583,4.583,0,0,0-.484,2.97,4.876,4.876,0,0,0,.487,1.454,2.652,2.652,0,0,0,1.006,1.206l-.3-.082c-.058,0-.059.1-.042,0a.921.921,0,0,1,.092-.191,4.429,4.429,0,0,0,.159-.421,6.278,6.278,0,0,0,.216-.854,5.959,5.959,0,0,0-1.453-4.989c-.527-.569.325-1.424.853-.853" transform="translate(89.226 35.546)" fill="#341f08"/>
          <path id="Trazado_876546" data-name="Trazado 876546" d="M193.157,191.42a150.059,150.059,0,0,0-36.146,8.453q-5.031,1.859-9.916,4.075c-.7.317-1.315-.721-.609-1.042A151.361,151.361,0,0,1,182.64,191.69q5.23-.923,10.517-1.477c.771-.082.765,1.126,0,1.206" transform="translate(124.914 39.274)" fill="#341f08"/>
          <path id="Trazado_876547" data-name="Trazado 876547" d="M175.81,196.935q-2.405-2.367-4.811-4.735c-.554-.545.3-1.4.853-.853q2.407,2.367,4.811,4.735c.554.545-.3,1.4-.853.853" transform="translate(112.068 39.472)" fill="#341f08"/>
          <path id="Trazado_876548" data-name="Trazado 876548" d="M202.736,237.119q1.057,17.433,1.736,34.886.194,4.966.356,9.932c.025.776-1.181.776-1.206,0q-.572-17.456-1.521-34.9-.27-4.962-.571-9.921c-.047-.776,1.159-.772,1.206,0" transform="translate(47.034 48.84)" fill="#341f08"/>
          <path id="Trazado_876549" data-name="Trazado 876549" d="M183.318,231.894q-2.725,16.5-4.632,33.131-.541,4.729-1.013,9.466c-.077.766-1.285.773-1.206,0q1.676-16.733,4.179-33.367.72-4.779,1.509-9.55c.125-.764,1.288-.44,1.163.321" transform="translate(98.774 47.724)" fill="#341f08"/>
          <path id="Trazado_876550" data-name="Trazado 876550" d="M206.127,205.31a19.776,19.776,0,0,0-8.358,11.036c-1.758,5.347-1.722,11.072-1.33,16.625.054.775-1.152.771-1.206,0-.41-5.8-.419-11.828,1.523-17.388a20.91,20.91,0,0,1,8.763-11.314.6.6,0,0,1,.609,1.041" transform="translate(53.305 42.158)" fill="#341f08"/>
          <path id="Trazado_876551" data-name="Trazado 876551" d="M188.75,209.884c-14.283,5.427-29.629,6.791-44.321,10.706a96.638,96.638,0,0,0-12.064,4.014c-.717.3-1.029-.871-.321-1.164,14.131-5.839,29.483-7.3,44.214-10.974a107.011,107.011,0,0,0,12.171-3.745c.726-.276,1.041.889.321,1.163" transform="translate(147.015 43.087)" fill="#341f08"/>
          <path id="Trazado_876552" data-name="Trazado 876552" d="M182.655,222.214c.078-.006,0,.024,0,.014.034-.065-.078.136-.069.113a.79.79,0,0,0-.054.355,7.645,7.645,0,0,1,.093,1.408,2.162,2.162,0,0,1-1.775,1.7,5.726,5.726,0,0,1-1.513.054,2.6,2.6,0,0,0-.338-.024c.059-.024.014.022.017.034.006.046,0,.118,0,.153a6.256,6.256,0,0,1,.147,1.058,1.193,1.193,0,0,1-.638,1.054.623.623,0,0,1-.825-.216.608.608,0,0,1,.216-.825c.1-.045.054-.016.022.034.035-.054.019-.055.024-.119a1.287,1.287,0,0,0-.062-.432,1.963,1.963,0,0,1,.042-1.3c.483-1,1.734-.473,2.585-.637a1.2,1.2,0,0,0,.825-.483c.216-.358.03-.864-.011-1.247a1.579,1.579,0,0,1,1.311-1.9.608.608,0,0,1,.6.6.615.615,0,0,1-.6.6" transform="translate(97.443 45.632)" fill="#341f08"/>
          <path id="Trazado_876553" data-name="Trazado 876553" d="M193.837,226.809l-8.613,47.054q-1.218,6.658-2.437,13.317c-.14.763-1.3.439-1.164-.321l8.613-47.054q1.22-6.658,2.438-13.317c.139-.762,1.3-.439,1.163.321" transform="translate(82.041 46.675)" fill="#341f08"/>
          <path id="Trazado_876554" data-name="Trazado 876554" d="M238.211,314.58q-19.923.393-39.846-.279-5.637-.192-11.27-.468c-.773-.039-.777-1.245,0-1.206q19.9.975,39.838.886,5.639-.025,11.278-.139a.6.6,0,0,1,0,1.206" transform="translate(31.181 64.55)" fill="#341f08"/>
          <path id="Trazado_876555" data-name="Trazado 876555" d="M229.551,275.066c-.536,7.372-.951,14.9-2.626,22.123-.677,2.918-1.893,5.746-4.39,7.55-2.6,1.876-5.938,2.458-8.945,3.366a120.19,120.19,0,0,0-11.944,4.316c-.714.3-1.027-.865-.321-1.163q4.924-2.076,10.015-3.716c1.673-.536,3.36-1.019,5.05-1.5a22.538,22.538,0,0,0,4.12-1.486c2.832-1.445,4.3-4,5.082-7a73.8,73.8,0,0,0,1.681-10.137c.473-4.108.773-8.233,1.073-12.356.056-.77,1.263-.776,1.206,0" transform="translate(23.034 56.675)" fill="#341f08"/>
          <path id="Trazado_876556" data-name="Trazado 876556" d="M231.7,307.105a11.855,11.855,0,0,0-5,10.993c.086.771-1.122.765-1.206,0a13.047,13.047,0,0,1,5.6-12.035c.644-.438,1.249.607.609,1.041" transform="translate(-8.933 63.173)" fill="#341f08"/>
          <path id="Trazado_876557" data-name="Trazado 876557" d="M206.518,303.414a7.27,7.27,0,0,1-3.717,1.707,36.453,36.453,0,0,1-14.666.455c-.764-.129-.439-1.291.321-1.163a35.629,35.629,0,0,0,8.963.364,34.163,34.163,0,0,0,4.364-.661c1.333-.29,2.892-.537,3.882-1.555.542-.557,1.395.3.853.853" transform="translate(61.854 62.434)" fill="#341f08"/>
          <path id="Trazado_876558" data-name="Trazado 876558" d="M239.644,311.186a11.843,11.843,0,0,1-4.78,1.209,43.464,43.464,0,0,1-5.432.305.6.6,0,0,1,0-1.206,43.6,43.6,0,0,0,5.052-.262,11.207,11.207,0,0,0,4.551-1.087.6.6,0,0,1,.609,1.041" transform="translate(-21.035 64.019)" fill="#341f08"/>
          <path id="Trazado_876559" data-name="Trazado 876559" d="M241.526,301.783A66.1,66.1,0,0,0,230.5,307.1a18.567,18.567,0,0,0-4.562,3.481c-1.33,1.556-1.652,3.57-1.94,5.531-.112.765-1.275.439-1.163-.321a11.747,11.747,0,0,1,1.92-5.655,17.143,17.143,0,0,1,4.673-3.79A66.945,66.945,0,0,1,241.2,300.62c.726-.278,1.04.888.321,1.163" transform="translate(-15.771 62.062)" fill="#341f08"/>
          <path id="Trazado_876560" data-name="Trazado 876560" d="M152.473,104.826a80.71,80.71,0,0,0-14.384,11.151c-.556.543-1.41-.31-.853-.853a82.121,82.121,0,0,1,14.627-11.34.6.6,0,0,1,.609,1.041" transform="translate(176.886 21.41)" fill="#341f08"/>
          <path id="Trazado_876561" data-name="Trazado 876561" d="M155.252,115.793c.03.147,0,.086-.089-.187l-.214-.491-.322-.736-.749-1.718q-.695-1.6-1.392-3.191l-2.891-6.627c-.308-.706.731-1.32,1.041-.609q1.634,3.742,3.266,7.486l1.607,3.682c.267.613.549,1.222.8,1.841a1.12,1.12,0,0,1-.018,1.159c-.458.614-1.507.013-1.041-.609" transform="translate(158.12 21.043)" fill="#341f08"/>
          <path id="Trazado_876562" data-name="Trazado 876562" d="M161.822,140.16a41.68,41.68,0,0,0-19.1-10.353c-.755-.179-.436-1.343.32-1.163a42.9,42.9,0,0,1,19.633,10.663c.563.537-.291,1.389-.853.853" transform="translate(160.47 26.558)" fill="#341f08"/>
          <path id="Trazado_876563" data-name="Trazado 876563" d="M158.019,134.073l-3.4-.971a.6.6,0,1,1,.321-1.163l3.4.971a.6.6,0,1,1-.321,1.163" transform="translate(150.205 27.238)" fill="#341f08"/>
          <path id="Trazado_876564" data-name="Trazado 876564" d="M243.153,329.387c-.34,8.953-.965,16.047-.965,16.047s5.789.695,13.763,1.6a.29.29,0,0,0,.1.013c17.764,2.015,46.3,5.023,46.3,3.576,0-2.114-28.32-19.211-33.285-21.254s-3.8-28.759-3.8-28.759h-23.07c1.362,7.477,1.32,19.2.965,28.773" transform="translate(-99.54 62.07)" fill="#c7653b"/>
          <path id="Trazado_876565" data-name="Trazado 876565" d="M242.188,342.13c17.764,2.015,46.3,5.023,46.3,3.576,0-12.79-23.147-13.947-33.285-21.254,0,0-12.2,6.257-13.011,17.678" transform="translate(-85.678 66.991)" fill="#8caba6"/>
          <path id="Trazado_876566" data-name="Trazado 876566" d="M280.643,340.51s5.789.695,13.762,1.6a51.43,51.43,0,0,0-12.8-17.651c-.341,8.953-.965,16.047-.965,16.047" transform="translate(-137.994 66.994)" fill="#8caba6"/>
          <path id="Trazado_876567" data-name="Trazado 876567" d="M272.734,335.325c-.34,8.953-.965,16.047-.965,16.047s5.789.695,13.764,1.6a.289.289,0,0,0,.1.013c17.764,2.015,46.3,5.023,46.3,3.576,0-2.114-28.32-19.211-33.285-21.255s-3.8-28.759-3.8-28.759h-23.07c1.362,7.477,1.32,19.2.965,28.773" transform="translate(-164.81 63.296)" fill="#c7653b"/>
          <path id="Trazado_876568" data-name="Trazado 876568" d="M271.769,348.067c17.764,2.015,46.3,5.023,46.3,3.576,0-12.79-23.147-13.947-33.285-21.255,0,0-12.2,6.257-13.011,17.678" transform="translate(-150.948 68.217)" fill="#8caba6"/>
          <path id="Trazado_876569" data-name="Trazado 876569" d="M310.224,346.448s5.789.695,13.762,1.6a51.431,51.431,0,0,0-12.8-17.651c-.341,8.953-.965,16.047-.965,16.047" transform="translate(-203.264 68.22)" fill="#8caba6"/>
          <path id="Trazado_876570" data-name="Trazado 876570" d="M335.919,156.792c-.812-1.416-66.3,1.29-66.3,1.29s-13.8,106.075-12.717,129.887,1.082,51.825,1.082,51.825,9.471,9.614,41.943,1.22l2.435-9.478s15.911,10.868,38.532,1.1c0,0,3.681-82.554,6.387-113.943s-1.714-61.9-1.714-61.9Z" transform="translate(-163.037 32.289)" fill="#3e4e79"/>
          <path id="Trazado_876571" data-name="Trazado 876571" d="M322.257,15.72c8.989,1.245,23.7,8.928,21.438,30.415s6.771,31.079,5.83,54.586l-85.564,6.393S263.4,89.625,273.175,75.9s18.617-28.96,20.122-42.312,16.736-19.558,28.96-17.865" transform="translate(-173.047 3.189)" fill="#341f08"/>
          <path id="Trazado_876572" data-name="Trazado 876572" d="M308.881,59.966a19.408,19.408,0,0,1-2.221,6.122c-2.316,3.714-6.63,5.777-10.938,6.546-6.357,1.136-13.5-.434-17.756-5.294a23.882,23.882,0,0,1-4.341-8.35,60.546,60.546,0,0,1-2.985-22.282,21.653,21.653,0,0,1,1.194-6.654c2.339-6.064,8.787-9.544,15.093-11.115,6.475-1.612,11.665-.871,16.754,3.733A22.143,22.143,0,0,1,309.9,33.885c2.144,8.628.89,17.507-1.022,26.082" transform="translate(-142.442 3.75)" fill="#c7653b"/>
          <path id="Trazado_876573" data-name="Trazado 876573" d="M299.4,60.562l1.693,16.173,6.018,8.839-31.406-1.5,4.7-13.729s.565-9.4-.565-15.232Z" transform="translate(-144.733 11.379)" fill="#c7653b"/>
          <path id="Trazado_876574" data-name="Trazado 876574" d="M301.764,71.357s-11.745,2.018-20.4-3.623l-10.343,8.274,5.642,108.479,37.046,1.157-3.949-96.472-1.693-6.2Z" transform="translate(-145.697 13.985)" fill="#7fa3ce"/>
          <path id="Trazado_876575" data-name="Trazado 876575" d="M244.059,70.737s8.565,64.076,7.624,99.242,2.257,106.063,2.257,106.063,8.462,4.89,23.319,0c0,0,2.256-51.526,1.693-71.46s-3.009-55.3-3.009-55.3l12.6-24.057s-7.9-25.575-12.036-30.465S262.224,83.663,256.577,79.15a110.918,110.918,0,0,0-12.518-8.413" transform="translate(-87.993 14.605)" fill="#fff"/>
          <path id="Trazado_876576" data-name="Trazado 876576" d="M360.541,67.734S342.3,75.445,334.4,78.077,316.912,92.745,311.834,99.7s-25.763,51.714-24.447,59.049S325.374,180,325.374,180s-8.462,49.27-8.462,70.332.565,23.7.565,23.7,19.557,6.583,39.679,2.069c0,0,8.839-50.775,9.78-63.75s6.283-75.974,6.283-75.974-5.72-32.722-6.66-40.431-4.962-21.192-6.018-28.209" transform="translate(-224.871 13.985)" fill="#fff"/>
          <path id="Trazado_876577" data-name="Trazado 876577" d="M298.2,18.576s2.058,20.6-18.252,28.124l-2.633,15.42s-10.343-21.061-5.641-31.593,19.131-15.42,26.583-13.54,18.089,8.706,16.673,24.26c0,0-14.088-9.047-16.731-22.671" transform="translate(-146.345 3.426)" fill="#341f08"/>
          <path id="Trazado_876578" data-name="Trazado 876578" d="M299.024,51.969c1.993,5.2,6.44,8.334,9.93,7s4.706-6.639,2.713-11.842-6.44-8.334-9.932-7-4.705,6.639-2.712,11.842" transform="translate(-177.236 8.222)" fill="#c7653b"/>
          <path id="Trazado_876579" data-name="Trazado 876579" d="M276.133,40.355c0,1.684.785,3.049,1.755,3.049s1.754-1.365,1.754-3.049-.785-3.049-1.754-3.049-1.755,1.365-1.755,3.049" transform="translate(-117.79 7.703)" fill="#341f08"/>
          <path id="Trazado_876580" data-name="Trazado 876580" d="M286.4,40.516c0,1.684.785,3.049,1.755,3.049s1.754-1.365,1.754-3.049-.785-3.049-1.754-3.049-1.755,1.365-1.755,3.049" transform="translate(-140.449 7.736)" fill="#341f08"/>
          <path id="Trazado_876581" data-name="Trazado 876581" d="M280.294,37.565a14.069,14.069,0,0,0,1.128,3.979c.574,1.269,1.375,2.421,1.887,3.721.825,2.1.526,4.93-1.915,5.74-.738.246-1.056-.918-.321-1.163a2.4,2.4,0,0,0,1.484-2.361,7.236,7.236,0,0,0-1.186-3.444,17.87,17.87,0,0,1-2.284-6.472c-.1-.767,1.108-.76,1.206,0" transform="translate(-125.427 7.638)" fill="#341f08"/>
          <path id="Trazado_876582" data-name="Trazado 876582" d="M278.612,51.313c-.2,1.39,1.916,2.951,2.923,3.533a9.818,9.818,0,0,0,4.795,1.291,9.133,9.133,0,0,0,3.278-.5,5.846,5.846,0,0,0,2.384-1.5A2.285,2.285,0,0,0,292.7,51.8a1.951,1.951,0,0,0-1.519-1.036,6.621,6.621,0,0,0-1.9.057,20.642,20.642,0,0,1-6.8-.411c-1.106-.241-3.6-.894-3.873.908" transform="translate(-133.941 10.342)" fill="#341f08"/>
          <path id="Trazado_876583" data-name="Trazado 876583" d="M281.273,51.313c-.2,1.39,1.916,2.951,2.923,3.533a9.818,9.818,0,0,0,4.795,1.291,9.134,9.134,0,0,0,3.278-.5c-1.007-1.221-3.816-4.3-7.123-5.236-1.106-.241-3.6-.894-3.873.908" transform="translate(-136.602 10.342)" fill="#ebb2df"/>
          <path id="Trazado_876584" data-name="Trazado 876584" d="M270.008,19.152c.778,4.91,1.609,10.039,4.6,14.162a17.671,17.671,0,0,0,5.035,4.651c2.075,1.278,4.794,2.571,7.279,1.975.754-.181,1.076.982.321,1.163-2.613.627-5.342-.466-7.6-1.736a18.972,18.972,0,0,1-5.557-4.756c-3.422-4.341-4.394-9.82-5.237-15.138-.121-.76,1.041-1.087,1.163-.321" transform="translate(-117.012 3.864)" fill="#341f08"/>
          <path id="Trazado_876585" data-name="Trazado 876585" d="M303.364,19.41a12.85,12.85,0,0,1,.118,7.585,47.791,47.791,0,0,1-2.589,7.5,20.841,20.841,0,0,1-9.266,10.4,20.227,20.227,0,0,1-7.308,2.262c-.771.087-.765-1.121,0-1.206a19.032,19.032,0,0,0,11.2-5.421c3.387-3.372,5.121-8.046,6.449-12.547.8-2.7,1.251-5.55.236-8.252-.274-.728.892-1.042,1.163-.321" transform="translate(-151.327 3.923)" fill="#341f08"/>
          <path id="Trazado_876586" data-name="Trazado 876586" d="M285.637,23.38a22.392,22.392,0,0,1-1.184,13.212c-.293.707-1.461.4-1.163-.321a21.282,21.282,0,0,0,1.184-12.57c-.162-.758,1-1.081,1.163-.321" transform="translate(-132.859 4.738)" fill="#341f08"/>
          <path id="Trazado_876587" data-name="Trazado 876587" d="M298.588,42.193a23.174,23.174,0,0,1,2.459,8.743c.06.773-1.147.77-1.206,0a21.666,21.666,0,0,0-2.294-8.134c-.352-.69.688-1.3,1.041-.609" transform="translate(-164.946 8.649)" fill="#341f08"/>
          <path id="Trazado_876588" data-name="Trazado 876588" d="M296.478,41.556a19.916,19.916,0,0,1,4.366,6.852.609.609,0,0,1-.422.742.617.617,0,0,1-.742-.422,18.466,18.466,0,0,0-4.055-6.318c-.543-.555.309-1.409.853-.853" transform="translate(-162.327 8.543)" fill="#341f08"/>
          <path id="Trazado_876589" data-name="Trazado 876589" d="M307.7,52.1a10.6,10.6,0,0,0-6.65-9.5c-.718-.274-.407-1.441.321-1.163A11.838,11.838,0,0,1,308.907,52.1a.6.6,0,0,1-1.206,0" transform="translate(-176.627 8.547)" fill="#341f08"/>
          <path id="Trazado_876590" data-name="Trazado 876590" d="M304.672,46.873a9.475,9.475,0,0,0-1.766,7.645c.159.758-1,1.081-1.163.321a10.636,10.636,0,0,1,1.888-8.576.624.624,0,0,1,.825-.216.607.607,0,0,1,.216.825" transform="translate(-173.53 9.491)" fill="#341f08"/>
          <path id="Trazado_876591" data-name="Trazado 876591" d="M336.24,29c.064,8.772-5.4,16.091-11,22.319-2.941,3.272-6.032,6.431-8.679,9.955a34.065,34.065,0,0,0-5.791,11.372,52.025,52.025,0,0,0-1.5,14.943.6.6,0,0,1-1.206,0A57.392,57.392,0,0,1,309.1,74.429,33.521,33.521,0,0,1,314,62.809c4.823-7.247,11.787-12.772,16.52-20.082A25.212,25.212,0,0,0,335.034,29a.6.6,0,0,1,1.206,0" transform="translate(-212.896 5.868)" fill="#341f08"/>
          <path id="Trazado_876592" data-name="Trazado 876592" d="M264.061,48.935c1.968,4.552,3.847,9.147,5.39,13.864a44.163,44.163,0,0,1,2.563,13.6,23.143,23.143,0,0,1-1.261,7.711c-.256.727-1.421.415-1.163-.321,1.958-5.561,1.267-11.53-.235-17.111a126.278,126.278,0,0,0-6.335-17.133c-.305-.706.733-1.321,1.041-.609" transform="translate(-94.273 10.039)" fill="#341f08"/>
          <path id="Trazado_876593" data-name="Trazado 876593" d="M341.388,72.98a44.408,44.408,0,0,1-4.861,10.172c-1.808,2.789-3.968,5.57-7.212,6.712-.734.258-1.048-.907-.321-1.163,3.085-1.086,5.107-3.957,6.78-6.61a43.159,43.159,0,0,0,4.451-9.431c.244-.734,1.409-.419,1.163.321" transform="translate(-242.846 14.916)" fill="#341f08"/>
          <path id="Trazado_876594" data-name="Trazado 876594" d="M340.261,75.248a25.449,25.449,0,0,1-3.358,6.709c-1.285,1.7-3.749,4.383-6.089,2.882-.652-.417-.047-1.462.609-1.041.975.625,2.061-.048,2.816-.711a12.468,12.468,0,0,0,2.07-2.363,26.268,26.268,0,0,0,2.788-5.8c.264-.723,1.431-.41,1.163.321" transform="translate(-244.082 15.386)" fill="#341f08"/>
          <path id="Trazado_876595" data-name="Trazado 876595" d="M279.22,36.489a3.731,3.731,0,0,0-3.879.075.6.6,0,1,1-.609-1.042,4.969,4.969,0,0,1,5.1-.074.6.6,0,0,1-.609,1.041" transform="translate(-116.218 7.181)" fill="#341f08"/>
          <path id="Trazado_876596" data-name="Trazado 876596" d="M292.348,36.438a6.928,6.928,0,0,0-6.659.93.609.609,0,0,1-.826-.217.618.618,0,0,1,.217-.825,8.034,8.034,0,0,1,7.589-1.051.62.62,0,0,1,.421.742.608.608,0,0,1-.742.421" transform="translate(-141.693 7.177)" fill="#341f08"/>
          <path id="Trazado_876597" data-name="Trazado 876597" d="M284.919,57.89a6.014,6.014,0,0,1-2.764.112.608.608,0,0,1-.421-.742.619.619,0,0,1,.742-.421l.158.028c.162.025-.084-.007.043.007.091.01.181.019.273.025a5.414,5.414,0,0,0,.594.006c.092,0,.182-.011.274-.019.017,0,.2-.023.1-.011s.083-.013.1-.017a5.285,5.285,0,0,0,.579-.132.609.609,0,0,1,.742.421.615.615,0,0,1-.421.742" transform="translate(-130.234 11.708)" fill="#341f08"/>
          <path id="Trazado_876598" data-name="Trazado 876598" d="M304.372,53.489a3.151,3.151,0,0,1,.578,3.641,2.715,2.715,0,0,1-3.159,1.342,2.542,2.542,0,0,1-1.536-1.313.621.621,0,0,1,.216-.825.608.608,0,0,1,.826.216,1.8,1.8,0,0,0,.1.2c.012.021.141.193.065.1.036.042.072.083.112.122.016.016.181.16.087.088a2.294,2.294,0,0,0,.333.2c.065.029.068.031.01.006.035.013.07.027.1.037a1.978,1.978,0,0,0,.216.059c.016,0,.189.024.06.012a1.972,1.972,0,0,0,.223.01c.027,0,.249-.028.117,0,.058-.011.115-.022.171-.037a1.52,1.52,0,0,0,.595-.311,1.627,1.627,0,0,0,.467-.619c.056-.109-.01.055.029-.071.023-.075.048-.148.066-.224.006-.023.039-.247.03-.148.006-.062.01-.124.01-.187a1.806,1.806,0,0,0-.158-.818c.033.08-.046-.094-.055-.113-.034-.065-.07-.129-.109-.191-.013-.021-.134-.193-.088-.134a2.242,2.242,0,0,0-.167-.188.6.6,0,1,1,.853-.853" transform="translate(-172.462 11.008)" fill="#c2c8ef"/>
          <path id="Trazado_876599" data-name="Trazado 876599" d="M305.88,97.567l.348,17.733h-2.654l-.2-5.911-1.638-.191.3-11.632Z" transform="translate(-175.259 20.145)" fill="#f1774b"/>
          <path id="Trazado_876600" data-name="Trazado 876600" d="M310.624,69.987a150.765,150.765,0,0,0-6.993,17.247c-.246.732-1.412.419-1.163-.321a153.065,153.065,0,0,1,7.115-17.535c.335-.7,1.375-.088,1.041.609" transform="translate(-180.569 14.261)" fill="#341f08"/>
          <path id="Trazado_876601" data-name="Trazado 876601" d="M296.293,83.457a100.705,100.705,0,0,1,7.946,8.052L312.351,100c.537.561-.315,1.416-.853.853l-8.112-8.495a100.707,100.707,0,0,0-7.946-8.052c-.6-.5.261-1.348.853-.853" transform="translate(-173.718 17.201)" fill="#341f08"/>
          <path id="Trazado_876602" data-name="Trazado 876602" d="M299.337,97.9l-2.893,3.575a.6.6,0,0,1-.853,0,.62.62,0,0,1,0-.853l2.893-3.575a.6.6,0,0,1,.853,0,.621.621,0,0,1,0,.853" transform="translate(-160.924 20.001)" fill="#341f08"/>
          <path id="Trazado_876603" data-name="Trazado 876603" d="M288.847,100.562A151.279,151.279,0,0,1,301.8,129.245c.245.738-.921,1.056-1.164.321a149.72,149.72,0,0,0-12.831-28.394.6.6,0,0,1,1.041-.609" transform="translate(-153.959 20.703)" fill="#341f08"/>
          <path id="Trazado_876604" data-name="Trazado 876604" d="M271.122,74.383q2.89,9.192,5.9,18.347c.244.738-.922,1.056-1.163.32q-3.01-9.154-5.9-18.346c-.234-.742.93-1.061,1.163-.321" transform="translate(-107.717 15.272)" fill="#341f08"/>
          <path id="Trazado_876605" data-name="Trazado 876605" d="M276.876,89.916a40.443,40.443,0,0,0-5.9,7.539.6.6,0,0,1-1.042-.609,41.865,41.865,0,0,1,6.089-7.783.6.6,0,0,1,.853.853" transform="translate(-107.611 18.352)" fill="#341f08"/>
          <path id="Trazado_876606" data-name="Trazado 876606" d="M273.015,95.141a7.993,7.993,0,0,0,.723.693c.065.056.132.11.2.164.03.023.064.048.013.01l.116.086c.139.1.281.2.426.29a7.939,7.939,0,0,0,.877.481c.078.037.157.072.235.106s-.077-.029.014.006l.106.042c.169.065.34.124.513.179a.6.6,0,1,1-.321,1.163,8.642,8.642,0,0,1-3.755-2.366.6.6,0,0,1,.853-.853" transform="translate(-109.833 19.609)" fill="#341f08"/>
          <path id="Trazado_876607" data-name="Trazado 876607" d="M277.176,97.747a85.037,85.037,0,0,0-3.956,14.507c-.138.762-1.3.439-1.164-.321a85.15,85.15,0,0,1,3.957-14.507c.267-.721,1.433-.409,1.163.321" transform="translate(-110.431 20.032)" fill="#341f08"/>
          <path id="Trazado_876608" data-name="Trazado 876608" d="M298.006,116.237l-17.923,66.356L235.6,175.377l13.347-66.651Z" transform="translate(-87.253 22.449)" fill="#ecd9c5"/>
          <path id="Trazado_876609" data-name="Trazado 876609" d="M266.46,137.9l-1.83,21.356,20.638,4.633,16.987-3.87L308.9,150.9l1.5-8.227-15.351-2.47c-4.67-1.13-4.715-.937-5.214-4.4l1.5-6.537s-18.548,3.873-24.873,8.64" transform="translate(-134.67 26.69)" fill="#c7653b"/>
          <path id="Trazado_876610" data-name="Trazado 876610" d="M255.843,135.137l-6.865,20.784-3.241,5.967-11.822-2.39.763-4.478h6.292l-11.059-3.866L234.3,131.7h14.491Z" transform="translate(-38.226 27.194)" fill="#c7653b"/>
          <path id="Trazado_876611" data-name="Trazado 876611" d="M280.35,144.39c-4.641,2.156-9.757,2.14-14.768,2.02a.6.6,0,0,1,0-1.206c4.772.116,9.733.2,14.159-1.854.7-.326,1.314.714.609,1.041" transform="translate(-105.376 29.585)" fill="#341f08"/>
          <path id="Trazado_876612" data-name="Trazado 876612" d="M280.58,149.1a37.5,37.5,0,0,1-13.854,1.6c-.77-.057-.776-1.263,0-1.206a36.546,36.546,0,0,0,13.533-1.553c.743-.23,1.062.934.321,1.163" transform="translate(-107.099 30.538)" fill="#341f08"/>
          <path id="Trazado_876613" data-name="Trazado 876613" d="M285.149,152.952a29.1,29.1,0,0,1-7.679,2.249,28.229,28.229,0,0,1-7.931-.191c-.766-.115-.44-1.278.32-1.163a26.772,26.772,0,0,0,7.451.168,27.463,27.463,0,0,0,7.23-2.1c.706-.3,1.321.735.609,1.041" transform="translate(-115.129 31.354)" fill="#341f08"/>
          <path id="Trazado_876614" data-name="Trazado 876614" d="M250.945,142.125a14.6,14.6,0,0,0-8.07-3.42c-3.308-.479-6.7-.527-10.031-.724-.772-.046-.777-1.252,0-1.206,3.535.209,7.128.258,10.632.81a15.442,15.442,0,0,1,8.322,3.688c.568.532-.286,1.384-.853.853" transform="translate(-37.204 28.24)" fill="#341f08"/>
          <path id="Trazado_876615" data-name="Trazado 876615" d="M252.727,147.418c-2.2-2.067-5.15-2.875-8.065-3.295-3.384-.486-6.831-.629-10.237-.9-.769-.062-.775-1.268,0-1.206,3.592.288,7.226.442,10.79.98a15.185,15.185,0,0,1,8.366,3.571c.567.533-.287,1.385-.853.853" transform="translate(-40.897 29.322)" fill="#341f08"/>
          <path id="Trazado_876616" data-name="Trazado 876616" d="M244.668,152.723a18.124,18.124,0,0,0-8.251-1.906.6.6,0,0,1,0-1.206,19.458,19.458,0,0,1,8.86,2.072c.694.347.083,1.389-.609,1.041" transform="translate(-35.112 30.891)" fill="#341f08"/>
          <path id="Trazado_876617" data-name="Trazado 876617" d="M268.875,109.817l-3.4,10.488-19.258-2.479,1.851-11.25Z" transform="translate(-70.928 22.005)" fill="#341f08"/>
          <path id="Trazado_876618" data-name="Trazado 876618" d="M341.518,136.934a28.043,28.043,0,0,0-7.421-1.688q-4.088-.552-8.161-1.2-8.173-1.308-16.269-3.037-4.624-.986-9.219-2.108c-.754-.183-.434-1.348.321-1.163a324.213,324.213,0,0,0,32.942,6.25,31.663,31.663,0,0,1,8.416,1.905c.711.305.1,1.345-.609,1.041" transform="translate(-209.408 26.371)" fill="#341f08"/>
          <path id="Trazado_876619" data-name="Trazado 876619" d="M333.944,130.632a12.007,12.007,0,0,0-5.524-4,.618.618,0,0,1-.421-.742.608.608,0,0,1,.742-.421,13.437,13.437,0,0,1,6.245,4.55.606.606,0,0,1-.216.825.618.618,0,0,1-.825-.216" transform="translate(-235.771 25.901)" fill="#341f08"/>
          <path id="Trazado_876620" data-name="Trazado 876620" d="M332.412,107.292c-3.621,6.5-6.733,13.312-9.871,20.056q-1.146,2.461-2.271,4.932c-.321.706-1.361.093-1.042-.609,3.084-6.783,6.254-13.537,9.617-20.186.817-1.614,1.646-3.222,2.526-4.8.378-.678,1.42-.07,1.041.609" transform="translate(-222.561 21.966)" fill="#341f08"/>
          <path id="Trazado_876621" data-name="Trazado 876621" d="M305.2,136.783q-1.5,7.09-2.549,14.265-.519,3.58-.917,7.175-.2,1.764-.362,3.531-.09.957-.173,1.915c-.039.44-.2,1.156.13,1.521l-.947.123a18.923,18.923,0,0,0,1.506-9.251h1.206a35.9,35.9,0,0,1-.823,7.571.607.607,0,0,1-1.186-.16,20.345,20.345,0,0,1,.79-5.565.606.606,0,0,1,1.185.16,14.116,14.116,0,0,1-.793,4.045.606.606,0,0,1-1.185-.16,18.473,18.473,0,0,1,.606-5.056.6.6,0,0,1,1.164.321,17.179,17.179,0,0,0-.563,4.735l-1.185-.16a13.012,13.012,0,0,0,.749-3.724l1.185.16a19.094,19.094,0,0,0-.747,5.245l-1.185-.16a34.3,34.3,0,0,0,.781-7.25.6.6,0,0,1,1.206,0,20.14,20.14,0,0,1-1.671,9.859.607.607,0,0,1-.947.123,3.215,3.215,0,0,1-.458-2.67q.174-1.989.382-3.975.4-3.757.919-7.5,1.084-7.764,2.717-15.437c.16-.759,1.323-.438,1.163.321" transform="translate(-172.083 28.087)" fill="#341f08"/>
          <path id="Trazado_876622" data-name="Trazado 876622" d="M334.868,162.42c-10.124-.027-20.352-.086-30.248-2.485-.754-.183-.434-1.346.321-1.163,9.791,2.373,19.912,2.417,29.927,2.442a.6.6,0,0,1,0,1.206" transform="translate(-207.448 32.778)" fill="#341f08"/>
          <path id="Trazado_876623" data-name="Trazado 876623" d="M328.411,167.5a74.659,74.659,0,0,1-19.643,8.57.6.6,0,0,1-.321-1.164,73.455,73.455,0,0,0,19.354-8.447c.662-.411,1.268.632.609,1.041" transform="translate(-205.314 34.35)" fill="#341f08"/>
          <path id="Trazado_876624" data-name="Trazado 876624" d="M284.355,166.676q-.319,13.566-1.9,27.06c-.089.761-1.3.771-1.206,0q1.58-13.479,1.9-27.06a.6.6,0,0,1,1.206,0" transform="translate(-128.67 34.294)" fill="#341f08"/>
          <path id="Trazado_876625" data-name="Trazado 876625" d="M283.29,188.068c.258.076.519.142.782.2.142.029.285.055.428.078.06.01.122.019.183.027-.1-.013.1.011.117.013a9.57,9.57,0,0,0,1.642.031.607.607,0,0,1,.6.6.615.615,0,0,1-.6.6,10,10,0,0,1-3.473-.39.6.6,0,1,1,.321-1.163" transform="translate(-132.902 38.827)" fill="#341f08"/>
          <path id="Trazado_876626" data-name="Trazado 876626" d="M286.031,167.445a7.083,7.083,0,0,1-.4,5.44,1.509,1.509,0,0,1-.98.893,1.044,1.044,0,0,1-1.153-.665,3.206,3.206,0,0,1-.176-1.3,9.641,9.641,0,0,1,.123-1.444,9.224,9.224,0,0,1,1.106-3.121.608.608,0,0,1,1.042,0,6.313,6.313,0,0,1-.2,5.863.611.611,0,0,1-1.1-.145,7.729,7.729,0,0,1-.211-3.978.608.608,0,0,1,.582-.443.633.633,0,0,1,.582.443,4.664,4.664,0,0,1,.01,3.461.616.616,0,0,1-.5.432.6.6,0,0,1-.6-.288,3.357,3.357,0,0,1-.017-3.131.6.6,0,0,1,1.041.609,2.084,2.084,0,0,0,.017,1.913l-1.1.144a3.666,3.666,0,0,0-.01-2.82h1.163a6.476,6.476,0,0,0,.211,3.336l-1.1-.144a5.048,5.048,0,0,0,.2-4.646h1.042a8.251,8.251,0,0,0-.969,2.736,7.67,7.67,0,0,0-.1,1.32,3.372,3.372,0,0,0,.037.61c0,.01.031.166.034.115.037.065.045.075.021.029a.209.209,0,0,0-.217-.063,2.81,2.81,0,0,1,.165-.285,5.11,5.11,0,0,0,.275-.631,6.156,6.156,0,0,0,.3-1.209,5.916,5.916,0,0,0-.275-2.712c-.251-.737.914-1.053,1.163-.321" transform="translate(-133.215 34.472)" fill="#341f08"/>
          <path id="Trazado_876627" data-name="Trazado 876627" d="M300.048,190.5q-.1,1.593-.205,3.184-.288,4.385-.589,8.769-.451,6.587-.929,13.172-.594,8.2-1.227,16.4-.713,9.226-1.483,18.447-.809,9.662-1.7,19.317-.88,9.51-1.869,19.009c-.614,5.845-1.268,11.688-2,17.52-.621,4.977-1.292,9.95-2.087,14.9-.595,3.7-1.238,7.406-2.129,11.05q-.242.992-.521,1.976a.6.6,0,0,1-1.163-.321,96.8,96.8,0,0,0,2.134-9.938c.807-4.638,1.473-9.3,2.086-13.967.744-5.662,1.4-11.335,2.022-17.011q1.015-9.336,1.894-18.687.918-9.669,1.741-19.349.8-9.376,1.537-18.758.664-8.457,1.285-16.917.518-7.025,1-14.052.344-4.948.672-9.9c.1-1.55.182-3.1.3-4.652,0-.066.008-.132.012-.2.048-.771,1.255-.777,1.206,0" transform="translate(-147.841 39.214)" fill="#341f08"/>
          <path id="Trazado_876628" data-name="Trazado 876628" d="M313.82,245.217q.007,27.913-1.852,55.784-.532,7.936-1.215,15.86c-.066.769-1.273.775-1.206,0q2.392-27.81,2.921-55.738.15-7.952.146-15.906a.6.6,0,0,1,1.206,0" transform="translate(-192.277 50.511)" fill="#341f08"/>
          <path id="Trazado_876629" data-name="Trazado 876629" d="M280.662,250.518q-.509,23.655-2.622,47.237-.6,6.71-1.336,13.41c-.083.764-1.291.772-1.206,0q2.568-23.519,3.539-47.177.275-6.734.419-13.47a.6.6,0,0,1,1.206,0" transform="translate(-118.039 51.606)" fill="#341f08"/>
          <path id="Trazado_876630" data-name="Trazado 876630" d="M256.87,171.951a88.9,88.9,0,0,0,9.614,10.637c.566.533-.288,1.385-.853.853a90.821,90.821,0,0,1-9.8-10.881c-.473-.617.576-1.219,1.041-.609" transform="translate(-80.177 35.451)" fill="#341f08"/>
          <path id="Trazado_876631" data-name="Trazado 876631" d="M317.71,107.6q-6.776.136-13.551-.1c-.775-.028-.778-1.234,0-1.206q6.772.239,13.551.1a.6.6,0,0,1,0,1.206" transform="translate(-189.551 21.945)" fill="#341f08"/>
          <path id="Trazado_876632" data-name="Trazado 876632" d="M318.5,115c.27,5-.788,10.4-4.679,13.877-3.423,3.057-8.712,3.757-12.371.688-.595-.5.262-1.35.854-.854,3.358,2.818,8.258,1.761,11.157-1.155,3.279-3.3,4.074-8.083,3.832-12.556-.042-.776,1.164-.773,1.206,0" transform="translate(-186.981 23.625)" fill="#341f08"/>
          <path id="Trazado_876633" data-name="Trazado 876633" d="M317.789,111.216a57.831,57.831,0,0,0-.069,12.318c.077.772-1.129.766-1.206,0a57.831,57.831,0,0,1,.069-12.318c.086-.762,1.293-.772,1.206,0" transform="translate(-204.303 22.845)" fill="#341f08"/>
          <path id="Trazado_876634" data-name="Trazado 876634" d="M262.406,100.862a85.491,85.491,0,0,1-2.192,12.824.6.6,0,0,1-1.164-.321,83.271,83.271,0,0,0,2.15-12.5c.072-.766,1.279-.773,1.206,0" transform="translate(-79.92 20.706)" fill="#341f08"/>
          <path id="Trazado_876635" data-name="Trazado 876635" d="M260.562,102.6a16.9,16.9,0,0,1-2.046,3.9.6.6,0,0,1-1.041-.609,16.185,16.185,0,0,0,1.1-1.782,14.6,14.6,0,0,0,.824-1.83.617.617,0,0,1,.742-.421.61.61,0,0,1,.421.742" transform="translate(-76.124 21.026)" fill="#341f08"/>
          <path id="Trazado_876636" data-name="Trazado 876636" d="M323.133,110.48a12.618,12.618,0,0,1-3.646,3.083.6.6,0,1,1-.608-1.041q.492-.279.96-.6c.163-.112.325-.229.481-.351-.051.04,0,0,.019-.014l.116-.094c.077-.062.154-.125.229-.191a12.089,12.089,0,0,0,1.6-1.644.6.6,0,0,1,.853,0,.62.62,0,0,1,0,.853" transform="translate(-212.669 22.599)" fill="#341f08"/>
          <path id="Trazado_876637" data-name="Trazado 876637" d="M272.864,332.915c8.409,4.056,20.292,4.908,24.78,14.414.328.7-.712,1.311-1.041.609-4.352-9.217-16.182-10.043-24.347-13.982-.7-.337-.088-1.378.608-1.041" transform="translate(-130.806 68.725)" fill="#341f08"/>
          <path id="Trazado_876638" data-name="Trazado 876638" d="M282.72,325.071c-3.174.525-5.641,3.3-7.431,5.79-1.815,2.518-3.27,5.271-5,7.847-.431.642-1.477.039-1.042-.609,1.852-2.758,3.389-5.726,5.393-8.383,1.906-2.529,4.484-5.268,7.756-5.808.76-.125,1.086,1.036.321,1.163" transform="translate(-112.875 66.877)" fill="#341f08"/>
          <path id="Trazado_876639" data-name="Trazado 876639" d="M283.657,324.058a25.753,25.753,0,0,1,10.537,12.375c.291.719-.875,1.032-1.163.321a24.411,24.411,0,0,0-9.984-11.655.6.6,0,0,1,.609-1.041" transform="translate(-140.385 66.892)" fill="#341f08"/>
          <path id="Trazado_876640" data-name="Trazado 876640" d="M312.19,329.563a48.239,48.239,0,0,1,10.949,13.4c.376.679-.666,1.288-1.041.608a47.313,47.313,0,0,0-10.761-13.151c-.592-.5.264-1.354.853-.853" transform="translate(-203.599 68.015)" fill="#341f08"/>
          <path id="Trazado_876641" data-name="Trazado 876641" d="M272.451,339.767a1.269,1.269,0,0,1,1.476-.046.608.608,0,0,1-.3,1.124,160,160,0,0,1-29.182-2.239c-.764-.13-.44-1.293.321-1.164a158.2,158.2,0,0,0,28.861,2.2l-.3,1.123-.258.046c-.619.469-1.221-.578-.609-1.041" transform="translate(-73.599 69.672)" fill="#341f08"/>
          <path id="Trazado_876642" data-name="Trazado 876642" d="M309.512,347.257q-17.395-.966-34.754-2.488c-.766-.066-.775-1.274,0-1.206q17.357,1.52,34.754,2.488c.773.043.778,1.25,0,1.206" transform="translate(-145.886 70.937)" fill="#341f08"/>
          <path id="Trazado_876643" data-name="Trazado 876643" d="M283.264,140.637c-3.91-.057-7.935-1.9-9.3-5.8-.256-.735.91-1.051,1.164-.321,1.179,3.372,4.8,4.865,8.133,4.913a.6.6,0,0,1,0,1.206" transform="translate(-119.338 27.689)" fill="#341f08"/>
        </g>
      </g>
    </g>
  </g>
</svg>
