<svg xmlns="http://www.w3.org/2000/svg" xmlns:xlink="http://www.w3.org/1999/xlink" width="73.403" height="73.403" viewBox="0 0 73.403 73.403">
  <defs>
    <filter id="Trazado_874074" x="0" y="0" width="73.403" height="73.403" filterUnits="userSpaceOnUse">
      <feOffset dy="3" input="SourceAlpha"/>
      <feGaussianBlur stdDeviation="3" result="blur"/>
      <feFlood flood-opacity="0.161"/>
      <feComposite operator="in" in2="blur"/>
      <feComposite in="SourceGraphic"/>
    </filter>
    <clipPath id="clip-path">
      <circle id="Elipse_5074" data-name="Elipse 5074" cx="28.76" cy="28.76" r="28.76" fill="#d5eddc"/>
    </clipPath>
    <clipPath id="clip-path-2">
      <rect id="Rectángulo_34556" data-name="Rectángulo 34556" width="83.105" height="56.986" fill="#a79f92"/>
    </clipPath>
  </defs>
  <g id="Grupo_1101445" data-name="Grupo 1101445" transform="translate(-257.84 -3744.616)">
    <g id="Grupo_1101438" data-name="Grupo 1101438" transform="translate(265.781 3749.558)">
      <g transform="matrix(1, 0, 0, 1, -7.94, -4.94)" filter="url(#Trazado_874074)">
        <path id="Trazado_874074-2" data-name="Trazado 874074" d="M27.7,0A27.7,27.7,0,1,1,0,27.7,27.7,27.7,0,0,1,27.7,0Z" transform="translate(9 6)" fill="#fbf9f7"/>
      </g>
      <g id="Enmascarar_grupo_95" data-name="Enmascarar grupo 95" transform="translate(0 0)" clip-path="url(#clip-path)">
        <g id="Grupo_103038" data-name="Grupo 103038" transform="translate(3.311 -15.248)">
          <g id="Enmascarar_grupo_82" data-name="Enmascarar grupo 82" transform="matrix(0.819, -0.574, 0.574, 0.819, 0, 47.667)" clip-path="url(#clip-path-2)">
            <path id="Trazado_159232" data-name="Trazado 159232" d="M2.768,70.858l77.141-3.05A3.021,3.021,0,0,0,82.9,65.152L85.712,2.431A2.466,2.466,0,0,0,82.946,0L5.8,3.052A3.021,3.021,0,0,0,2.811,5.708L0,68.429A2.466,2.466,0,0,0,2.768,70.858Z" transform="translate(15.03 0.379) rotate(17)" fill="#a79f92"/>
          </g>
        </g>
      </g>
    </g>
    <path id="Trazado_897148" data-name="Trazado 897148" d="M22.676,0A22.676,22.676,0,1,1,0,22.676,22.676,22.676,0,0,1,22.676,0Z" transform="translate(271.865 3755.641)" fill="#fce7d5"/>
    <g id="maternidad" transform="translate(278.691 3761.564)">
      <path id="Trazado_897148-2" data-name="Trazado 897148" d="M200,27.17l1.585-1.057V24h4.227v2.113L207.4,27.17v5.283H200Z" transform="translate(-187.849 -23.472)" fill="#f7cca9"/>
      <path id="Trazado_897149" data-name="Trazado 897149" d="M73.888,99.472h-24.3c0-12.151,4.227-14.265,4.227-14.265l-1.585-3.17L48,79.925s2.113-6.868,4.755-6.868A16.375,16.375,0,0,0,58.038,72s0,2.642,3.7,2.642S65.434,72,65.434,72a16.375,16.375,0,0,0,5.283,1.057c2.642,0,4.755,6.868,4.755,6.868l-4.227,2.113-1.585,3.17S73.888,87.321,73.888,99.472Z" transform="translate(-45.887 -68.302)" fill="#ff9494"/>
      <path id="Trazado_897150" data-name="Trazado 897150" d="M170.926,74.642s0,2.113-2.642,2.113c-1.818,0-2.885-2.5-3.374-4.063A16.974,16.974,0,0,0,167.227,72S167.227,74.642,170.926,74.642Z" transform="translate(-155.076 -68.302)" fill="#ed6f6d"/>
      <path id="Trazado_897151" data-name="Trazado 897151" d="M256,74.642s0,2.113,2.642,2.113c1.818,0,2.885-2.5,3.374-4.063A16.972,16.972,0,0,1,259.7,72S259.7,74.642,256,74.642Z" transform="translate(-240.15 -68.302)" fill="#ed6f6d"/>
      <path id="Trazado_897152" data-name="Trazado 897152" d="M25.585,192S24,196.755,24,199.4s5.283,9.51,5.283,9.51l5.35,2.229a1.057,1.057,0,0,0,1.387-.583l.317-.792a1.057,1.057,0,0,0-.457-1.31l-2.9-1.657.213-.64a1.057,1.057,0,0,0-.61-1.315l-1.717-.687a22.041,22.041,0,0,0-2.642-5.283l1.585-4.755Z" transform="translate(-23.472 -180.377)" fill="#f7cca9"/>
      <path id="Trazado_897153" data-name="Trazado 897153" d="M204.909,336.385l-3.3,2.892-3.3-2.892a1.585,1.585,0,0,1-.374-1.9l.161-.321a1.585,1.585,0,0,1,2.408-.529l1.111.888,1.111-.888a1.585,1.585,0,0,1,2.408.529l.161.321A1.585,1.585,0,0,1,204.909,336.385Z" transform="translate(-185.754 -312.333)" fill="#ed6f6d"/>
      <path id="Trazado_897154" data-name="Trazado 897154" d="M202.491,192s1.585,6.34,1.585,8.981-1.057,3.17-3.17,3.17-9.51-6.34-9.51-6.34h-6.34A1.057,1.057,0,0,1,184,196.755V195.7a1.057,1.057,0,0,1,1.057-1.057h3.7l.112-.335a1.057,1.057,0,0,1,1.546-.572l1.512.907a27.8,27.8,0,0,1,7.925,3.17l-1.585-3.7Z" transform="translate(-172.905 -180.377)" fill="#f7cca9"/>
      <path id="Trazado_897155" data-name="Trazado 897155" d="M312.007,388.841a.528.528,0,0,0,.608.434,7.372,7.372,0,0,0,5.154-4.54.528.528,0,0,0-.971-.416,6.329,6.329,0,0,1-4.358,3.914A.528.528,0,0,0,312.007,388.841Z" transform="translate(-292.452 -359.696)"/>
      <path id="Trazado_897156" data-name="Trazado 897156" d="M46.1,27.495l0-.011c0-.005,0-.011,0-.017a25.709,25.709,0,0,0-1.419-3.515c-1.236-2.472-2.528-3.726-3.841-3.726a15.877,15.877,0,0,1-5.039-1l-1.3-.867V16.528A.528.528,0,0,0,33.963,16H29.736a.528.528,0,0,0-.528.528v1.831l-1.3.867a15.876,15.876,0,0,1-5.039,1c-1.312,0-2.6,1.254-3.841,3.726a25.723,25.723,0,0,0-1.417,3.508c-.084.253-1.61,4.879-1.61,7.558,0,1.2.917,3.228,2.726,6.032.243.376.487.743.722,1.09a42.456,42.456,0,0,0-.278,5.029.528.528,0,0,0,.528.528H44a.528.528,0,0,0,.528-.528,38.431,38.431,0,0,0-.556-6.868H44a4.076,4.076,0,0,0,2.725-.725A3.72,3.72,0,0,0,47.7,36.6C47.7,33.929,46.164,27.756,46.1,27.495Zm-4.776,3.5.5,1.171c-.287-.151-.579-.294-.872-.431ZM37.18,20.769c-.449,1.241-1.357,3.156-2.689,3.156s-1.823-.615-2.006-1.084a3.876,3.876,0,0,0,3.033-1.519,3.153,3.153,0,0,0,.44-.915C36.271,20.512,36.69,20.642,37.18,20.769Zm-7.151-1.688a.528.528,0,0,0,.235-.44V17.057h3.17v1.585a.528.528,0,0,0,.235.44l1.313.875a2.114,2.114,0,0,1-.33.759,3.207,3.207,0,0,1-2.8,1.1,3.247,3.247,0,0,1-2.775-1.056,2.109,2.109,0,0,1-.359-.8Zm-1.849,2.241a3.981,3.981,0,0,0,3.028,1.518,1.614,1.614,0,0,1-.158.31,2.053,2.053,0,0,1-1.842.775c-1.332,0-2.24-1.915-2.689-3.156.49-.127.909-.257,1.221-.362A3.153,3.153,0,0,0,28.181,21.322Zm-8.2,3.092c1.011-2.019,2.038-3.131,2.89-3.131a13.668,13.668,0,0,0,2.613-.276c1.133,3.27,2.64,3.975,3.727,3.975a3.036,3.036,0,0,0,2.642-1.134,3.036,3.036,0,0,0,2.642,1.134c1.087,0,2.594-.7,3.727-3.975a13.668,13.668,0,0,0,2.613.276c.852,0,1.879,1.112,2.89,3.131a24.964,24.964,0,0,1,1.22,2.94l-2.983,1.492a8.41,8.41,0,0,0-2.338-5.3.528.528,0,1,0-.748.747c.024.024,2.4,2.452,1.978,5.277l-.866,1.731a32.655,32.655,0,0,0-4.765-1.537l-1.44-.864a1.585,1.585,0,0,0-2.31.832H28.151A1.587,1.587,0,0,0,26.572,31.2a19.627,19.627,0,0,0-2.415.993L22.85,29.575c-.422-2.824,1.953-5.252,1.978-5.277a.528.528,0,1,0-.748-.747,8.407,8.407,0,0,0-2.338,5.3l-2.983-1.492a24.964,24.964,0,0,1,1.22-2.94ZM21.342,34.4l1.1-3.286.809,1.618a7.148,7.148,0,0,0-1.65,2.041c-.083-.126-.168-.25-.254-.372Zm-4.286.62a28.586,28.586,0,0,1,1.373-6.648l.37.185L21.693,30l-1.44,4.32a.528.528,0,0,0,.078.484A21.647,21.647,0,0,1,22.9,39.941a.529.529,0,0,0,.3.324l1.717.687a.529.529,0,0,1,.305.658l-.213.64a.528.528,0,0,0,.239.626l2.9,1.657a.53.53,0,0,1,.228.655l-.317.792a.528.528,0,0,1-.693.292L22.145,44.1C20.65,42.135,17.057,37,17.057,35.019Zm3.319,8.451c.594.83,1.01,1.372,1.017,1.381a.528.528,0,0,0,.216.166l3.9,1.626h-5.28C20.241,45.533,20.291,44.473,20.375,43.47ZM43.47,46.642H28.9a1.609,1.609,0,0,0,.14-.271l.317-.792a1.592,1.592,0,0,0-.685-1.965l-2.524-1.442.076-.229a1.586,1.586,0,0,0-.915-1.973l-1.493-.6a25.423,25.423,0,0,0-1.586-3.548,6,6,0,0,1,1.934-2.448.515.515,0,0,0,.051-.028,17.052,17.052,0,0,1,2.352-1.033v.062a1.587,1.587,0,0,0,1.585,1.585H34.3c.485.409,2.08,1.745,3.839,3.064a24.567,24.567,0,0,0,4.7,2.988A35.418,35.418,0,0,1,43.47,46.642Zm2.561-7.86a3.042,3.042,0,0,1-2.03.464c-.344,0-1.542-.3-5.226-3.061-2.076-1.557-3.921-3.136-3.94-3.151a.528.528,0,0,0-.344-.127h-6.34a.529.529,0,0,1-.528-.528V31.321a.529.529,0,0,1,.528-.528h3.7a.528.528,0,0,0,.5-.361l.112-.335a.528.528,0,0,1,.773-.286l1.512.907a.53.53,0,0,0,.157.063,27.4,27.4,0,0,1,7.746,3.093h0a6.728,6.728,0,0,1,1.934,1.91.528.528,0,1,0,.945-.473,7.456,7.456,0,0,0-2.16-2.225l-1.329-3.1,3.187-1.594A50.673,50.673,0,0,1,46.642,36.6,2.82,2.82,0,0,1,46.03,38.782Z" transform="translate(-16 -16)"/>
      <path id="Trazado_897157" data-name="Trazado 897157" d="M194.2,333.278a.528.528,0,0,1-.348-.131l-3.2-2.8a2.291,2.291,0,1,1,2.941-3.515l.608.487.608-.486a2.291,2.291,0,1,1,2.941,3.515h0l-3.2,2.8A.528.528,0,0,1,194.2,333.278Zm-2.038-5.892a1.236,1.236,0,0,0-.815,2.165l2.853,2.5,2.853-2.5a1.235,1.235,0,0,0-1.585-1.894l-.938.75a.528.528,0,0,1-.66,0l-.938-.75A1.229,1.229,0,0,0,192.157,327.386Z" transform="translate(-178.346 -305.805)"/>
    </g>
  </g>
</svg>
