<svg xmlns="http://www.w3.org/2000/svg" xmlns:xlink="http://www.w3.org/1999/xlink" width="505" height="266" viewBox="0 0 505 266">
  <defs>
    <clipPath id="clip-path">
      <rect id="Rectángulo_401383" data-name="Rectángulo 401383" width="505" height="266" transform="translate(915 473)" fill="#fff" stroke="#707070" stroke-width="1" opacity="0.72"/>
    </clipPath>
    <clipPath id="clip-path-2">
      <rect id="Rectángulo_401379" data-name="Rectángulo 401379" width="372.905" height="300.743" fill="none"/>
    </clipPath>
    <clipPath id="clip-path-3">
      <path id="Trazado_876262" data-name="Trazado 876262" d="M303.492,30.527V277.316H439.637V21.912Z" transform="translate(-303.492 -21.912)" fill="none"/>
    </clipPath>
    <clipPath id="clip-path-4">
      <rect id="Rectángulo_401380" data-name="Rectángulo 401380" width="123.135" height="255.404" fill="none"/>
    </clipPath>
    <clipPath id="clip-path-5">
      <rect id="Rectángulo_401381" data-name="Rectángulo 401381" width="146.628" height="176.886" fill="none"/>
    </clipPath>
    <clipPath id="clip-path-6">
      <rect id="Rectángulo_401382" data-name="Rectángulo 401382" width="126.455" height="224.759" fill="none"/>
    </clipPath>
  </defs>
  <g id="Enmascarar_grupo_1098712" data-name="Enmascarar grupo 1098712" transform="translate(-915 -473)" clip-path="url(#clip-path)">
    <g id="Grupo_1100823" data-name="Grupo 1100823" transform="translate(981.095 473)">
      <g id="Grupo_1100814" data-name="Grupo 1100814">
        <g id="Grupo_1100813" data-name="Grupo 1100813" clip-path="url(#clip-path-2)">
          <path id="Trazado_876204" data-name="Trazado 876204" d="M78.116,263.238q4.286,2.286,8.667,4.443H283.7c59.017-30.831,106.979-109.741,65.342-170.428a94.145,94.145,0,0,0-40.741-33.52c-17.765-7.463-35.2-4.028-53.817-4.42-17.99-.381-28.528-8.006-38.8-22.163-10.051-13.844-18.9-26.2-35.481-32.578C142.836-9.783,98.341,11.2,81.04,46.125,71.443,65.492,67.23,86.687,50.854,102c-13.928,13.026-32.2,21.906-41.43,39.363-24.46,53.946,25.4,98.777,68.692,121.871" transform="translate(-1.304 0)" fill="#fdda91"/>
        </g>
      </g>
      <g id="Grupo_1100816" data-name="Grupo 1100816" transform="translate(170.031 12.276)">
        <g id="Grupo_1100815" data-name="Grupo 1100815" clip-path="url(#clip-path-3)">
          <path id="Trazado_876205" data-name="Trazado 876205" d="M471.565,381.759c-.006,15.429-.734,29.48-.9,38.573-.19,10.331-1.384,29.744-2.656,48.221h-30.55c-.639-8.97-1.182-17.183-1.429-22.309-.308-6.476,3.49-25.911,3.49-25.911l-2.247-38.573Z" transform="translate(-361.77 -180.155)" fill="#ffa166"/>
          <path id="Trazado_876206" data-name="Trazado 876206" d="M472.558,381.76c-.01,10.207-.325,19.81-.594,27.769v.01c-7.355,2.471-19.7,4.374-31.8,4.727l-.278-4.737-1.616-27.769Z" transform="translate(-362.76 -180.156)" fill="#202040"/>
          <path id="Trazado_876207" data-name="Trazado 876207" d="M404.559,446.244c-.247,5.126-.79,13.34-1.434,22.309H372.58c-1.266-18.477-2.459-37.89-2.65-48.221-.168-9.1-.891-23.138-.9-38.573h34.287l-2.247,38.573s3.8,19.435,3.49,25.911" transform="translate(-332.312 -180.155)" fill="#ffa166"/>
          <path id="Trazado_876208" data-name="Trazado 876208" d="M369.027,381.76h34.289L401.7,409.529l-.278,4.746c-12.1-.362-24.435-2.266-31.8-4.727a.013.013,0,0,1,0-.019c-.27-7.968-.585-17.553-.594-27.769" transform="translate(-332.311 -180.156)" fill="#202040"/>
          <path id="Trazado_876209" data-name="Trazado 876209" d="M467.977,143.252c16.275-.361,19.668,5.459,22.427,12.448,2.552,6.465,6.124,36.06,6.564,43.113.755,12.1,1.136,21.255,1.249,38.425l-14.769-.472c-.793-1.914-7.548-22.061-7.775-29.169-.061-1.9.376-7.042.376-7.042s-9.558-29.554-10.821-41.8Z" transform="translate(-374.616 -75.265)" fill="#ffa166"/>
          <path id="Trazado_876210" data-name="Trazado 876210" d="M515.712,346.213a31.357,31.357,0,0,1,.2,4.88c-.071,6.259-.561,9.983,1.946,11.462a3.618,3.618,0,0,0,3.219-.454,5.8,5.8,0,0,0,.415-2.191Z" transform="translate(-396.816 -164.524)" fill="#202040"/>
          <path id="Trazado_876211" data-name="Trazado 876211" d="M517.671,343.038s-1.792-6.331-2.859-11.016c-1.453-6.381-2.254-14.48-3.163-17.494a24.3,24.3,0,0,0-1.46-4.238l-14.243-.933s-3.875,2.989-3.46,7.019c.1,1.01.166,2,.334,2.85a48.059,48.059,0,0,1,.439,6.909c.011,1.868.105,7.474.105,7.474a3.155,3.155,0,0,0,3.71,3.06,3.257,3.257,0,0,0,2.592-3.3s-.042-3.741-.07-4.988c-.035-1.541.482-3.307,1.615-3.447,1.007-.123,2.854.41,4.447,7.033.529,2.2,1.86,8.873,1.86,8.873a3.243,3.243,0,0,0,3.75,2.863l0,.015a5.207,5.207,0,0,0,.9,2,3.152,3.152,0,0,0,3.132,1.039,3.266,3.266,0,0,0,2.368-3.721" transform="translate(-386.589 -148.316)" fill="#ffa166"/>
          <path id="Trazado_876212" data-name="Trazado 876212" d="M525.317,354.937a2.731,2.731,0,0,0,.561-.318,2.33,2.33,0,0,0,.466-.4,1.648,1.648,0,0,0,.44-1,2.868,2.868,0,0,0-.005-.57c-.018-.209-.024-.413-.061-.625-.052-.418-.113-.84-.189-1.261-.175-.842-.321-1.692-.526-2.542l-.546-2.572c-.335-1.729-.655-3.475-.835-5.245a29.632,29.632,0,0,1-.138-5.344v-.008a.047.047,0,0,1,.049-.043.045.045,0,0,1,.042.041c.378,3.5,1.067,6.964,1.791,10.414.34,1.73.69,3.461.89,5.218a10.013,10.013,0,0,1,0,2.656,2.425,2.425,0,0,1-1.928,1.69.046.046,0,0,1-.054-.035.045.045,0,0,1,.027-.052Z" transform="translate(-400.646 -159.597)" fill="#202040"/>
          <path id="Trazado_876213" data-name="Trazado 876213" d="M357.838,142.732l-.446,15.742c-1.829,7.244-7.2,27.37-11.135,34.864-4.523,8.591-16.225,9.873-22.986,2.907-5.006-5.117-14.265-17.627-17.07-23.729l9.436-11.971c4.9,4.031,8.971,7.449,12.64,10.588,0,0,3.817-13.026,5.616-18.227,2.456-7.1,7.888-12.876,23.946-10.173" transform="translate(-304.683 -74.745)" fill="#ffa166"/>
          <path id="Trazado_876214" data-name="Trazado 876214" d="M345.6,193.892l3.223,2.189c.543.346,1.061.729,1.6,1.1.53.387,1.056.791,1.573,1.227.252.226.5.453.74.7a8.264,8.264,0,0,1,.7.754c.225.259.425.54.624.819a6.758,6.758,0,0,1,.546.87,10.805,10.805,0,0,1,1.3,3.809l0,.01a.046.046,0,0,1-.088.024,18.265,18.265,0,0,0-1.817-3.431,14.81,14.81,0,0,0-2.615-2.854c-.973-.856-2.026-1.625-3.031-2.455a24.7,24.7,0,0,1-2.83-2.7.046.046,0,0,1,.06-.068Z" transform="translate(-321.974 -97.534)" fill="#202040"/>
          <path id="Trazado_876215" data-name="Trazado 876215" d="M431.239,204.972l-.5-28.438s4.036-10.393,3.6-14.691c-1-9.854-8.152-21.516-8.152-21.516s-7.078-3.747-21.441-3.747-21.442,3.747-21.442,3.747-7.148,11.663-8.152,21.516c-.438,4.3,3.6,14.691,3.6,14.691l-.5,28.438s-16.132,27-9.491,96.738c10.2,1.032,22.614,1.632,35.988,1.632s25.787-.6,35.988-1.632c6.641-69.741-9.491-96.738-9.491-96.738" transform="translate(-331.486 -72.337)" fill="#008a92"/>
          <path id="Trazado_876216" data-name="Trazado 876216" d="M425.194,136.581a69.888,69.888,0,0,0-11.535.9c.189,6.411,6.843,9.111,11.535,9.111s11.346-2.7,11.535-9.111a69.889,69.889,0,0,0-11.535-.9" transform="translate(-351.938 -72.338)" fill="#ffa166"/>
          <path id="Trazado_876217" data-name="Trazado 876217" d="M413.874,140.246a9.041,9.041,0,0,0,4.536,5.388,13.951,13.951,0,0,0,3.322,1.267,14,14,0,0,0,7.029,0,13.968,13.968,0,0,0,3.323-1.267,9.03,9.03,0,0,0,4.534-5.391l0-.005a.046.046,0,0,1,.09.02,8.109,8.109,0,0,1-1.45,3.469,9.722,9.722,0,0,1-2.8,2.529,13.905,13.905,0,0,1-14.436,0,9.747,9.747,0,0,1-2.8-2.529,8.11,8.11,0,0,1-1.451-3.469.046.046,0,0,1,.09-.021Z" transform="translate(-351.992 -73.932)" fill="#202040"/>
          <path id="Trazado_876218" data-name="Trazado 876218" d="M387.572,200.422a45.859,45.859,0,0,0,5.451.7,41.18,41.18,0,0,0,5.373.059,42.7,42.7,0,0,0,5.34-.61c.9-.122,1.777-.341,2.679-.518s1.779-.451,2.723-.605a20.484,20.484,0,0,1-2.418,1.464,19.872,19.872,0,0,1-2.628,1.075,21.328,21.328,0,0,1-11.285.573,15.252,15.252,0,0,1-5.235-2.143" transform="translate(-340.466 -99.986)" fill="#202040"/>
          <path id="Trazado_876219" data-name="Trazado 876219" d="M464,200.422a15.25,15.25,0,0,1-5.236,2.143,21.324,21.324,0,0,1-11.284-.573,19.851,19.851,0,0,1-2.629-1.075,20.488,20.488,0,0,1-2.418-1.464c.944.154,1.819.433,2.723.605s1.781.4,2.679.518a42.7,42.7,0,0,0,5.34.61,41.182,41.182,0,0,0,5.373-.059,45.861,45.861,0,0,0,5.451-.7" transform="translate(-364.59 -99.986)" fill="#202040"/>
          <path id="Trazado_876220" data-name="Trazado 876220" d="M401.414,310.283c1.563,1.011,3.117,2.019,4.712,2.963,1.576.971,3.16,1.925,4.773,2.828,3.219,1.814,6.447,3.6,9.76,5.227,3.29,1.668,6.639,3.216,10.029,4.684.849.362,1.687.759,2.547,1.1l2.579,1.022c1.7.746,3.466,1.3,5.186,2.037l.006,0a.046.046,0,0,1,.024.06.046.046,0,0,1-.055.026c-3.559-1.062-7.1-2.185-10.551-3.574-3.467-1.335-6.856-2.869-10.181-4.524s-6.564-3.488-9.723-5.441a99.016,99.016,0,0,1-9.164-6.335.046.046,0,0,1-.008-.065.047.047,0,0,1,.062-.01Z" transform="translate(-346.52 -148.719)" fill="#202040"/>
          <path id="Trazado_876221" data-name="Trazado 876221" d="M399.264,321.534c1.431,1.128,2.857,2.25,4.328,3.311,1.451,1.086,2.912,2.155,4.408,3.173,2.983,2.044,5.978,4.065,9.076,5.923,3.072,1.9,6.211,3.683,9.4,5.385.8.421,1.584.878,2.4,1.272l2.437,1.2c1.6.862,3.28,1.544,4.9,2.4l.007,0a.046.046,0,0,1-.038.084c-3.393-1.309-6.767-2.681-10.022-4.311-3.28-1.576-6.46-3.351-9.57-5.24s-6.111-3.955-9.024-6.134a92.243,92.243,0,0,1-8.368-7,.046.046,0,0,1,.061-.07Z" transform="translate(-345.573 -153.665)" fill="#202040"/>
          <path id="Trazado_876222" data-name="Trazado 876222" d="M405.479,138.075a2.254,2.254,0,1,1-2.254-2.254,2.254,2.254,0,0,1,2.254,2.254" transform="translate(-346.359 -72.004)" fill="#ffead7"/>
          <path id="Trazado_876223" data-name="Trazado 876223" d="M405.347,138.757a1.63,1.63,0,1,1-3.261,0,1.6,1.6,0,0,1,.793-1.386,1.261,1.261,0,0,0-.3.819,1.33,1.33,0,1,0,2.659.009,1.506,1.506,0,0,1,.1.558" transform="translate(-346.849 -72.685)" fill="#e6b991"/>
          <path id="Trazado_876224" data-name="Trazado 876224" d="M404.372,146.119a2.254,2.254,0,1,1-2.254-2.254,2.254,2.254,0,0,1,2.254,2.254" transform="translate(-345.872 -75.541)" fill="#ffead7"/>
          <path id="Trazado_876225" data-name="Trazado 876225" d="M404.24,146.8a1.63,1.63,0,1,1-3.261,0,1.6,1.6,0,0,1,.793-1.386,1.262,1.262,0,0,0-.3.82,1.329,1.329,0,1,0,2.659.008,1.505,1.505,0,0,1,.1.558" transform="translate(-346.362 -76.223)" fill="#e6b991"/>
          <path id="Trazado_876226" data-name="Trazado 876226" d="M406.407,153.916a2.254,2.254,0,1,1-2.254-2.254,2.254,2.254,0,0,1,2.254,2.254" transform="translate(-346.767 -78.97)" fill="#ffead7"/>
          <path id="Trazado_876227" data-name="Trazado 876227" d="M406.275,154.6a1.63,1.63,0,1,1-3.261,0,1.6,1.6,0,0,1,.793-1.386,1.261,1.261,0,0,0-.3.819,1.329,1.329,0,1,0,2.659.009,1.506,1.506,0,0,1,.1.558" transform="translate(-347.257 -79.651)" fill="#e6b991"/>
          <path id="Trazado_876228" data-name="Trazado 876228" d="M411.673,160.078a2.254,2.254,0,1,1-2.254-2.254,2.254,2.254,0,0,1,2.254,2.254" transform="translate(-349.082 -81.68)" fill="#ffead7"/>
          <path id="Trazado_876229" data-name="Trazado 876229" d="M411.541,160.76a1.63,1.63,0,0,1-3.261,0,1.6,1.6,0,0,1,.793-1.386,1.262,1.262,0,0,0-.3.82,1.329,1.329,0,0,0,2.659.008,1.506,1.506,0,0,1,.1.558" transform="translate(-349.573 -82.361)" fill="#e6b991"/>
          <path id="Trazado_876230" data-name="Trazado 876230" d="M418.759,163.986a2.254,2.254,0,1,1-2.254-2.254,2.254,2.254,0,0,1,2.254,2.254" transform="translate(-352.198 -83.398)" fill="#ffead7"/>
          <path id="Trazado_876231" data-name="Trazado 876231" d="M418.627,164.668a1.63,1.63,0,1,1-3.261,0,1.6,1.6,0,0,1,.793-1.386,1.262,1.262,0,0,0-.3.82,1.329,1.329,0,1,0,2.659.008,1.506,1.506,0,0,1,.1.558" transform="translate(-352.689 -84.08)" fill="#e6b991"/>
          <path id="Trazado_876232" data-name="Trazado 876232" d="M426.593,166.2a2.254,2.254,0,1,1-2.254-2.254,2.254,2.254,0,0,1,2.254,2.254" transform="translate(-355.643 -84.372)" fill="#ffead7"/>
          <path id="Trazado_876233" data-name="Trazado 876233" d="M426.461,166.882a1.63,1.63,0,1,1-3.261,0,1.6,1.6,0,0,1,.793-1.386,1.261,1.261,0,0,0-.3.819,1.329,1.329,0,1,0,2.659.009,1.505,1.505,0,0,1,.1.558" transform="translate(-356.134 -85.053)" fill="#e6b991"/>
          <path id="Trazado_876234" data-name="Trazado 876234" d="M434.733,166.933a2.254,2.254,0,1,1-2.254-2.254,2.254,2.254,0,0,1,2.254,2.254" transform="translate(-359.223 -84.694)" fill="#ffead7"/>
          <path id="Trazado_876235" data-name="Trazado 876235" d="M434.6,167.615a1.63,1.63,0,1,1-3.261,0,1.6,1.6,0,0,1,.793-1.386,1.262,1.262,0,0,0-.3.82,1.329,1.329,0,1,0,2.659.008,1.506,1.506,0,0,1,.1.558" transform="translate(-359.713 -85.376)" fill="#e6b991"/>
          <path id="Trazado_876236" data-name="Trazado 876236" d="M459.479,138.075a2.254,2.254,0,1,0,2.254-2.254,2.254,2.254,0,0,0-2.254,2.254" transform="translate(-372.088 -72.004)" fill="#ffead7"/>
          <path id="Trazado_876237" data-name="Trazado 876237" d="M460.59,138.757a1.63,1.63,0,1,0,3.261,0,1.6,1.6,0,0,0-.793-1.386,1.261,1.261,0,0,1,.3.819,1.329,1.329,0,1,1-2.659.009,1.506,1.506,0,0,0-.1.558" transform="translate(-372.576 -72.685)" fill="#e6b991"/>
          <path id="Trazado_876238" data-name="Trazado 876238" d="M460.587,146.119a2.254,2.254,0,1,0,2.254-2.254,2.254,2.254,0,0,0-2.254,2.254" transform="translate(-372.575 -75.541)" fill="#ffead7"/>
          <path id="Trazado_876239" data-name="Trazado 876239" d="M461.7,146.8a1.63,1.63,0,1,0,3.261,0,1.6,1.6,0,0,0-.793-1.386,1.262,1.262,0,0,1,.3.82,1.329,1.329,0,1,1-2.659.008,1.5,1.5,0,0,0-.1.558" transform="translate(-373.063 -76.223)" fill="#e6b991"/>
          <path id="Trazado_876240" data-name="Trazado 876240" d="M458.552,153.916a2.254,2.254,0,1,0,2.253-2.254,2.254,2.254,0,0,0-2.253,2.254" transform="translate(-371.68 -78.97)" fill="#ffead7"/>
          <path id="Trazado_876241" data-name="Trazado 876241" d="M459.662,154.6a1.63,1.63,0,1,0,3.261,0,1.6,1.6,0,0,0-.793-1.386,1.261,1.261,0,0,1,.3.819,1.329,1.329,0,0,1-2.659.009,1.5,1.5,0,0,0-.1.558" transform="translate(-372.168 -79.651)" fill="#e6b991"/>
          <path id="Trazado_876242" data-name="Trazado 876242" d="M453.286,160.078a2.254,2.254,0,1,0,2.254-2.254,2.254,2.254,0,0,0-2.254,2.254" transform="translate(-369.364 -81.68)" fill="#ffead7"/>
          <path id="Trazado_876243" data-name="Trazado 876243" d="M454.4,160.76a1.63,1.63,0,1,0,3.261,0,1.6,1.6,0,0,0-.793-1.386,1.262,1.262,0,0,1,.3.82,1.329,1.329,0,0,1-2.659.008,1.506,1.506,0,0,0-.1.558" transform="translate(-369.853 -82.361)" fill="#e6b991"/>
          <path id="Trazado_876244" data-name="Trazado 876244" d="M446.2,163.986a2.254,2.254,0,1,0,2.254-2.254,2.254,2.254,0,0,0-2.254,2.254" transform="translate(-366.248 -83.398)" fill="#ffead7"/>
          <path id="Trazado_876245" data-name="Trazado 876245" d="M447.311,164.668a1.63,1.63,0,1,0,3.261,0,1.6,1.6,0,0,0-.793-1.386,1.262,1.262,0,0,1,.3.82,1.329,1.329,0,1,1-2.659.008,1.505,1.505,0,0,0-.1.558" transform="translate(-366.737 -84.08)" fill="#e6b991"/>
          <path id="Trazado_876246" data-name="Trazado 876246" d="M438.366,166.2a2.254,2.254,0,1,0,2.254-2.254,2.254,2.254,0,0,0-2.254,2.254" transform="translate(-362.803 -84.372)" fill="#ffead7"/>
          <path id="Trazado_876247" data-name="Trazado 876247" d="M439.477,166.882a1.63,1.63,0,1,0,3.261,0,1.6,1.6,0,0,0-.793-1.386,1.261,1.261,0,0,1,.3.819,1.329,1.329,0,1,1-2.659.009,1.505,1.505,0,0,0-.1.558" transform="translate(-363.292 -85.053)" fill="#e6b991"/>
          <path id="Trazado_876248" data-name="Trazado 876248" d="M438.162,90.5c-.455-3.122-2.937-5.409-4.768-7.939-2.282-3.153-4.057-10.748-4.263-16.528l-37.5,3.95c1,5.7.849,13.495-.725,17.053-1.265,2.857-3.215,5.61-3.01,8.758a10.288,10.288,0,0,0,5.723,8.885c-.133-2.317-.254-5.428-.254-5.428l1.608,5.285,3.8-.4c-.113-2.03-.072-4.034-.072-4.034l1.147,3.921,28.341-2.986.3-4.074s.458,1.951.77,3.96l3.8-.4.472-5.5s.53,3.067.883,5.361a10.286,10.286,0,0,0,3.746-9.882" transform="translate(-340.602 -41.314)" fill="#202040"/>
          <path id="Trazado_876249" data-name="Trazado 876249" d="M436.132,130.885H418.615l.644-8.666h16.229Z" transform="translate(-354.118 -66.022)" fill="#ffa166"/>
          <path id="Trazado_876250" data-name="Trazado 876250" d="M436.276,128.1a17.781,17.781,0,0,1-16.866-3.3l.195-2.591h16.234Z" transform="translate(-354.467 -66.02)" fill="#202040"/>
          <path id="Trazado_876251" data-name="Trazado 876251" d="M383.063,90.192c3.2,2.768,7.772,2.728,10.209-.091s1.819-7.348-1.382-10.116-7.772-2.728-10.209.091-1.819,7.348,1.382,10.116" transform="translate(-337.221 -46.548)" fill="#ffa166"/>
          <path id="Trazado_876252" data-name="Trazado 876252" d="M386.28,85.671s5.947-1.222,7.393,4.939Z" transform="translate(-339.898 -49.907)" fill="#202040"/>
          <path id="Trazado_876253" data-name="Trazado 876253" d="M466.341,81.286c-2.554,3.374-7.033,4.287-10,2.039s-3.311-6.808-.756-10.182,7.033-4.287,10-2.039,3.31,6.808.756,10.182" transform="translate(-369.619 -43.002)" fill="#ffa166"/>
          <path id="Trazado_876254" data-name="Trazado 876254" d="M467.393,76.691s-6.07.044-6.2,6.371Z" transform="translate(-372.841 -46.001)" fill="#202040"/>
          <path id="Trazado_876255" data-name="Trazado 876255" d="M417.446,88.494h0a17.981,17.981,0,0,1-19.708-15.951l-1.6-15.178A17.928,17.928,0,1,1,431.8,53.609l1.6,15.177a17.981,17.981,0,0,1-15.951,19.708" transform="translate(-344.19 -28.793)" fill="#ffa166"/>
          <path id="Trazado_876256" data-name="Trazado 876256" d="M432.871,80.782c.2.518.4,1,.569,1.471s.37.909.562,1.328a8.755,8.755,0,0,0,.669,1.14,5.43,5.43,0,0,0,.847.913l.155.143a.675.675,0,0,1,.038.955l0,0a7.392,7.392,0,0,1-.539.512c-.182.169-.371.331-.572.485a7.806,7.806,0,0,1-1.284.856l-.017.008a.044.044,0,0,1-.055-.067l1.829-2.31.02.113a4.483,4.483,0,0,1-1.164-1.067,5.816,5.816,0,0,1-.714-1.4,8.8,8.8,0,0,1-.433-3.088.044.044,0,0,1,.085-.015Z" transform="translate(-360.343 -47.779)" fill="#202040"/>
          <path id="Trazado_876257" data-name="Trazado 876257" d="M432.482,98.6a7.514,7.514,0,0,1-11.752,1.238Z" transform="translate(-355.048 -55.637)" fill="#fff"/>
          <path id="Trazado_876258" data-name="Trazado 876258" d="M411.561,82.387a4.359,4.359,0,0,1,.393-2.662,2.47,2.47,0,0,1,.97-.988,3.012,3.012,0,0,1,1.337-.357,2.758,2.758,0,0,1,1.354.294,3.2,3.2,0,0,1,1.055.884,5.7,5.7,0,0,1,1.075,2.47l-.137.026a13.378,13.378,0,0,0-1.788-1.806,2.218,2.218,0,0,0-1.508-.478,2.781,2.781,0,0,0-.75.137,1.674,1.674,0,0,0-.63.371,7.149,7.149,0,0,0-1.234,2.091Z" transform="translate(-350.993 -46.743)" fill="#202040"/>
          <path id="Trazado_876259" data-name="Trazado 876259" d="M442.505,79.094a7.163,7.163,0,0,0-1.642-1.789,1.672,1.672,0,0,0-.694-.231,2.754,2.754,0,0,0-.762.022,2.22,2.22,0,0,0-1.375.782,13.4,13.4,0,0,0-1.371,2.139l-.139,0a5.7,5.7,0,0,1,.537-2.639,3.2,3.2,0,0,1,.848-1.084,2.755,2.755,0,0,1,1.263-.57,3.008,3.008,0,0,1,1.382.071,2.463,2.463,0,0,1,1.154.764,4.354,4.354,0,0,1,.939,2.522Z" transform="translate(-361.991 -45.557)" fill="#202040"/>
          <path id="Trazado_876260" data-name="Trazado 876260" d="M411.238,35.987c-10.344,1.09-18.073,8.394-16.774,20.725.26,2.475,2.033,10.432,2.033,10.432a105.21,105.21,0,0,0,.3-12.52,57.351,57.351,0,0,1,2.831-6.173c-.463,1.751-.347,5.816-.035,8.454l2.931-.309c.007-.785.878-6.826.878-6.826l1.358,6.59,2.4-.253a31.751,31.751,0,0,1,.8-5.605l1.026,5.413,12.054-1.27-.124-5.508a31.759,31.759,0,0,1,1.95,5.316l4.111-.433c-.245-2.645-.979-6.645-1.8-8.261a57.2,57.2,0,0,1,4.055,5.448,105.262,105.262,0,0,0,2.907,12.183s.075-8.152-.185-10.627c-1.3-12.331-10.38-17.864-20.725-16.774" transform="translate(-343.434 -28.042)" fill="#202040"/>
          <path id="Trazado_876261" data-name="Trazado 876261" d="M418.914,54.153c-3.313.975-13.541,2.661-14.32,2.76a6.509,6.509,0,0,1,.3-1.78Z" transform="translate(-347.952 -36.09)" fill="#fff"/>
        </g>
      </g>
      <path id="Trazado_876263" data-name="Trazado 876263" d="M190.355,288.249,188.4,394.439h33.306l1.523-31.452,1.523,31.452H258.07l-1.954-106.189Z" transform="translate(-82.85 -126.758)" fill="#ba8842"/>
      <g id="Grupo_1100818" data-name="Grupo 1100818" transform="translate(78.815 12.276)">
        <g id="Grupo_1100817" data-name="Grupo 1100817" clip-path="url(#clip-path-4)">
          <path id="Trazado_876264" data-name="Trazado 876264" d="M234.324,320.006l9.114,1.263h-.04l9.114-1.263.02.138a19.365,19.365,0,0,1-2.192.9c-.739.246-1.479.483-2.226.672-.743.219-1.5.354-2.247.528-.753.149-1.511.264-2.267.4a1.041,1.041,0,0,1-.354,0l-.009,0c-.756-.131-1.513-.25-2.267-.394-.749-.176-1.5-.308-2.247-.528-.747-.189-1.487-.426-2.226-.672a19.436,19.436,0,0,1-2.192-.908Z" transform="translate(-181.85 -152.999)" fill="#202040"/>
          <path id="Trazado_876265" data-name="Trazado 876265" d="M250.721,322.505l-.043,13.886-.1,13.886-.148,13.886c-.039,4.629-.114,9.258-.4,13.886-.29-4.629-.365-9.258-.4-13.886l-.147-13.886-.1-13.886-.043-13.886Z" transform="translate(-188.457 -154.098)" fill="#202040"/>
          <path id="Trazado_876266" data-name="Trazado 876266" d="M218.346,378.837l-1.659,44.2-1.8,44.2a.07.07,0,0,1-.139,0v0l-.07-2.769-.026-2.768-.048-5.536.1-11.063c0-3.689.172-7.371.263-11.057l.325-11.054.537-11.046.269-5.523.139-2.762.189-2.759.762-11.037.482-5.515.243-2.757.287-2.756v0a.07.07,0,0,1,.139.01" transform="translate(-173.188 -178.839)" fill="#202040"/>
          <path id="Trazado_876267" data-name="Trazado 876267" d="M283.3,467.239l-1.8-44.2-1.659-44.2a.07.07,0,0,1,.067-.072.07.07,0,0,1,.072.062v0l.286,2.756.243,2.757.481,5.515.761,11.037c.286,3.677.4,7.362.6,11.043l.539,11.046.327,11.054.162,5.527.077,2.764.027,2.765.1,11.063-.05,5.536-.026,2.768-.071,2.769v0a.07.07,0,0,1-.139,0" transform="translate(-201.876 -178.839)" fill="#202040"/>
          <path id="Trazado_876268" data-name="Trazado 876268" d="M191.847,288.251l-.046,2.517c8.172,2.5,19.636,4.337,32.926,4.337s24.755-1.84,32.927-4.337l-.046-2.517Z" transform="translate(-163.159 -139.035)" fill="#202040"/>
          <path id="Trazado_876269" data-name="Trazado 876269" d="M316.294,231.223l-16.723-.159c-1.682-5.7-4.711-17.144-5.373-22.972-.224-1.878.578-11.861.578-11.861s-3.344-18.935-6.806-30.813l-3.028-13.279-6.814-16.991c17.82,1.452,30.042,3.474,34.1,23.133a59.913,59.913,0,0,1,1.949,8.977c2.392,16.6,3.753,43.154,2.121,63.964" transform="translate(-201.122 -71.708)" fill="#005c95"/>
          <path id="Trazado_876270" data-name="Trazado 876270" d="M310.033,329.7c-.069,1.076-.131,1.848-.131,1.848-.082.847-.523,4.118,2.56,4.042a3.789,3.789,0,0,0,3.831-3.37l.549-5.609c.031-.393.166-2.1.968-2.224,1.265-.2,1.038,5.963.954,8.181-.067,2.4-.232,8.742-.232,8.742a3.679,3.679,0,0,0,3.247,4.217v.015a4.676,4.676,0,0,0,.063,1.133,5.167,5.167,0,0,0,.339,1.306,3.581,3.581,0,0,0,3.007,2.05,3.686,3.686,0,0,0,3.782-3.328l.253-2.433s2.49-7.722,2.794-10.362c.629-5.464-2.136-20.872-2.136-20.872l-15.894-.926a38.544,38.544,0,0,0-4.033,9.89c-.346,1.329.225,5.655.078,7.7" transform="translate(-215.065 -149.526)" fill="#ffa166"/>
          <path id="Trazado_876271" data-name="Trazado 876271" d="M334.813,337.9l.633,8.227v.024c-.124,1.038-.23,2.079-.369,3.116l-.4,3.112-.2,1.558a3.434,3.434,0,0,1-.634,1.468,3.829,3.829,0,0,1-2.714,1.518.067.067,0,0,1-.032-.128l.016-.007a3.87,3.87,0,0,0,2.071-1.861,2.855,2.855,0,0,0,.275-1.137c.009-.47.005-1.039.044-1.549l.092-1.572.157-1.565c.045-.523.113-1.042.193-1.56l.229-1.556-.007.23-.022-2.067c.022-.691.032-1.38.066-2.072s.082-1.384.166-2.08c.065-.694.174-1.391.306-2.09l0-.017a.066.066,0,0,1,.078-.053.068.068,0,0,1,.055.06" transform="translate(-224.395 -160.84)" fill="#202040"/>
          <path id="Trazado_876272" data-name="Trazado 876272" d="M344.256,337.774l.649,8.226v.019l-.379,4.761c-.137,1.587-.276,3.173-.461,4.755a.066.066,0,0,1-.073.058.067.067,0,0,1-.058-.052l0-.021c-.167-.817-.247-1.62-.336-2.424-.064-.8-.123-1.6-.139-2.4-.045-.8-.006-1.592-.013-2.389.025-.794.071-1.588.106-2.379v.167c-.026-.687-.072-1.374-.082-2.062.014-.69-.011-1.378.047-2.071.029-.691.1-1.386.188-2.081a16.275,16.275,0,0,1,.418-2.1l.007-.023a.066.066,0,0,1,.129.013" transform="translate(-229.84 -160.786)" fill="#202040"/>
          <path id="Trazado_876273" data-name="Trazado 876273" d="M332.774,313.409c-5.855,1.748-12.975,1.249-16.516-.269.174-.331.359-.678.555-1.031l15.894.924s.022.129.067.375" transform="translate(-217.89 -149.527)" fill="#202040"/>
          <path id="Trazado_876274" data-name="Trazado 876274" d="M313.37,295.732l.586,9.294a43.128,43.128,0,0,0,18.065.375l.417-10.659a76.851,76.851,0,0,1-19.068.989" transform="translate(-216.62 -141.89)" fill="#ffead7"/>
          <path id="Trazado_876275" data-name="Trazado 876275" d="M318.638,303.483a1.7,1.7,0,0,0,1.479,1.7,1.414,1.414,0,0,0,1.246-1.672,1.7,1.7,0,0,0-1.479-1.7,1.414,1.414,0,0,0-1.246,1.672" transform="translate(-218.934 -144.998)" fill="#202040"/>
          <path id="Trazado_876276" data-name="Trazado 876276" d="M154.332,231.223l16.723-.159c1.682-5.7,4.711-17.144,5.373-22.972.224-1.878-.578-11.861-.578-11.861s3.344-18.935,6.806-30.813l3.028-13.279,6.814-16.991c-17.82,1.452-30.042,3.474-34.1,23.133a59.913,59.913,0,0,0-1.949,8.977c-2.392,16.6-3.753,43.154-2.121,63.964" transform="translate(-146.368 -71.708)" fill="#005c95"/>
          <path id="Trazado_876277" data-name="Trazado 876277" d="M173.625,329.7c.069,1.076.131,1.848.131,1.848.082.847.523,4.118-2.56,4.042a3.789,3.789,0,0,1-3.831-3.37l-.549-5.609c-.031-.393-.166-2.1-.968-2.224-1.265-.2-1.038,5.963-.954,8.181.067,2.4.232,8.742.232,8.742a3.68,3.68,0,0,1-3.248,4.217v.015a4.678,4.678,0,0,1-.063,1.133,5.166,5.166,0,0,1-.339,1.306,3.581,3.581,0,0,1-3.007,2.05,3.686,3.686,0,0,1-3.782-3.328l-.253-2.433s-2.49-7.722-2.795-10.362c-.629-5.464,2.136-20.872,2.136-20.872l15.894-.926A38.544,38.544,0,0,1,173.7,322c.346,1.329-.225,5.655-.078,7.7" transform="translate(-145.458 -149.526)" fill="#ffa166"/>
          <path id="Trazado_876278" data-name="Trazado 876278" d="M162.19,337.908l-.531,8.234v-.024c.129,1.038.278,2.074.392,3.114l.36,3.118.182,1.556a3.253,3.253,0,0,0,.582,1.392,3.667,3.667,0,0,0,2.586,1.487.067.067,0,0,1,.059.073.068.068,0,0,1-.054.058l-.021,0a3.612,3.612,0,0,1-3.23-1.145,3.689,3.689,0,0,1-.94-1.723c-.127-.567-.252-1.038-.341-1.565l-.289-1.542-.223-1.55c-.082-.515-.141-1.034-.187-1.554l-.152-1.559-.009-.091a.648.648,0,0,1,0-.14l.269-2.049c.119-.681.226-1.363.357-2.043s.276-1.359.457-2.035c.161-.678.366-1.353.6-2.026l.006-.016a.067.067,0,0,1,.13.026" transform="translate(-149.337 -160.84)" fill="#202040"/>
          <path id="Trazado_876279" data-name="Trazado 876279" d="M155.013,337.784l-.514,8.235V346c.2,3.176.394,6.355.7,9.52a.067.067,0,0,1-.06.073.066.066,0,0,1-.067-.039l-.008-.019a17.389,17.389,0,0,1-.8-2.328c-.2-.784-.391-1.57-.53-2.359-.169-.787-.249-1.582-.371-2.372-.09-.794-.155-1.587-.227-2.384v-.008a.893.893,0,0,1,0-.16c.071-.684.123-1.37.21-2.053.111-.682.183-1.366.338-2.044.126-.68.3-1.357.479-2.034a16.264,16.264,0,0,1,.709-2.018l.01-.022a.066.066,0,0,1,.126.031" transform="translate(-146.158 -160.786)" fill="#202040"/>
          <path id="Trazado_876280" data-name="Trazado 876280" d="M155.406,313.409c5.855,1.748,12.975,1.249,16.516-.269-.174-.331-.359-.678-.555-1.031l-15.894.924s-.022.129-.067.375" transform="translate(-147.155 -149.527)" fill="#202040"/>
          <path id="Trazado_876281" data-name="Trazado 876281" d="M172.806,295.732l-.586,9.294a43.128,43.128,0,0,1-18.065.375l-.417-10.659a76.851,76.851,0,0,0,19.068.989" transform="translate(-146.421 -141.89)" fill="#ffead7"/>
          <path id="Trazado_876282" data-name="Trazado 876282" d="M180.36,303.483a1.7,1.7,0,0,1-1.479,1.7,1.414,1.414,0,0,1-1.246-1.672,1.7,1.7,0,0,1,1.478-1.7,1.414,1.414,0,0,1,1.246,1.672" transform="translate(-156.928 -144.998)" fill="#202040"/>
          <path id="Trazado_876283" data-name="Trazado 876283" d="M191.516,284.966l-.291,4.3a192.039,192.039,0,0,0,33.249,2.554,192.042,192.042,0,0,0,33.249-2.554l-.291-4.3Z" transform="translate(-162.906 -137.59)" fill="#004066"/>
          <path id="Trazado_876284" data-name="Trazado 876284" d="M257.7,208.8c-.115-1.158-.468-2.991-.9-4.964a94.274,94.274,0,0,1-2.2-20.6l.141-25.2c0-14.442-1.142-20-14.924-24.323-4.5-1.412-15.435-1.83-15.435-1.83s-10.931.418-15.435,1.83c-13.782,4.328-14.924,9.882-14.924,24.323l.141,25.2a94.272,94.272,0,0,1-2.2,20.6c-.43,1.973-.783,3.806-.9,4.964a81.135,81.135,0,0,0,.364,8.849,198.6,198.6,0,0,0,32.957,2.442,198.592,198.592,0,0,0,32.957-2.442,81.3,81.3,0,0,0,.364-8.849" transform="translate(-162.81 -70.269)" fill="#005c95"/>
          <path id="Trazado_876285" data-name="Trazado 876285" d="M195.839,176.18l.12,14.272.027,14.272a.046.046,0,0,1-.092.006v-.006q-.476-3.565-.651-7.133c-.138-2.378-.184-4.756-.212-7.135l.023-3.569c.038-1.189.046-2.379.113-3.568q.136-3.568.579-7.139v-.005a.046.046,0,0,1,.052-.041.047.047,0,0,1,.04.045" transform="translate(-164.58 -89.732)" fill="#202040"/>
          <path id="Trazado_876286" data-name="Trazado 876286" d="M304.65,176.18q.442,3.57.579,7.139c.068,1.189.075,2.379.113,3.568l.023,3.568c-.028,2.379-.074,4.757-.212,7.135q-.174,3.567-.65,7.133v.006a.046.046,0,0,1-.092-.006l.027-14.272.12-14.272a.046.046,0,0,1,.092-.005Z" transform="translate(-212.679 -89.731)" fill="#202040"/>
          <path id="Trazado_876287" data-name="Trazado 876287" d="M251.847,135.275h-32.8c-.975.065-1.932.148-2.87.223a21.5,21.5,0,0,0,38.542,0c-.938-.075-1.894-.158-2.87-.223" transform="translate(-173.877 -71.764)" fill="#004066"/>
          <path id="Trazado_876288" data-name="Trazado 876288" d="M237.7,131.877a73.076,73.076,0,0,0-16.4,1.9,18.862,18.862,0,0,0,32.8,0,73.076,73.076,0,0,0-16.4-1.9" transform="translate(-176.13 -70.269)" fill="#ffead7"/>
          <path id="Trazado_876289" data-name="Trazado 876289" d="M213.435,257.1c3.556.795,7.136,1.487,10.726,2.113s7.2,1.165,10.814,1.6,7.25.746,10.89.874c1.82.054,3.642.056,5.46-.036a32.836,32.836,0,0,0,5.408-.671l-.011.133a55.123,55.123,0,0,0-7.808-2.425,27.089,27.089,0,0,0-8.107-.785.047.047,0,0,1-.05-.043.049.049,0,0,1,.041-.05,18.754,18.754,0,0,1,2.055-.181c.689-.017,1.378.012,2.067.054a37.043,37.043,0,0,1,4.1.523c1.354.264,2.693.595,4.021.966s2.636.784,3.953,1.268a.648.648,0,0,1-.056,1.234l-.049.013a29.06,29.06,0,0,1-5.522.787c-1.847.114-3.691.132-5.531.1a96.884,96.884,0,0,1-10.964-.922q-2.724-.355-5.432-.8-2.7-.485-5.386-1.042c-1.789-.369-3.577-.745-5.348-1.2s-3.544-.887-5.294-1.42a.046.046,0,0,1-.035-.056.049.049,0,0,1,.055-.034" transform="translate(-172.648 -125.335)" fill="#202040"/>
          <path id="Trazado_876290" data-name="Trazado 876290" d="M254.84,204.378c-1.6-.113-3.187-.263-4.782-.333l-2.382-.16-2.384-.111c-3.177-.124-6.349-.221-9.52-.206-3.172-.034-6.339.094-9.509.245l-2.38.129-2.374.22c-1.6.06-3.164.347-4.774.441h-.008a.047.047,0,0,1-.049-.044.046.046,0,0,1,.038-.048l2.356-.443,1.178-.221,1.187-.171,2.374-.338,2.385-.244,1.193-.119,1.2-.079c.8-.049,1.594-.114,2.393-.15,1.6-.052,3.2-.122,4.794-.108,3.2.009,6.394.137,9.579.413s6.361.658,9.507,1.233a.046.046,0,0,1-.011.092Z" transform="translate(-174.099 -101.387)" fill="#202040"/>
          <path id="Trazado_876291" data-name="Trazado 876291" d="M306.267,248.255a45.575,45.575,0,0,1,1.535,4.981c.226.831.385,1.669.619,2.515.2.848.375,1.7.535,2.57.067.436.129.875.177,1.327a10.7,10.7,0,0,1,.05,1.382c-.036.892-.082,1.764-.194,2.632a34.561,34.561,0,0,1-.962,5.149l0,.007a.046.046,0,0,1-.091-.015c.138-1.723.252-3.449.326-5.175a20.931,20.931,0,0,0-.22-5.152c-.273-1.7-.68-3.386-.957-5.1l-.908-5.111a.046.046,0,0,1,.088-.024Z" transform="translate(-213.455 -121.429)" fill="#202040"/>
          <path id="Trazado_876292" data-name="Trazado 876292" d="M190.751,268.811a34.139,34.139,0,0,1-.967-5.15c-.114-.868-.157-1.74-.194-2.632a11.584,11.584,0,0,1,.053-1.378c.047-.453.106-.893.175-1.329.162-.868.335-1.724.539-2.572.223-.849.426-1.676.664-2.505.44-1.663.935-3.321,1.484-4.988l0-.008a.046.046,0,0,1,.058-.029.047.047,0,0,1,.031.05q-.36,2.571-.861,5.12c-.334,1.7-.729,3.382-1,5.087a21.186,21.186,0,0,0-.217,5.153c.074,1.727.189,3.452.328,5.175a.046.046,0,0,1-.09.016Z" transform="translate(-162.186 -121.43)" fill="#202040"/>
          <path id="Trazado_876293" data-name="Trazado 876293" d="M241.107,125.387c-3.015,0-12.05.517-12.05.517l-.008,5.523h24.116l-.008-5.523s-9.035-.517-12.05-.517" transform="translate(-179.539 -67.415)" fill="#202040"/>
          <path id="Trazado_876294" data-name="Trazado 876294" d="M252.456,126.408l-8.758,8.461-8.758-8.461.644-8.666h16.229Z" transform="translate(-182.129 -64.053)" fill="#ffa166"/>
          <path id="Trazado_876295" data-name="Trazado 876295" d="M252.6,123.625a17.78,17.78,0,0,1-16.866-3.3l.195-2.591h16.234Z" transform="translate(-182.479 -64.051)" fill="#202040"/>
          <path id="Trazado_876296" data-name="Trazado 876296" d="M264.212,138.98l-2.207.9-1.277-4.24Z" transform="translate(-193.471 -71.924)" fill="#202040"/>
          <path id="Trazado_876297" data-name="Trazado 876297" d="M257.539,139.879l-6.967,2.861,5.69-7.1Z" transform="translate(-189.004 -71.924)" fill="#facba0"/>
          <path id="Trazado_876298" data-name="Trazado 876298" d="M267.089,126.309l-6.36,5.225,7.542,7.245.515-8.438Z" transform="translate(-193.471 -67.821)" fill="#ffead7"/>
          <path id="Trazado_876299" data-name="Trazado 876299" d="M260.726,135.58a13.752,13.752,0,0,1,2.238,1.445,24.807,24.807,0,0,1,1.984,1.708,25.143,25.143,0,0,1,1.785,1.916,13.9,13.9,0,0,1,1.535,2.176l.006.01a.038.038,0,0,1-.059.045l-3.8-3.6-3.745-3.65a.038.038,0,0,1,.043-.061Z" transform="translate(-193.441 -71.894)" fill="#202040"/>
          <path id="Trazado_876300" data-name="Trazado 876300" d="M234.2,138.98l2.207.9,1.277-4.24Z" transform="translate(-181.803 -71.924)" fill="#202040"/>
          <path id="Trazado_876301" data-name="Trazado 876301" d="M238.136,139.879l6.967,2.861-5.69-7.1Z" transform="translate(-183.535 -71.924)" fill="#facba0"/>
          <path id="Trazado_876302" data-name="Trazado 876302" d="M227.73,126.31l6.36,5.225-7.542,7.245-.515-8.438Z" transform="translate(-178.213 -67.821)" fill="#ffead7"/>
          <path id="Trazado_876303" data-name="Trazado 876303" d="M234.492,135.634a13.73,13.73,0,0,1-1.533,2.178,24.814,24.814,0,0,1-1.787,1.914,25.242,25.242,0,0,1-1.986,1.707,13.9,13.9,0,0,1-2.237,1.446l-.01.005a.037.037,0,0,1-.05-.016.038.038,0,0,1,.007-.044l3.745-3.651,3.8-3.6a.038.038,0,0,1,.053,0,.038.038,0,0,1,.006.044Z" transform="translate(-178.588 -71.892)" fill="#202040"/>
          <path id="Trazado_876304" data-name="Trazado 876304" d="M203.135,81.056c2.893,3.089,7.443,3.527,10.163.979s2.579-7.117-.314-10.2-7.443-3.527-10.163-.979-2.579,7.116.314,10.2" transform="translate(-167.147 -42.704)" fill="#ffa166"/>
          <path id="Trazado_876305" data-name="Trazado 876305" d="M207.344,76.469s6.042-.592,6.835,5.687Z" transform="translate(-169.994 -45.897)" fill="#202040"/>
          <path id="Trazado_876306" data-name="Trazado 876306" d="M286.723,81.056c-2.893,3.089-7.443,3.527-10.163.979s-2.579-7.117.314-10.2,7.443-3.527,10.163-.979,2.579,7.116-.314,10.2" transform="translate(-199.574 -42.704)" fill="#ffa166"/>
          <path id="Trazado_876307" data-name="Trazado 876307" d="M288.435,76.469s-6.042-.592-6.835,5.687Z" transform="translate(-202.649 -45.897)" fill="#202040"/>
          <path id="Trazado_876308" data-name="Trazado 876308" d="M236.5,83.874h0a17.981,17.981,0,0,1-17.928-17.929V50.685a17.928,17.928,0,1,1,35.856,0V65.946A17.981,17.981,0,0,1,236.5,83.874" transform="translate(-174.932 -26.681)" fill="#ffa166"/>
          <path id="Trazado_876309" data-name="Trazado 876309" d="M253.912,76.41c.149.536.289,1.039.412,1.523s.272.943.419,1.38a8.769,8.769,0,0,0,.546,1.2,5.441,5.441,0,0,0,.747,1l.139.159a.677.677,0,0,1-.062.955l0,0c-.187.161-.386.308-.589.452s-.4.291-.62.422a7.811,7.811,0,0,1-1.366.717l-.018.007a.044.044,0,0,1-.058-.025.045.045,0,0,1,.01-.048l2.062-2.1.007.114a4.485,4.485,0,0,1-1.045-1.182,5.851,5.851,0,0,1-.564-1.47,8.809,8.809,0,0,1-.107-3.117.044.044,0,0,1,.05-.038.045.045,0,0,1,.036.032Z" transform="translate(-190.272 -45.854)" fill="#202040"/>
          <path id="Trazado_876310" data-name="Trazado 876310" d="M250.987,96.4a7.514,7.514,0,0,1-11.732-1.413Z" transform="translate(-184.027 -54.049)" fill="#fff"/>
          <path id="Trazado_876311" data-name="Trazado 876311" d="M237.986,71.087v4.046a1.341,1.341,0,1,1-2.682,0V71.087Z" transform="translate(-182.29 -43.537)" fill="#202040"/>
          <path id="Trazado_876312" data-name="Trazado 876312" d="M237.794,72.719a3.817,3.817,0,0,0-1.652-1.263,6.338,6.338,0,0,0-2.048-.477A6.964,6.964,0,0,0,232,71.16a3.8,3.8,0,0,0-1.816.992l.012-.069.718,1.84a.047.047,0,0,1-.078.049l-.012-.013a7.966,7.966,0,0,1-.663-.8c-.208-.271-.387-.554-.571-.835a.41.41,0,0,1,0-.457l.107-.157a3.616,3.616,0,0,1,.929-.907,5.294,5.294,0,0,1,1.129-.54,6.84,6.84,0,0,1,1.2-.239,6.758,6.758,0,0,1,1.205.02,5.506,5.506,0,0,1,2.256.779,3.212,3.212,0,0,1,1.455,1.84l0,.016a.047.047,0,0,1-.085.038" transform="translate(-179.748 -43.062)" fill="#202040"/>
          <path id="Trazado_876313" data-name="Trazado 876313" d="M261.053,71.087v4.046a1.341,1.341,0,0,0,2.682,0V71.087Z" transform="translate(-193.613 -43.537)" fill="#202040"/>
          <path id="Trazado_876314" data-name="Trazado 876314" d="M256.711,72.665a3.213,3.213,0,0,1,1.454-1.84,5.509,5.509,0,0,1,2.256-.779,6.757,6.757,0,0,1,1.205-.02,6.844,6.844,0,0,1,1.2.239,5.285,5.285,0,0,1,1.129.54,3.626,3.626,0,0,1,.929.907l.107.157a.412.412,0,0,1,0,.457c-.184.281-.364.564-.571.835a8.042,8.042,0,0,1-.663.8l-.012.013a.047.047,0,0,1-.078-.049l.717-1.84.013.069a3.8,3.8,0,0,0-1.816-.992,6.962,6.962,0,0,0-2.092-.182,6.334,6.334,0,0,0-2.048.477,3.814,3.814,0,0,0-1.652,1.263.047.047,0,0,1-.085-.038Z" transform="translate(-191.702 -43.062)" fill="#202040"/>
          <path id="Trazado_876315" data-name="Trazado 876315" d="M254.628,49.955c0-12.4-8.46-18.857-18.857-18.857s-18.858,6.461-18.858,18.857a44.722,44.722,0,0,0,.929,6.87c2.678-9.07,5.89-13.723,5.89-13.723s-.439,3.512-.435,5.016c3.557-2.635,6.6-9.077,6.6-9.077l-1.7,6c2.88-1.289,6.548-4.283,7.57-6.911,1.022,2.628,4.69,5.622,7.57,6.911l-1.7-6s3.044,6.442,6.6,9.077c0-1.5-.435-5.016-.435-5.016s3.213,4.653,5.891,13.723a44.747,44.747,0,0,0,.929-6.87" transform="translate(-174.202 -25.952)" fill="#202040"/>
        </g>
      </g>
      <g id="Grupo_1100820" data-name="Grupo 1100820" transform="translate(226.277 90.798)">
        <g id="Grupo_1100819" data-name="Grupo 1100819" clip-path="url(#clip-path-5)">
          <path id="Trazado_876316" data-name="Trazado 876316" d="M487.907,362.661s-7.241,47.745-8.328,74.76c11.377,2.879,25.332,3.606,33.792,3.577,9.463-.034,26.43-.7,37.807-3.577-1.087-27.015-8.328-74.76-8.328-74.76Z" transform="translate(-437.173 -250.279)" fill="#5e6a9b"/>
          <path id="Trazado_876317" data-name="Trazado 876317" d="M494.364,434.544c.041-2.944.184-5.88.273-8.82l.439-8.808c.124-2.937.366-5.866.548-8.8l.589-8.8.73-8.786c.255-2.928.457-5.86.771-8.782l.878-8.775c.35-2.921.645-5.845,1.043-8.762a.046.046,0,0,1,.05-.043.048.048,0,0,1,.043.05l-2.589,35.168-2.682,35.161a.047.047,0,0,1-.05.043.05.05,0,0,1-.043-.05" transform="translate(-443.674 -250.943)" fill="#202040"/>
          <path id="Trazado_876318" data-name="Trazado 876318" d="M504.346,464.551a1.371,1.371,0,1,1,.106.006c-.034,0-.072-.006-.106-.006" transform="translate(-447.493 -293.854)" fill="#202040"/>
          <path id="Trazado_876319" data-name="Trazado 876319" d="M505.7,446.506a1.378,1.378,0,1,1,.106.006.7.7,0,0,1-.106-.006" transform="translate(-448.087 -285.921)" fill="#202040"/>
          <path id="Trazado_876320" data-name="Trazado 876320" d="M507.05,428.465a1.378,1.378,0,1,1,.106.006.709.709,0,0,1-.106-.006" transform="translate(-448.685 -277.987)" fill="#202040"/>
          <path id="Trazado_876321" data-name="Trazado 876321" d="M508.407,410.421a1.371,1.371,0,1,1,.106.006c-.039,0-.072-.006-.106-.006" transform="translate(-449.279 -270.05)" fill="#202040"/>
          <path id="Trazado_876322" data-name="Trazado 876322" d="M509.756,392.381a1.458,1.458,0,1,1,.106,0Z" transform="translate(-449.872 -262.117)" fill="#202040"/>
          <path id="Trazado_876323" data-name="Trazado 876323" d="M511.111,374.342a1.458,1.458,0,1,1,.106,0Z" transform="translate(-450.468 -254.184)" fill="#202040"/>
          <path id="Trazado_876324" data-name="Trazado 876324" d="M494.447,362.663c2.261.444,4.536.808,6.818,1.107q3.42.473,6.861.766c4.587.393,9.191.563,13.792.547,4.6.017,9.206-.154,13.792-.546q3.44-.294,6.862-.766c2.282-.3,4.557-.662,6.818-1.107a64.778,64.778,0,0,1-6.688,2c-2.268.524-4.558.966-6.863,1.287-2.3.362-4.623.549-6.944.741-2.322.156-4.65.211-6.977.245-2.327-.029-4.654-.091-6.977-.24-2.32-.194-4.641-.376-6.943-.74-2.306-.322-4.6-.763-6.863-1.287-1.131-.287-2.254-.6-3.372-.918l-1.67-.5Z" transform="translate(-443.711 -250.279)" fill="#202040"/>
          <path id="Trazado_876325" data-name="Trazado 876325" d="M424.005,272.66c1.467,9.705,4.318,24.546,7.012,28.6,4.263,6.446,11.386,7.477,18.445,5.665,5.4-1.393,12.77-5.349,17.3-8.563l10.544-30.1c-11.26-.787-15.838,2.663-20.626,6.386-3.429,2.666-6.5,5.214-7.749,5.911-.213.12-1.151.687-2.257,1.337-1.7-2.591-2.368-3.705-4.142-6.241-1.281-1.829-2.833-4.328-4.29-6.352Z" transform="translate(-412.734 -208.719)" fill="#ffa166"/>
          <path id="Trazado_876326" data-name="Trazado 876326" d="M464.48,292.627a24.162,24.162,0,0,1,1.554,2.451,23.5,23.5,0,0,1,1.26,2.617,17.274,17.274,0,0,1,.807,2.793,10.847,10.847,0,0,1,.136,2.9.045.045,0,0,1-.089.007l0-.017c-.241-.988-.484-1.871-.76-2.751-.174-.434-.28-.875-.465-1.3-.144-.434-.319-.864-.49-1.291s-.335-.864-.518-1.294c-.159-.44-.357-.865-.52-1.311-.352-.881-.695-1.777-.987-2.747l-.005-.016a.045.045,0,0,1,.03-.056.044.044,0,0,1,.049.016" transform="translate(-430.497 -219.473)" fill="#202040"/>
          <path id="Trazado_876327" data-name="Trazado 876327" d="M472.673,278.449c12.175,3.239,13.4,20.869,13.4,20.869l9.029-5.052,4.374-27.122c-14.993-.415-19.722,4.917-26.806,11.3" transform="translate(-434.136 -208.265)" fill="#e37d77"/>
          <path id="Trazado_876328" data-name="Trazado 876328" d="M409.729,231.264a2.355,2.355,0,0,1,3.192.919l4.115,7.462c.114-.1.232-.191.346-.287l-4.45-12.055a2.349,2.349,0,1,1,4.407-1.626l4.344,11.757c.038-.007.069-.016.106-.024l.3-.04-1.718-12.88a2.347,2.347,0,0,1,4.653-.623l1.76,13.165c.15.02.294.032.443.053l.3-8.561a2.347,2.347,0,1,1,4.691.159l-.371,10.739c.069.064.134.142.2.206a27.468,27.468,0,0,1,2.72-4.554,2.346,2.346,0,1,1,3.716,2.865,31.7,31.7,0,0,0-3.883,9.238c-.923,4.045-3.73,6.915-7.667,7.458l-2.729.373a8.84,8.84,0,0,1-9.9-10.585l-5.5-9.969a2.348,2.348,0,0,1,.919-3.192" transform="translate(-405.923 -188.349)" fill="#ffa166"/>
          <path id="Trazado_876329" data-name="Trazado 876329" d="M436.281,262.582a5.73,5.73,0,0,1-.09-2.774,6.128,6.128,0,0,1,.479-1.373,6.469,6.469,0,0,1,.839-1.205,4.061,4.061,0,0,1,.519-.519,4.221,4.221,0,0,1,.565-.462,8.617,8.617,0,0,1,1.249-.72,7.753,7.753,0,0,1,2.762-.666l-.364.224c.278-.3.551-.612.847-.9s.6-.58.919-.854l.008-.007a.042.042,0,0,1,.063.055l-1.357,2.034a.057.057,0,0,1-.038.025h0a9.041,9.041,0,0,0-2.473.826,7.793,7.793,0,0,0-2.1,1.533,7,7,0,0,0-.8,1.024,6.617,6.617,0,0,0-.541,1.185,6.392,6.392,0,0,0-.311,1.268c-.073.43-.056.871-.089,1.307a.043.043,0,0,1-.084.008Z" transform="translate(-418.035 -202.192)" fill="#202040"/>
          <path id="Trazado_876330" data-name="Trazado 876330" d="M614.786,358.149c-1.682-20.373-6.4-27.954-6.4-27.954s-2.894-22-5.3-27.722l-21.63,5.683c1.993,9.819,9.586,28.011,9.586,28.011s.537,9.977,10.163,25.688Z" transform="translate(-481.972 -223.811)" fill="#ffa166"/>
          <path id="Trazado_876331" data-name="Trazado 876331" d="M603.718,304.307c-6.807,5.524-17,9.737-20.343,11.065-.812-2.616-1.5-5.109-1.927-7.216l21.631-5.687c.207.5.42,1.115.639,1.838" transform="translate(-481.97 -223.809)" fill="#202040"/>
          <path id="Trazado_876332" data-name="Trazado 876332" d="M598.188,286.48c-8.882,6.394-22.654,10.564-22.654,10.564l-9.1-29.894c23.646-.554,27.989,12.839,31.755,19.33" transform="translate(-475.367 -208.27)" fill="#e37d77"/>
          <path id="Trazado_876333" data-name="Trazado 876333" d="M637.693,431.785a20.055,20.055,0,0,1,.9,3.727c.842,4.843.918,7.809,3.509,8.474a4.2,4.2,0,0,0,2.983-.96c.286-.4.075-1.769.075-1.769Z" transform="translate(-506.704 -280.676)" fill="#202040"/>
          <path id="Trazado_876334" data-name="Trazado 876334" d="M639.766,426.369s-2.618-4.545-4.308-7.958c-.97-1.957-1.875-4.172-2.695-6.241-1.126-2.843-4.61-10.319-4.61-10.319l-13.86,2.646s-3.236,3.04-2.258,6.071a21.52,21.52,0,0,0,.731,2.136,30.759,30.759,0,0,1,1.42,5.248c.282,1.439,1.185,5.746,1.185,5.746a2.193,2.193,0,0,0,.991,1.392,3.423,3.423,0,0,0,2.968.266,2.768,2.768,0,0,0,1.976-3.038s-.583-2.879-.792-3.835c-.257-1.182-.024-2.643,1.03-2.965.936-.286,2.763-.224,5.234,4.584.822,1.6,3.051,6.493,3.051,6.493a3.021,3.021,0,0,0,3.968,1.5l0,.011a3.722,3.722,0,0,0,1.143,1.375,3.447,3.447,0,0,0,3.118.208,2.64,2.64,0,0,0,1.7-3.319" transform="translate(-495.339 -267.512)" fill="#ffa166"/>
          <path id="Trazado_876335" data-name="Trazado 876335" d="M648.109,436.663a2.348,2.348,0,0,0,1.453-1.373,2.194,2.194,0,0,0-.032-1.021,9.44,9.44,0,0,0-.273-1.015,37.015,37.015,0,0,0-1.64-3.9,69.7,69.7,0,0,1-3.184-7.861.046.046,0,0,1,.083-.038l.005.009c.747,1.241,1.406,2.48,2.057,3.725s1.276,2.5,1.883,3.777a22.773,22.773,0,0,1,1.5,4.064,8.587,8.587,0,0,1,.191,1.118c.007.2.02.383.021.589a1.915,1.915,0,0,1-.132.684,2.016,2.016,0,0,1-.831.946,2.806,2.806,0,0,1-1.065.38h-.006a.046.046,0,0,1-.025-.089" transform="translate(-509.666 -276.126)" fill="#202040"/>
          <path id="Trazado_876336" data-name="Trazado 876336" d="M545.326,262.444H528.154l.631-7.53H544.7Z" transform="translate(-458.534 -202.897)" fill="#ffa166"/>
          <path id="Trazado_876337" data-name="Trazado 876337" d="M545.509,259.073a17.39,17.39,0,0,1-16.3-3.674l.04-.489h15.912Z" transform="translate(-458.997 -202.895)" fill="#202040"/>
          <path id="Trazado_876338" data-name="Trazado 876338" d="M505.533,210.929a6.82,6.82,0,0,0-2.912-.355,5.611,5.611,0,0,0-2.725,1.036,5.467,5.467,0,0,0-1.8,2.284,6.02,6.02,0,0,0-.436,2.882,7.529,7.529,0,0,0,2.687,5.078,7.052,7.052,0,0,0,5.462,1.661.112.112,0,0,1,.126.091A17.321,17.321,0,0,0,522.947,237.9a.056.056,0,0,1,.006.111h-.006a16.425,16.425,0,0,1-6.116-.611,17.917,17.917,0,0,1-5.55-2.9,17.12,17.12,0,0,1-4.207-4.734,18.064,18.064,0,0,1-2.239-5.967l1.135.821a8.08,8.08,0,0,1-6.3-1.966,8.256,8.256,0,0,1-2.873-5.813,6.817,6.817,0,0,1,.629-3.237,6.047,6.047,0,0,1,2.125-2.476,6.288,6.288,0,0,1,6.02-.309l.006,0a.056.056,0,0,1-.043.1" transform="translate(-444.741 -183.235)" fill="#202040"/>
          <path id="Trazado_876339" data-name="Trazado 876339" d="M500.212,221.5c2.639,2.817,6.789,3.217,9.27.894s2.352-6.491-.287-9.309-6.789-3.217-9.27-.892-2.352,6.49.287,9.307" transform="translate(-445.338 -183.446)" fill="#ffa166"/>
          <path id="Trazado_876340" data-name="Trazado 876340" d="M504.051,217.32s5.511-.54,6.234,5.187Z" transform="translate(-447.934 -186.359)" fill="#202040"/>
          <path id="Trazado_876341" data-name="Trazado 876341" d="M576.453,221.5c-2.639,2.817-6.789,3.217-9.27.894s-2.352-6.491.287-9.309,6.789-3.217,9.27-.892,2.352,6.49-.287,9.307" transform="translate(-474.914 -183.446)" fill="#ffa166"/>
          <path id="Trazado_876342" data-name="Trazado 876342" d="M578.015,217.32s-5.511-.54-6.234,5.187Z" transform="translate(-477.718 -186.359)" fill="#202040"/>
          <path id="Trazado_876343" data-name="Trazado 876343" d="M529.826,223.288h0a17.4,17.4,0,0,1-17.4-17.4v-11.65a17.4,17.4,0,1,1,34.791,0v11.65a17.4,17.4,0,0,1-17.4,17.4" transform="translate(-451.619 -168.567)" fill="#ffa166"/>
          <path id="Trazado_876344" data-name="Trazado 876344" d="M581.865,179.21c.106,1.652-.162,3.018.53,4.579,1.2,2.705,4.908,3.21,7.49,3.318a17.242,17.242,0,0,1-10.7,4.709c-4.094.148-7.528-2.457-9.618-5.833-1.657-2.677-2.815-6.363-2.03-9.537a7.1,7.1,0,0,1,6.906-5.343,6.809,6.809,0,0,1,4.739,2.01,9.509,9.509,0,0,1,2.685,6.1" transform="translate(-475.741 -166.041)" fill="#202040"/>
          <path id="Trazado_876345" data-name="Trazado 876345" d="M487.353,179.21c-.106,1.652.162,3.018-.53,4.579-1.2,2.705-4.908,3.21-7.49,3.318a17.242,17.242,0,0,0,10.7,4.709c4.094.148,7.528-2.457,9.618-5.833,1.657-2.677,2.815-6.363,2.03-9.537a7.1,7.1,0,0,0-6.906-5.343,6.809,6.809,0,0,0-4.739,2.01,9.509,9.509,0,0,0-2.685,6.1" transform="translate(-437.064 -166.041)" fill="#202040"/>
          <path id="Trazado_876346" data-name="Trazado 876346" d="M529.072,175.189c-12.921,0-18.913,9.556-18.314,20.295.082,1.476.918,5.911.918,5.911a18.518,18.518,0,0,0,2.242-6.2c9.331-1.32,17.949-5.062,21-9.328a23.5,23.5,0,0,1,8.754,6.228c.225,1.56,1.1,6.944,2.8,9.3,0,0,.845-4.429.928-5.9.609-10.738-5.4-20.3-18.325-20.3" transform="translate(-450.866 -167.837)" fill="#202040"/>
          <path id="Trazado_876347" data-name="Trazado 876347" d="M566.881,183.861a9.162,9.162,0,0,1,2.291,2.027,12.161,12.161,0,0,1,1.63,2.607,12.987,12.987,0,0,1,.937,2.919,10.6,10.6,0,0,1,.167,3.045v.008a.034.034,0,0,1-.037.031.035.035,0,0,1-.031-.029,20.2,20.2,0,0,0-1.667-5.683,16.651,16.651,0,0,0-3.339-4.876.034.034,0,0,1,.043-.053Z" transform="translate(-475.538 -171.647)" fill="#fff"/>
          <path id="Trazado_876348" data-name="Trazado 876348" d="M511.043,194.459a10.638,10.638,0,0,1,.173-3.045,13.025,13.025,0,0,1,.939-2.919,12.211,12.211,0,0,1,1.631-2.607,9.156,9.156,0,0,1,2.291-2.028l.007,0a.034.034,0,0,1,.047.011.034.034,0,0,1-.005.043,16.552,16.552,0,0,0-3.339,4.876,20.544,20.544,0,0,0-1.675,5.683.034.034,0,0,1-.039.029.035.035,0,0,1-.029-.031Z" transform="translate(-450.991 -171.647)" fill="#fff"/>
          <path id="Trazado_876349" data-name="Trazado 876349" d="M531.962,192.461c-3.829.721-15.53,1.623-16.418,1.663a5.911,5.911,0,0,1,.5-1.753Z" transform="translate(-452.988 -175.393)" fill="#fff"/>
          <path id="Trazado_876350" data-name="Trazado 876350" d="M565.308,194.127a45.387,45.387,0,0,1-8.208-1.709l7.709-.045a5.707,5.707,0,0,1,.5,1.754" transform="translate(-471.263 -175.394)" fill="#fff"/>
          <path id="Trazado_876351" data-name="Trazado 876351" d="M529.372,195.717l2.06,5.616a1.006,1.006,0,0,0,1.287.6l2.442-.9a1,1,0,0,0,.6-1.287l-2.06-5.617a1,1,0,0,0-1.287-.6l-2.442.9a1,1,0,0,0-.6,1.287m2.673-.359a.39.39,0,0,1,.5.233l1.389,3.786a.39.39,0,0,1-.229.5l-.616.226a.39.39,0,0,1-.5-.233l-1.389-3.786a.391.391,0,0,1,.232-.5Z" transform="translate(-459.042 -175.877)" fill="#529cbf"/>
          <path id="Trazado_876352" data-name="Trazado 876352" d="M545.815,220.547c.191.278.341.514.514.721a7.086,7.086,0,0,0,.5.566,12.407,12.407,0,0,0,1.044.957l.051.044a.809.809,0,0,1,.09,1.141.85.85,0,0,1-.11.106,4.9,4.9,0,0,1-.565.4,4.584,4.584,0,0,1-.611.343,4.85,4.85,0,0,1-.669.275,3.808,3.808,0,0,1-.757.17l-.027,0a.043.043,0,0,1-.047-.038.044.044,0,0,1,.014-.036c.675-.622,1.377-1.21,2.066-1.815l0,.141a4.347,4.347,0,0,1-1.148-1.3,3.2,3.2,0,0,1-.438-1.671.043.043,0,0,1,.044-.041.042.042,0,0,1,.034.018Z" transform="translate(-466.04 -187.766)" fill="#202040"/>
          <path id="Trazado_876353" data-name="Trazado 876353" d="M544.592,233.914a5.831,5.831,0,0,1-10.372,0,.045.045,0,0,1,.02-.061.045.045,0,0,1,.053.008l.01.01a8.408,8.408,0,0,0,2.441,1.729,6.42,6.42,0,0,0,2.663.568,5.461,5.461,0,0,0,1.347-.143,6.522,6.522,0,0,0,1.314-.427,8.445,8.445,0,0,0,2.442-1.727l.01-.01a.046.046,0,0,1,.065,0,.046.046,0,0,1,.008.053" transform="translate(-461.199 -193.633)" fill="#202040"/>
          <path id="Trazado_876354" data-name="Trazado 876354" d="M530.866,219.167h0a1.408,1.408,0,0,0,1.408-1.408v-3.614a1.408,1.408,0,1,0-2.816,0v3.614a1.408,1.408,0,0,0,1.408,1.408" transform="translate(-459.107 -184.35)" fill="#202040"/>
          <path id="Trazado_876355" data-name="Trazado 876355" d="M531.451,214.168A3.824,3.824,0,0,0,529.8,212.9a6.344,6.344,0,0,0-2.049-.48,6.807,6.807,0,0,0-2.093.189,3.805,3.805,0,0,0-1.814.993l.016-.067.984,3.35a.045.045,0,0,1-.031.056.045.045,0,0,1-.051-.018l-.007-.011a16.59,16.59,0,0,1-.87-1.561l-.375-.8c-.128-.266-.23-.538-.347-.807a.522.522,0,0,1,.056-.511l.087-.12a3.392,3.392,0,0,1,.974-.872,4.194,4.194,0,0,1,1.142-.505,5.98,5.98,0,0,1,2.393-.19,7.539,7.539,0,0,1,1.161.267,5.825,5.825,0,0,1,1.076.511,3.282,3.282,0,0,1,1.475,1.79l0,.013a.046.046,0,0,1-.032.056.045.045,0,0,1-.049-.018" transform="translate(-456.32 -183.808)" fill="#202040"/>
          <path id="Trazado_876356" data-name="Trazado 876356" d="M553.883,219.167h0a1.408,1.408,0,0,1-1.408-1.408v-3.614a1.408,1.408,0,0,1,2.816,0v3.614a1.408,1.408,0,0,1-1.409,1.408" transform="translate(-469.229 -184.35)" fill="#202040"/>
          <path id="Trazado_876357" data-name="Trazado 876357" d="M548.828,214.116a3.278,3.278,0,0,1,1.475-1.79,5.861,5.861,0,0,1,1.076-.511,7.475,7.475,0,0,1,1.161-.267,5.97,5.97,0,0,1,2.393.19,4.175,4.175,0,0,1,1.142.505,3.389,3.389,0,0,1,.974.872l.086.119a.522.522,0,0,1,.057.512c-.117.268-.219.542-.346.807l-.375.8a16.649,16.649,0,0,1-.87,1.561l-.007.011a.046.046,0,0,1-.082-.038l.985-3.349.015.067a3.8,3.8,0,0,0-1.814-.993,6.807,6.807,0,0,0-2.093-.189,6.344,6.344,0,0,0-2.049.48,3.816,3.816,0,0,0-1.652,1.266.046.046,0,0,1-.063.011.046.046,0,0,1-.018-.049Z" transform="translate(-467.623 -183.808)" fill="#202040"/>
          <path id="Trazado_876358" data-name="Trazado 876358" d="M547.375,307.022c.148-4.337.972-12.88,1.291-17.209,1.114-15.135-8.2-21.746-15.307-23.255-3.079-.654-9.714-.767-12.862-.771s-9.783.117-12.862.771c-7.109,1.509-16.421,8.121-15.307,23.255.319,4.33,1.142,12.872,1.291,17.209.077,2.233-2.152,4.861-2.4,8.559-.079,1.179.77,2.964,1.806,4.48a146.18,146.18,0,0,0,54.944,0c1.035-1.515,1.884-3.3,1.806-4.48-.248-3.7-2.477-6.327-2.4-8.559" transform="translate(-442.29 -207.678)" fill="#e37d77"/>
          <path id="Trazado_876359" data-name="Trazado 876359" d="M546.644,266.548a13.721,13.721,0,0,1-25.16-.083,92.365,92.365,0,0,1,12.324-.678c3.14,0,9.743.12,12.835.761" transform="translate(-455.6 -207.678)" fill="#ffa166"/>
          <path id="Trazado_876360" data-name="Trazado 876360" d="M522.251,268.662a14.481,14.481,0,0,0,8.638,6.074,13.838,13.838,0,0,0,3.486.427,14.382,14.382,0,0,0,6.78-1.681,14.852,14.852,0,0,0,5.349-4.82l0,0a.046.046,0,0,1,.064-.013.047.047,0,0,1,.016.059,13.228,13.228,0,0,1-5.06,5.406,14,14,0,0,1-7.156,1.982,14.173,14.173,0,0,1-7.159-1.975,12.966,12.966,0,0,1-5.047-5.413.046.046,0,0,1,.021-.062.045.045,0,0,1,.059.016Z" transform="translate(-455.899 -208.931)" fill="#202040"/>
          <path id="Trazado_876361" data-name="Trazado 876361" d="M530.917,294.973c-3.149-10.961-16.846-6.069-15.967,3.41.863,9.31,9.45,11.118,15.967,19.494,6.517-8.376,15.1-10.184,15.967-19.494.878-9.479-12.818-14.37-15.967-3.41" transform="translate(-452.71 -217.758)" fill="#d65b54"/>
          <path id="Trazado_876362" data-name="Trazado 876362" d="M521.181,338.559c2.021.7,4.05,1.277,6.069,1.851,2.026.55,4.053,1.075,6.1,1.478,2.043.44,4.1.8,6.183,1.08,2.079.306,4.174.5,6.308.742h.008a.046.046,0,0,1,0,.092,50.82,50.82,0,0,1-6.373-.108,49.436,49.436,0,0,1-6.313-.9,51.4,51.4,0,0,1-6.148-1.694,42.547,42.547,0,0,1-5.88-2.463.046.046,0,0,1,.036-.084Z" transform="translate(-455.437 -239.677)" fill="#202040"/>
        </g>
      </g>
      <g id="Grupo_1100822" data-name="Grupo 1100822" transform="translate(0 42.925)">
        <g id="Grupo_1100821" data-name="Grupo 1100821" clip-path="url(#clip-path-6)">
          <path id="Trazado_876363" data-name="Trazado 876363" d="M186.523,316.622l-15.894-.93c-.79-1.91-5.6-23.4-6.465-30.9-.218-1.882.157-9.266.157-9.266s-4.336-11.485-7.743-22.909l24.875-3.995c1.5,8.729,2.74,18.27,2.986,22.247.756,12.1,1.972,28.584,2.084,45.756" transform="translate(-68.855 -152.255)" fill="#ffa166"/>
          <path id="Trazado_876364" data-name="Trazado 876364" d="M184.316,269.3c-1.625.594-11.345,4.017-20.55,4.74-1.272-3.462-4.516-12.466-7.188-21.424l24.875-3.995c1.328,7.731,2.454,16.1,2.863,20.679" transform="translate(-68.855 -152.255)" fill="#202040"/>
          <path id="Trazado_876365" data-name="Trazado 876365" d="M147.993,207.921l.01.13c1.216,11.776,9.612,36.245,10.56,38.678,14.061-.817,22.819-3.538,22.819-3.538-.92-9.12-2.779-26.363-5.446-35.441-4.74-16.139-24.471-16.212-24.471-16.212Z" transform="translate(-65.08 -127.154)" fill="#e37d77"/>
          <path id="Trazado_876366" data-name="Trazado 876366" d="M174.448,385.932c-.069,1.076-.131,1.848-.131,1.848-.082.847-.523,4.118,2.56,4.042a3.789,3.789,0,0,0,3.831-3.37l.55-5.609c.031-.394.166-2.1.968-2.225,1.265-.2,1.038,5.963.954,8.181-.067,2.4-1.913,8.742-1.913,8.742a3.68,3.68,0,0,0,3.248,4.217v.015a3.335,3.335,0,0,0,3.336,4.174,3.286,3.286,0,0,0,3.053-2.154,18.453,18.453,0,0,0,1.054-3.293s4.17-7.723,4.475-10.362c.629-5.464-2.136-20.872-2.136-20.872l-15.894-.926a38.545,38.545,0,0,0-4.033,9.89c-.346,1.329.225,5.655.078,7.7" transform="translate(-76.626 -204.904)" fill="#ffa166"/>
          <path id="Trazado_876367" data-name="Trazado 876367" d="M198.466,394.138c.184.685.343,1.371.458,2.057.134.685.219,1.371.318,2.057s.145,1.372.217,2.057l.129,2.057a.715.715,0,0,1-.018.214l-.024.1c-.128.535-.272,1.052-.413,1.575s-.29,1.044-.469,1.556l-.535,1.542c-.2.508-.417,1.013-.642,1.52a11.981,11.981,0,0,1-.8,1.516l-.422.674c-.157.238-.333.486-.526.723a3.875,3.875,0,0,1-1.463,1.152,3.118,3.118,0,0,1-1.743.217l-.02,0a.068.068,0,0,1-.055-.077.067.067,0,0,1,.059-.055,3.324,3.324,0,0,0,2.526-1.668c.277-.448.477-.943.717-1.427s.424-.974.612-1.473c.368-1,.7-2.02,1.009-3.042s.631-2.044.921-3.073l0,.032.03-8.231a.067.067,0,0,1,.132-.017Z" transform="translate(-84.634 -216.218)" fill="#202040"/>
          <path id="Trazado_876368" data-name="Trazado 876368" d="M208.3,394.014a16.172,16.172,0,0,1,.57,2.056c.135.686.261,1.371.339,2.057.109.686.134,1.371.2,2.057.04.686.045,1.371.069,2.058a.969.969,0,0,1-.025.253l0,.013c-.2.806-.391,1.6-.612,2.4-.252.787-.465,1.583-.77,2.357-.275.782-.6,1.55-.949,2.312a14.92,14.92,0,0,1-1.253,2.209l-.012.016a.066.066,0,0,1-.093.015.068.068,0,0,1-.024-.075c.5-1.555.9-3.146,1.289-4.736s.749-3.189,1.095-4.79l0,.03.046-8.231a.066.066,0,0,1,.128-.023Z" transform="translate(-90.473 -216.164)" fill="#202040"/>
          <path id="Trazado_876369" data-name="Trazado 876369" d="M15.718,316.622l15.894-.93c.79-1.91,5.6-23.4,6.465-30.9.219-1.882-.157-9.266-.157-9.266s4.336-11.485,7.743-22.909l-24.875-3.995c-1.5,8.729-2.74,18.27-2.986,22.247-.756,12.1-1.972,28.584-2.084,45.756" transform="translate(-6.912 -152.255)" fill="#ffa166"/>
          <path id="Trazado_876370" data-name="Trazado 876370" d="M19.658,269.3c1.625.594,11.345,4.017,20.55,4.74,1.272-3.462,4.516-12.466,7.188-21.424l-24.875-3.995c-1.328,7.731-2.454,16.1-2.863,20.679" transform="translate(-8.645 -152.255)" fill="#202040"/>
          <path id="Trazado_876371" data-name="Trazado 876371" d="M51.545,207.921l-.01.13c-1.216,11.776-9.612,36.245-10.56,38.678-14.061-.817-22.819-3.538-22.819-3.538.92-9.12,2.779-26.363,5.446-35.441,4.74-16.139,24.471-16.212,24.471-16.212Z" transform="translate(-7.985 -127.154)" fill="#e37d77"/>
          <path id="Trazado_876372" data-name="Trazado 876372" d="M33.813,385.932c.069,1.076.131,1.848.131,1.848.082.847.523,4.118-2.56,4.042a3.789,3.789,0,0,1-3.831-3.37L27,382.844c-.031-.394-.166-2.1-.968-2.225-1.265-.2-1.038,5.963-.954,8.181.067,2.4,1.913,8.742,1.913,8.742a3.679,3.679,0,0,1-3.247,4.217v.015a3.335,3.335,0,0,1-3.337,4.174,3.285,3.285,0,0,1-3.053-2.154A18.452,18.452,0,0,1,16.3,400.5s-4.17-7.723-4.475-10.362c-.629-5.464,2.136-20.872,2.136-20.872l15.894-.926a38.545,38.545,0,0,1,4.033,9.89c.346,1.329-.225,5.655-.078,7.7" transform="translate(-5.161 -204.904)" fill="#ffa166"/>
          <path id="Trazado_876373" data-name="Trazado 876373" d="M22.643,394.139c.18.686.336,1.373.447,2.059.131.686.211,1.372.306,2.058s.138,1.372.207,2.058l.119,2.058-.042-.313.474,1.512c.165.5.326,1.007.464,1.518l.455,1.514c.14.507.279,1.012.43,1.508s.29,1,.453,1.441c.216.537.342,1.032.515,1.461a3.643,3.643,0,0,0,.723,1.164,3.6,3.6,0,0,0,1.258.844l.017.007a.067.067,0,0,1-.033.128,3.488,3.488,0,0,1-1.536-.532,3.714,3.714,0,0,1-1.126-1.177c-.293-.461-.5-.96-.745-1.432s-.443-.984-.64-1.484c-.384-1-.726-2.021-1.054-3.042s-.615-2.054-.9-3.088a.1.1,0,0,1,0-.032l.073-8.231a.067.067,0,0,1,.068-.066.066.066,0,0,1,.064.05Z" transform="translate(-9.865 -216.218)" fill="#202040"/>
          <path id="Trazado_876374" data-name="Trazado 876374" d="M15.5,394.015a16.238,16.238,0,0,1,.559,2.059c.131.686.254,1.373.329,2.059.1.686.127,1.372.188,2.058.036.686.038,1.372.058,2.058l-.029-.266.487,2.392c.124.808.3,1.6.388,2.42.122.808.206,1.627.292,2.445.063.826.137,1.647.155,2.5v.021a.067.067,0,0,1-.129.022c-.527-1.557-.946-3.144-1.359-4.731s-.794-3.181-1.162-4.78a.106.106,0,0,1,0-.03l.089-8.231a.066.066,0,0,1,.067-.065.065.065,0,0,1,.061.043Z" transform="translate(-6.715 -216.164)" fill="#202040"/>
          <path id="Trazado_876375" data-name="Trazado 876375" d="M119.891,437.637c-.067,3.714-.218,8.6-.42,14.2H85.4c1.031-7.065,2.42-14.2,2.42-14.2L84.54,367.012H81.167l-3.289,70.625s1.389,7.132,2.42,14.2H46.235c-.207-5.6-.359-10.482-.426-14.2-.359-20-4.045-63.823,3.748-93.9h66.591c7.787,30.074,4.107,73.9,3.742,93.9" transform="translate(-19.625 -194.084)" fill="#704032"/>
          <path id="Trazado_876376" data-name="Trazado 876376" d="M120.252,348.413c-6.9,3.186-15.017,8.033-22.977,8.414q-.1-2.745-.148-5.377a70.831,70.831,0,0,1-22.521,0c-.046,1.755-.093,3.547-.158,5.377-7.959-.381-16.067-5.229-22.977-8.414.334-1.588.7-3.158,1.1-4.681h66.59c.4,1.523.761,3.093,1.1,4.681" transform="translate(-22.634 -194.081)" fill="#202040"/>
          <path id="Trazado_876377" data-name="Trazado 876377" d="M99.04,384.578a24.263,24.263,0,0,1,3.86-.616c.643-.073,1.286-.087,1.929-.131l1.93-.041c1.287.016,2.573.049,3.86.175a24.507,24.507,0,0,1,3.86.613l.011,0a.046.046,0,0,1-.011.09l-7.72.046-7.72-.046a.046.046,0,0,1-.011-.09Z" transform="translate(-43.533 -211.696)" fill="#202040"/>
          <path id="Trazado_876378" data-name="Trazado 876378" d="M100.6,186.9a103.737,103.737,0,0,0-15.621,1.077V279.52a61.8,61.8,0,0,0,31.242,0V187.973A103.726,103.726,0,0,0,100.6,186.9" transform="translate(-37.371 -125.112)" fill="#ffead7"/>
          <path id="Trazado_876379" data-name="Trazado 876379" d="M116.222,187.973V196.1c-2.851,4.913-8.776,8.284-15.621,8.284s-12.751-3.362-15.612-8.266v-8.145A103.671,103.671,0,0,1,100.61,186.9a103.527,103.527,0,0,1,15.612,1.077" transform="translate(-37.374 -125.112)" fill="#ffa166"/>
          <path id="Trazado_876380" data-name="Trazado 876380" d="M116.226,203.311a16.324,16.324,0,0,1-6.71,6.218,19.827,19.827,0,0,1-17.885.009,16.36,16.36,0,0,1-6.719-6.208.046.046,0,0,1,.077-.051l0,0a16.689,16.689,0,0,0,3.164,3.267,17.036,17.036,0,0,0,3.8,2.346,21.017,21.017,0,0,0,17.229-.011,16.965,16.965,0,0,0,3.8-2.35,16.658,16.658,0,0,0,3.16-3.27l0,0a.046.046,0,0,1,.064-.01.046.046,0,0,1,.012.061" transform="translate(-37.337 -132.3)" fill="#202040"/>
          <path id="Trazado_876381" data-name="Trazado 876381" d="M96.667,298.26c.756.361,1.473.759,2.228,1.093l2.206,1.061c.373.164.741.333,1.1.512l1.11.493c.742.32,1.473.661,2.229.942,1.484.633,3,1.173,4.535,1.69l1.156.384,1.17.353c.774.3,1.58.424,2.377.719l.012,0a.045.045,0,0,1,.027.058.044.044,0,0,1-.048.029,32.6,32.6,0,0,1-4.876-.841c-.807-.176-1.588-.45-2.381-.68-.778-.278-1.564-.535-2.324-.858a38.943,38.943,0,0,1-4.45-2.169,34.674,34.674,0,0,1-4.134-2.72.046.046,0,0,1,.048-.077Z" transform="translate(-42.476 -174.081)" fill="#202040"/>
          <path id="Trazado_876382" data-name="Trazado 876382" d="M74.144,285.844c-9.315-.52-18.083-7.309-24.983-9.037,0-12.222,4.03-27.462,4.03-27.462L52.059,212.9l9.631-23.562a34.608,34.608,0,0,1,4.5-1.1c2.137-.409,6.192-2.753,8.736-1.137-6.817,24.807.854,43.66-.78,98.743" transform="translate(-21.619 -124.956)" fill="#e37d77"/>
          <path id="Trazado_876383" data-name="Trazado 876383" d="M54.087,233.556l.635,18.133.542,18.136a.046.046,0,0,1-.045.048.046.046,0,0,1-.047-.039v-.005c-.227-1.505-.352-3.014-.532-4.521l-.366-4.527c-.243-3.017-.361-6.039-.479-9.061-.08-3.023-.157-6.046-.113-9.073l.073-4.541c.082-1.515.11-3.029.239-4.546v-.005a.046.046,0,0,1,.092,0" transform="translate(-23.601 -145.612)" fill="#202040"/>
          <path id="Trazado_876384" data-name="Trazado 876384" d="M131.346,285.844c9.315-.52,18.083-7.309,24.983-9.037,0-12.222-4.03-27.462-4.03-27.462l1.133-36.443L143.8,189.339a34.609,34.609,0,0,0-4.5-1.1c-2.137-.409-6.192-2.753-8.736-1.137,6.817,24.807-.854,43.66.78,98.743" transform="translate(-57.417 -124.956)" fill="#e37d77"/>
          <path id="Trazado_876385" data-name="Trazado 876385" d="M170.465,233.56c.13,1.517.157,3.031.24,4.546l.073,4.541c.045,3.026-.032,6.05-.113,9.073-.118,3.022-.236,6.044-.478,9.061l-.367,4.526c-.179,1.507-.3,3.016-.532,4.521v.006a.047.047,0,0,1-.092-.008l.542-18.136.635-18.133a.046.046,0,0,1,.048-.045.046.046,0,0,1,.044.043Z" transform="translate(-74.404 -145.612)" fill="#202040"/>
          <path id="Trazado_876386" data-name="Trazado 876386" d="M114.74,183.3H97.223l.644-8.666H114.1Z" transform="translate(-42.754 -119.721)" fill="#ffa166"/>
          <path id="Trazado_876387" data-name="Trazado 876387" d="M114.885,180.52a17.78,17.78,0,0,1-16.866-3.3l.195-2.591h16.234Z" transform="translate(-43.104 -119.719)" fill="#202040"/>
          <path id="Trazado_876388" data-name="Trazado 876388" d="M68.342,134.942C71,138.236,75.5,139.01,78.4,136.67s3.1-6.906.441-10.2-7.162-4.067-10.063-1.728-3.1,6.906-.441,10.2" transform="translate(-29.231 -97.185)" fill="#ffa166"/>
          <path id="Trazado_876389" data-name="Trazado 876389" d="M73.262,130.341s6.069-.144,6.4,6.177Z" transform="translate(-32.217 -100.242)" fill="#202040"/>
          <path id="Trazado_876390" data-name="Trazado 876390" d="M77.751,146.117a2.712,2.712,0,1,1-2.5-2.905,2.712,2.712,0,0,1,2.5,2.905" transform="translate(-31.809 -105.899)" fill="#ffead7"/>
          <path id="Trazado_876391" data-name="Trazado 876391" d="M77.595,146.827a1.962,1.962,0,0,1-3.913-.29,1.926,1.926,0,0,1,1.075-1.593,1.521,1.521,0,0,0-.429.957,1.6,1.6,0,0,0,3.191.247,1.809,1.809,0,0,1,.076.679" transform="translate(-32.399 -106.664)" fill="#e6b991"/>
          <path id="Trazado_876392" data-name="Trazado 876392" d="M151.6,141.23c-3.114,2.866-7.684,2.967-10.208.225s-2.045-7.288,1.069-10.154,7.683-2.967,10.207-.225,2.045,7.288-1.068,10.154" transform="translate(-61.464 -99.689)" fill="#ffa166"/>
          <path id="Trazado_876393" data-name="Trazado 876393" d="M153.8,136.686s-5.982-1.038-7.237,5.165Z" transform="translate(-64.452 -103.004)" fill="#202040"/>
          <path id="Trazado_876394" data-name="Trazado 876394" d="M153.574,151.742a2.712,2.712,0,1,1-2.5-2.905,2.712,2.712,0,0,1,2.5,2.905" transform="translate(-65.153 -108.372)" fill="#ffead7"/>
          <path id="Trazado_876395" data-name="Trazado 876395" d="M153.418,152.452a1.962,1.962,0,0,1-3.913-.29,1.926,1.926,0,0,1,1.075-1.593,1.521,1.521,0,0,0-.429.957,1.6,1.6,0,0,0,3.191.247,1.82,1.82,0,0,1,.076.679" transform="translate(-65.743 -109.137)" fill="#e6b991"/>
          <path id="Trazado_876396" data-name="Trazado 876396" d="M99.824,140.872h0a17.981,17.981,0,0,1-16.553-19.205l1.129-15.22a17.928,17.928,0,1,1,35.758,2.653l-1.129,15.219a17.981,17.981,0,0,1-19.205,16.553" transform="translate(-36.597 -82.434)" fill="#ffa166"/>
          <path id="Trazado_876397" data-name="Trazado 876397" d="M121.34,99.355c-1.527-5.076-6.789-5.9-6.789-5.9s-.277-5.517-10.937-6.646c-9.823-1.041-17.313,4.057-19.392,9.8-2.58,7.12-.453,15.3-.453,15.3a53.663,53.663,0,0,0,2.876-8.019c13.616,5.9,26.595-6.856,26.595-6.856-.532,11.984,6.3,17.529,6.3,17.529s3.447-9.73,1.8-15.2" transform="translate(-36.475 -81.038)" fill="#ffead7"/>
          <path id="Trazado_876398" data-name="Trazado 876398" d="M136.7,105.135a27.371,27.371,0,0,0,.545,6.707,22.547,22.547,0,0,0,2.28,6.32.035.035,0,0,1-.014.047.034.034,0,0,1-.043-.008l0-.005a12.219,12.219,0,0,1-1.831-2.921,15.986,15.986,0,0,1-1.07-3.29,16.578,16.578,0,0,1-.346-3.436,14.062,14.062,0,0,1,.412-3.415v-.007a.035.035,0,0,1,.042-.025.034.034,0,0,1,.026.035" transform="translate(-59.904 -89.142)" fill="#202040"/>
          <path id="Trazado_876399" data-name="Trazado 876399" d="M89.538,111.957a18.944,18.944,0,0,0,7.035,1.525,21.959,21.959,0,0,0,7.127-1.073,30.759,30.759,0,0,0,6.584-2.985,34.776,34.776,0,0,0,5.81-4.315.035.035,0,0,1,.049,0,.037.037,0,0,1,0,.048,25.083,25.083,0,0,1-2.623,2.552,36.348,36.348,0,0,1-2.959,2.176,28.934,28.934,0,0,1-6.654,3.186,23.8,23.8,0,0,1-3.632.793,16.969,16.969,0,0,1-3.716.159,18.292,18.292,0,0,1-3.656-.607l-.881-.277-.858-.336a14.841,14.841,0,0,1-1.655-.783.035.035,0,0,1-.018-.046.036.036,0,0,1,.045-.018" transform="translate(-39.353 -89.142)" fill="#202040"/>
          <path id="Trazado_876400" data-name="Trazado 876400" d="M116.453,101.828s-12.076,9.561-26.514,5.783c0,0,15.694.059,26.514-5.783" transform="translate(-39.551 -87.704)" fill="#e6b991"/>
          <path id="Trazado_876401" data-name="Trazado 876401" d="M119.255,133.756c.109.546.211,1.057.3,1.549s.2.96.316,1.407a8.786,8.786,0,0,0,.455,1.241A5.452,5.452,0,0,0,121,139l.127.169a.676.676,0,0,1-.133.947l0,0c-.2.147-.408.279-.621.407s-.425.26-.649.375a7.79,7.79,0,0,1-1.416.613l-.018.006a.044.044,0,0,1-.056-.029.045.045,0,0,1,.013-.047l2.211-1.947v.114a4.484,4.484,0,0,1-.955-1.257,5.84,5.84,0,0,1-.453-1.508,8.8,8.8,0,0,1,.124-3.116.044.044,0,0,1,.086,0Z" transform="translate(-51.989 -101.719)" fill="#202040"/>
          <path id="Trazado_876402" data-name="Trazado 876402" d="M105.765,138.305a8.375,8.375,0,0,1,.526-.676c.17-.205.339-.4.5-.6.339-.395.645-.793,1.071-1.239a1.723,1.723,0,0,1-.091.9,2.5,2.5,0,0,1-.444.783,2.212,2.212,0,0,1-1.561.833" transform="translate(-46.51 -102.638)" fill="#202040"/>
          <path id="Trazado_876403" data-name="Trazado 876403" d="M122.766,136.777c.353.5.6.944.876,1.384l.406.668a8.026,8.026,0,0,1,.42.747,2.2,2.2,0,0,1-1.421-1.054,2.523,2.523,0,0,1-.323-.84,1.737,1.737,0,0,1,.042-.905" transform="translate(-53.95 -103.072)" fill="#202040"/>
          <path id="Trazado_876404" data-name="Trazado 876404" d="M102.021,152.814a3.346,3.346,0,0,1-.309-1.906,4.8,4.8,0,0,1,.568-1.833,4.5,4.5,0,0,1,1.269-1.465,3.315,3.315,0,0,1,1.807-.7h.022a.044.044,0,0,1,.026.081,6.965,6.965,0,0,0-2.31,2.53,7.9,7.9,0,0,0-.98,3.294.044.044,0,0,1-.083.017Z" transform="translate(-44.718 -107.528)" fill="#202040"/>
          <path id="Trazado_876405" data-name="Trazado 876405" d="M124.7,154.278a7.9,7.9,0,0,0-.484-3.4,6.956,6.956,0,0,0-1.911-2.843.044.044,0,0,1,0-.062.045.045,0,0,1,.041-.013l.021,0a3.312,3.312,0,0,1,1.684.957,4.505,4.505,0,0,1,1.039,1.636,4.8,4.8,0,0,1,.292,1.9,3.351,3.351,0,0,1-.587,1.839l-.012.017a.044.044,0,0,1-.08-.03" transform="translate(-53.778 -107.988)" fill="#202040"/>
          <path id="Trazado_876406" data-name="Trazado 876406" d="M116.189,154.7a9.867,9.867,0,0,1-12.829-.952Z" transform="translate(-45.453 -110.537)" fill="#fff"/>
          <path id="Trazado_876407" data-name="Trazado 876407" d="M98.207,131.182a4.368,4.368,0,0,1,.863-2.558,2.471,2.471,0,0,1,1.134-.8,3.019,3.019,0,0,1,1.384-.114,2.77,2.77,0,0,1,1.285.532,3.2,3.2,0,0,1,.883,1.061,5.716,5.716,0,0,1,.62,2.63h-.139a13.482,13.482,0,0,0-1.443-2.1,2.227,2.227,0,0,0-1.4-.742,2.782,2.782,0,0,0-.765,0,1.687,1.687,0,0,0-.689.254,7.2,7.2,0,0,0-1.592,1.845Z" transform="translate(-43.187 -99.07)" fill="#202040"/>
          <path id="Trazado_876408" data-name="Trazado 876408" d="M129.263,133.505a7.18,7.18,0,0,0-1.3-2.059,1.679,1.679,0,0,0-.644-.352,2.757,2.757,0,0,0-.756-.114,2.222,2.222,0,0,0-1.5.527,13.448,13.448,0,0,0-1.737,1.867l-.138-.021a5.719,5.719,0,0,1,1-2.51,3.208,3.208,0,0,1,1.03-.919,2.77,2.77,0,0,1,1.349-.337,3.022,3.022,0,0,1,1.352.317,2.473,2.473,0,0,1,1,.961,4.369,4.369,0,0,1,.477,2.658Z" transform="translate(-54.173 -99.91)" fill="#202040"/>
          <path id="Trazado_876409" data-name="Trazado 876409" d="M88.8,100.662s13.9-6.7,26.685-3.376c-7.315-3.307-19.794-3.216-26.685,3.376" transform="translate(-39.052 -84.765)" fill="#e6b991"/>
          <path id="Trazado_876410" data-name="Trazado 876410" d="M143.964,115.25s-.081-8.922-5.076-12.883c4.944,3.155,6.252,5.481,5.076,12.883" transform="translate(-61.076 -87.941)" fill="#e6b991"/>
        </g>
      </g>
    </g>
    <g id="salud_10_" data-name="salud (10)" transform="translate(943.387 512.549)">
      <path id="Trazado_876411" data-name="Trazado 876411" d="M106.942,10.5a17.23,17.23,0,0,0-11.69,4.578,1.552,1.552,0,0,1-2.1,0A17.229,17.229,0,0,0,81.458,10.5,17.77,17.77,0,0,0,63.918,28.491c0,11.478,20.594,28.457,27.816,34.059a4.024,4.024,0,0,0,4.933,0c7.222-5.6,27.816-22.581,27.816-34.059A17.769,17.769,0,0,0,106.942,10.5Zm0,0" transform="translate(-54.863 -8.398)" fill="#ff5d5d"/>
      <path id="Trazado_876412" data-name="Trazado 876412" d="M30.859,240.117a6.368,6.368,0,0,0,9.543-.489l.787-.991q.264-.333.523-.669a51.794,51.794,0,0,0,6.652-11.486l.923-2.188a11.057,11.057,0,0,0-17-13l-2.233,1.749-2.234-1.749a11.057,11.057,0,0,0-17,13l.922,2.188a51.815,51.815,0,0,0,6.652,11.486q.259.337.523.669l.787.991a6.368,6.368,0,0,0,9.543.489,1.133,1.133,0,0,1,1.621,0Zm0,0" transform="translate(-8.348 -179.405)" fill="#a0e557"/>
      <path id="Trazado_876413" data-name="Trazado 876413" d="M165.54,247.821h-1.852a8.3,8.3,0,0,1-8.3-8.3v-1.852h1.852a8.3,8.3,0,0,1,8.3,8.3Zm0,0" transform="translate(-133.683 -204.157)" fill="#d8fb93"/>
      <path id="Trazado_876414" data-name="Trazado 876414" d="M234.221,88.828h-8.844a1.382,1.382,0,0,0-1.292.891l-3.132,8.233-5.094-16.51a1.383,1.383,0,0,0-2.58-.165l-3.44,7.551h-8.494a1.383,1.383,0,0,0,0,2.766h9.384a1.383,1.383,0,0,0,1.258-.81l2.3-5.052,5.207,16.875a1.383,1.383,0,0,0,1.277.975h.045a1.384,1.384,0,0,0,1.292-.891l4.221-11.1h7.891a1.383,1.383,0,0,0,0-2.766Zm0,0" transform="translate(-172.098 -68.692)" fill="#ca2222"/>
      <path id="Trazado_876415" data-name="Trazado 876415" d="M155.008,140.945a1.383,1.383,0,1,0,.977.405A1.391,1.391,0,0,0,155.008,140.945Zm0,0" transform="translate(-132.168 -120.809)" fill="#ca2222"/>
    </g>
    <g id="nutricion_1_" data-name="nutricion (1)" transform="translate(1349.022 536.138)">
      <path id="Trazado_876416" data-name="Trazado 876416" d="M27.364,97.824c4.164-.8,10.313-1.155,14.567,2.332C52.785,109.043,44.917,138,31.631,138a14.471,14.471,0,0,1-6.209-1.57,4.442,4.442,0,0,0-3.8,0,12.7,12.7,0,0,1-8.782,1.227c-11.487-3.214-17.966-29.12-7.728-37.505,4.254-3.487,10.4-3.13,14.566-2.332a20.5,20.5,0,0,0,7.689,0Z" transform="translate(0 -69.775)" fill="#ff5d5d"/>
      <path id="Trazado_876417" data-name="Trazado 876417" d="M34.477,97.358a1.68,1.68,0,0,1,.09,3.335,20.541,20.541,0,0,1-7.689,0c-4.164-.8-10.312-1.155-14.566,2.332-8.176,6.7-5.691,24.567,1.493,33.131a.928.928,0,0,1-.939,1.5c-11.5-3.167-18-29.122-7.755-37.513,4.254-3.487,10.4-3.13,14.566-2.332a20.5,20.5,0,0,0,7.689,0A26,26,0,0,1,34.477,97.358Z" transform="translate(-0.003 -69.763)" fill="#ffa1a1"/>
      <path id="Trazado_876418" data-name="Trazado 876418" d="M42.431,163.372a1.152,1.152,0,0,1-1.107-.836c-1.643-5.755-1.567-13.4,3.039-17.168a1.152,1.152,0,0,1,1.46,1.783c-3.636,2.977-3.767,9.554-2.283,14.752A1.153,1.153,0,0,1,42.431,163.372Z" transform="translate(-34.537 -110.705)" fill="#fff"/>
      <path id="Trazado_876419" data-name="Trazado 876419" d="M107.659,24.056c0,2.589,0,2.347-.007,2.379H105.28A8.279,8.279,0,0,1,97,18.157a2.378,2.378,0,0,1,2.379-2.379,8.279,8.279,0,0,1,8.278,8.278Z" transform="translate(-83.032 -0.001)" fill="#a0e557"/>
      <path id="Trazado_876420" data-name="Trazado 876420" d="M101.631,25.588A8.279,8.279,0,0,1,97,18.156a2.378,2.378,0,0,1,2.379-2.379,8.283,8.283,0,0,1,2.106.27.861.861,0,0,1,.358,1.471,2.374,2.374,0,0,0-.81,1.79,8.238,8.238,0,0,0,1.673,4.989A.864.864,0,0,1,101.631,25.588Z" transform="translate(-83.032 0)" fill="#d8fb93"/>
      <path id="Trazado_876421" data-name="Trazado 876421" d="M154.044,61.155a1.152,1.152,0,0,1-1.152-1.191c.164-4.794,2.716-9.419,7.112-11.378a1.152,1.152,0,0,1,.938,2.1c-3.571,1.591-5.612,5.413-5.746,9.352a1.152,1.152,0,0,1-1.151,1.113Z" transform="translate(-130.872 -27.998)" fill="#ffbd7b"/>
      <path id="Trazado_876422" data-name="Trazado 876422" d="M386.509,196.737a1.153,1.153,0,0,1-.913-1.854,9.423,9.423,0,0,0,1.835-4.017,1.152,1.152,0,0,1,2.265.425,11.708,11.708,0,0,1-2.272,5A1.151,1.151,0,0,1,386.509,196.737Z" transform="translate(-329.857 -149.069)" fill="#a0e557"/>
      <path id="Trazado_876423" data-name="Trazado 876423" d="M399.757,229.8a1.152,1.152,0,0,1,.669-1.047,18.214,18.214,0,0,1,8.593-1.98,1.152,1.152,0,1,1-.02,2.3,15.99,15.99,0,0,0-7.566,1.75A1.154,1.154,0,0,1,399.757,229.8Z" transform="translate(-342.184 -180.609)" fill="#a0e557"/>
      <path id="Trazado_876424" data-name="Trazado 876424" d="M173.027,218.267a69.953,69.953,0,0,1-33.262,13.473,3.81,3.81,0,0,1-4.09-4.993,69.991,69.991,0,0,1,19.751-29.967C167.258,186.166,185.672,208.777,173.027,218.267Z" transform="translate(-115.962 -152.561)" fill="#fab26a"/>
      <path id="Trazado_876425" data-name="Trazado 876425" d="M164.768,197.819c-11.043,4.573-22.148,26.172-23.38,32.426a1.876,1.876,0,0,1-1.6,1.491,3.81,3.81,0,0,1-4.105-4.991,69.938,69.938,0,0,1,19.751-29.967,10.129,10.129,0,0,1,9.023-2.564A1.891,1.891,0,0,1,164.768,197.819Z" transform="translate(-115.965 -152.56)" fill="#ffd3a6"/>
      <g id="Grupo_1100824" data-name="Grupo 1100824" transform="translate(25.392 44.617)">
        <path id="Trazado_876426" data-name="Trazado 876426" d="M328.648,323.141c-.323.208-.657.419-1,.629a.576.576,0,0,1-.832-.262,64.1,64.1,0,0,0-4.448-8.648,1.152,1.152,0,0,1,1.964-1.2,67.917,67.917,0,0,1,4.532,8.774A.576.576,0,0,1,328.648,323.141Z" transform="translate(-301.189 -299.125)" fill="#f18a35"/>
        <path id="Trazado_876427" data-name="Trazado 876427" d="M268.369,222.141c-1,0-.9-.956-5.655-4.254a.576.576,0,0,1-.068-.891c.3-.285.607-.569.874-.812a.575.575,0,0,1,.716-.049,41.406,41.406,0,0,1,4.928,4.021A1.153,1.153,0,0,1,268.369,222.141Z" transform="translate(-250.058 -216.033)" fill="#f18a35"/>
        <path id="Trazado_876428" data-name="Trazado 876428" d="M269.459,359.179a1.152,1.152,0,0,1-1.013-.6c-.387-.711-.8-1.421-1.231-2.109a1.152,1.152,0,1,1,1.956-1.219c.453.726.889,1.475,1.3,2.226A1.153,1.153,0,0,1,269.459,359.179Z" transform="translate(-253.974 -334.735)" fill="#f18a35"/>
        <path id="Trazado_876429" data-name="Trazado 876429" d="M223.277,271.992a1.152,1.152,0,0,1-1.627-.081,38.869,38.869,0,0,0-4.891-4.548.578.578,0,0,1-.1-.817c.117-.147.6-.749.731-.9a.574.574,0,0,1,.8-.088,41.232,41.232,0,0,1,5.171,4.809A1.152,1.152,0,0,1,223.277,271.992Z" transform="translate(-210.741 -258.32)" fill="#f18a35"/>
        <path id="Trazado_876430" data-name="Trazado 876430" d="M226.072,385.357c-.366.123-.732.242-1.111.362a.577.577,0,0,1-.7-.323,43.1,43.1,0,0,0-3.526-6.542,1.152,1.152,0,1,1,1.924-1.267,45.349,45.349,0,0,1,3.762,7,.575.575,0,0,1-.346.77Z" transform="translate(-214.172 -353.876)" fill="#f18a35"/>
        <path id="Trazado_876431" data-name="Trazado 876431" d="M179.253,326.689a1.151,1.151,0,0,1-1.629.01c-.362-.356-.738-.713-1.126-1.065a.577.577,0,0,1-.115-.716c.208-.361.416-.713.6-1.028a.575.575,0,0,1,.878-.131c.5.447,1.163,1.089,1.377,1.3A1.151,1.151,0,0,1,179.253,326.689Z" transform="translate(-176.308 -308.118)" fill="#f18a35"/>
      </g>
    </g>
  </g>
</svg>
