<svg xmlns="http://www.w3.org/2000/svg" xmlns:xlink="http://www.w3.org/1999/xlink" width="296" height="201" viewBox="0 0 296 201">
  <defs>
    <clipPath id="clip-path">
      <rect id="Rect치ngulo_401526" data-name="Rect치ngulo 401526" width="172.766" height="173.465" fill="none"/>
    </clipPath>
  </defs>
  <g id="Grupo_1101440" data-name="Grupo 1101440" transform="translate(-179.051 -2753)">
    <path id="Rect치ngulo_401525" data-name="Rect치ngulo 401525" d="M15,0H281a15,15,0,0,1,15,15V201a0,0,0,0,1,0,0H0a0,0,0,0,1,0,0V15A15,15,0,0,1,15,0Z" transform="translate(179.051 2753)" fill="#e9f5ec"/>
    <g id="Grupo_1101255" data-name="Grupo 1101255" transform="translate(249.709 2765.219)">
      <g id="Grupo_1101254" data-name="Grupo 1101254" clip-path="url(#clip-path)">
        <path id="Trazado_876656" data-name="Trazado 876656" d="M308.581,173.07c.382.983,2.565,1.163,4.093.994s1.991-1.884,1.079-2.562a5.307,5.307,0,0,0-3.6-.9c-.929.238-1.915,1.585-1.571,2.47" transform="translate(-141.451 -78.191)" fill="#f0896c"/>
        <path id="Trazado_876657" data-name="Trazado 876657" d="M308.221,168.026c.732.761,2.814.086,4.16-.659s1.111-2.507.009-2.78a5.309,5.309,0,0,0-3.67.555c-.766.577-1.156,2.2-.5,2.884" transform="translate(-141.165 -75.412)" fill="#f0896c"/>
        <path id="Trazado_876658" data-name="Trazado 876658" d="M26.549,185.724s-.734,2.809-.893,3.543A3.274,3.274,0,0,0,26.1,191.5c.351.511,1.723,1.772,1.883,1.979s1.11-.089,1.209-1.346a6.521,6.521,0,0,0-.943-2.994l.053-3.415Z" transform="translate(-11.741 -85.154)" fill="#f0896c"/>
        <path id="Trazado_876659" data-name="Trazado 876659" d="M71.651,150.483s-20.489,5.169-28.021,8.3-7.085,3.319-7.212,3.511,1.659,5.581,1.659,5.581,12.446.283,21.382,0,15.871-.6,15.871-.6Z" transform="translate(-16.695 -68.996)" fill="#ffb691"/>
        <path id="Trazado_876660" data-name="Trazado 876660" d="M97.267,150.483s-1.4.354-3.607.932a64.616,64.616,0,0,0-1.268,16.2c5.133-.192,8.556-.349,8.556-.349Z" transform="translate(-42.311 -68.996)" fill="#f0896c"/>
        <path id="Trazado_876661" data-name="Trazado 876661" d="M262.777,209.023l.234-1.34,3.511-6.362h13.319s-2.128,5.4-2.724,6.979-1.277,4.17-1.277,4.17H262.777Z" transform="translate(-120.483 -92.305)" fill="#ffb691"/>
        <path id="Trazado_876662" data-name="Trazado 876662" d="M35.126,271.652s.638,8.329.638,9.447v4.627h13.4v-4.372l1.085-9.255Z" transform="translate(-16.105 -124.552)" fill="#ffb691"/>
        <path id="Trazado_876663" data-name="Trazado 876663" d="M68.827,179s-14.943-4.177-25.73-4.241-12.83,9.6-12.83,13.9c-.255,12.335,1.149,30.334,2.617,38.569a40.757,40.757,0,0,0,15.128.447,135.889,135.889,0,0,0,4.34-14.106,23.777,23.777,0,0,0,.447-5.809s10.149,5.809,14.936,7.532c6.192,3.83,15.766,5.68,20.808,5.361,7.149,7.723,26.68,25.722,37.276,30.063s17.489,3.064,20.68.766,7.915-9.447,11.106-15.83,11.616-35.361,11.616-35.361-4.34-4.021-12.829-4.787a63.081,63.081,0,0,1-9.574,13.723c-3.574,4.021-7.4,7.66-7.851,11.936-4.085-8.936-8.68-16.85-8.68-16.85.638-9.191-4.3-22.89-16.774-28.367Z" transform="translate(-13.864 -80.128)" fill="#383332"/>
        <path id="Trazado_876664" data-name="Trazado 876664" d="M102.72,198.123s-.005.082-.015.236c-.012.124-.017.357-.024.654s-.007.664.01,1.089.033.906.074,1.434.105,1.1.163,1.709c.094.6.155,1.25.287,1.907q.089.5.182,1.008c.075.338.15.681.226,1.025.142.7.342,1.388.531,2.086s.434,1.379.645,2.063.5,1.328.734,1.971.537,1.232.785,1.811.531,1.1.782,1.594.471.95.707,1.331.43.723.594,1l.521.875.017.03a.254.254,0,0,1-.423.28l-.606-.829-.7-.952c-.275-.364-.533-.81-.843-1.276s-.645-.976-.95-1.543-.67-1.14-.979-1.77-.653-1.269-.948-1.946-.618-1.353-.87-2.059-.543-1.4-.76-2.1c-.114-.351-.235-.7-.34-1.043s-.2-.692-.292-1.03c-.2-.674-.337-1.342-.5-1.967-.125-.634-.265-1.228-.35-1.786-.2-1.11-.3-2.05-.364-2.708-.026-.331-.047-.591-.054-.776l-.011-.274,0-.074a1.386,1.386,0,1,1,2.769-.114,1.428,1.428,0,0,1,0,.145" transform="translate(-45.827 -90.163)" fill="#211e1e"/>
        <path id="Trazado_876665" data-name="Trazado 876665" d="M128.807,252.52l.015.015a.7.7,0,0,0-.025-.1.342.342,0,0,0-.182-.177L127.3,251.5a9.445,9.445,0,0,1-.86-.532c-.293-.21-.61-.418-.937-.637s-.669-.438-1-.682-.656-.511-1-.759-.688-.488-.993-.767l-.928-.789c-.311-.247-.57-.528-.844-.767s-.534-.467-.76-.69l-.615-.612c-.188-.182-.327-.349-.461-.479-.26-.26-.4-.429-.4-.429a.256.256,0,0,0-.425.281l0,.01s.1.189.3.519c.1.164.221.372.38.583l.522.73c.191.268.422.537.655.835a11.214,11.214,0,0,0,.78.891l.877.917c.29.323.63.6.949.9s.65.592.982.871.687.513,1.016.761l.958.706c.057.045.116.08.175.12a23.848,23.848,0,0,0,3.122.041" transform="translate(-54.127 -111.993)" fill="#211e1e"/>
        <path id="Trazado_876666" data-name="Trazado 876666" d="M142.263,251.083a14.38,14.38,0,0,1,1.31-1.556c.419-.44.924-.939,1.5-1.434.284-.253.582-.508.9-.751s.631-.5.966-.732.671-.46,1-.687.683-.412,1.01-.61.67-.353.98-.517.63-.28.912-.4.56-.2.8-.285a5.181,5.181,0,0,1,.63-.175c.355-.082.557-.12.557-.12a.257.257,0,0,1,.186.471l-.02.012s-.171.107-.467.28-.711.436-1.206.741c-.245.162-.506.343-.788.522l-.869.6c-.3.214-.61.428-.919.66s-.637.447-.948.688-.638.459-.945.7l-.918.676c-.6.44-1.159.844-1.65,1.184-.975.689-1.665,1.111-1.665,1.111a.261.261,0,0,1-.35-.371" transform="translate(-65.206 -111.785)" fill="#211e1e"/>
        <path id="Trazado_876667" data-name="Trazado 876667" d="M148.94,242.983a9.329,9.329,0,0,1,.928-.951c.295-.266.647-.568,1.045-.862.2-.152.4-.3.622-.446s.436-.3.664-.43.46-.268.686-.4.465-.236.688-.349.453-.2.663-.289.425-.152.614-.219.375-.1.533-.148a3.375,3.375,0,0,1,.419-.084c.235-.036.369-.051.369-.051a.168.168,0,0,1,.1.316l-.013.007s-.116.062-.317.161-.485.249-.823.423c-.168.095-.345.2-.539.3l-.595.35c-.2.126-.418.25-.631.386s-.436.261-.65.4-.438.269-.649.408l-.63.4c-.41.257-.8.494-1.133.691-.668.4-1.138.644-1.138.644a.17.17,0,0,1-.23-.073.167.167,0,0,1,.02-.185" transform="translate(-68.271 -109.468)" fill="#211e1e"/>
        <path id="Trazado_876668" data-name="Trazado 876668" d="M50.936,207.541s.114.269.329.732.525,1.121.911,1.9c.2.386.408.807.645,1.243s.494.891.754,1.365.57.938.853,1.427c.315.469.616.96.949,1.425s.651.946,1.015,1.375l.514.662c.171.218.361.413.537.617l.52.6c.173.193.358.364.53.541.353.342.663.7,1,.968l.883.787.725.554.631.5.006.006a.091.091,0,0,1-.1.154l-.729-.36c-.23-.12-.515-.258-.833-.435-.3-.2-.646-.421-1.014-.676a10.975,10.975,0,0,1-1.141-.887c-.193-.167-.4-.331-.6-.515l-.585-.581a16.245,16.245,0,0,1-1.163-1.277c-.389-.442-.727-.934-1.084-1.413s-.649-1-.972-1.49c-.292-.507-.578-1.009-.824-1.509s-.485-.982-.673-1.457c-.205-.467-.375-.918-.52-1.338a16.065,16.065,0,0,1-.77-2.859.1.1,0,0,1,.087-.12.107.107,0,0,1,.113.063" transform="translate(-23.261 -95.127)" fill="#211e1e"/>
        <path id="Trazado_876669" data-name="Trazado 876669" d="M231.4,261.6a4.337,4.337,0,0,1,.19.454,10.453,10.453,0,0,1,.383,1.242,7.569,7.569,0,0,1,.183.846c.058.3.115.621.159.953s.068.677.088,1.029a8.6,8.6,0,0,1,.037,1.066c-.01.358-.02.716-.03,1.068a8.14,8.14,0,0,1-.1,1.03c-.042.334-.1.654-.151.957a4.784,4.784,0,0,1-.191.845c-.3,1.036-.577,1.692-.577,1.692a.093.093,0,0,1-.178-.034v-.01s-.009-.722.082-1.753a7.7,7.7,0,0,0,.035-.837c.008-.3,0-.611.024-.932a8.856,8.856,0,0,0,.015-.993c0-.339,0-.682,0-1.026s0-.687-.021-1.026-.019-.673-.02-1c-.047-.644-.042-1.253-.07-1.773-.016-.26-.022-.5-.024-.714s-.015-.4-.02-.551c-.007-.311-.011-.49-.011-.49a.107.107,0,0,1,.2-.051Z" transform="translate(-106.003 -119.913)" fill="#211e1e"/>
        <path id="Trazado_876670" data-name="Trazado 876670" d="M232.129,261.031a4.131,4.131,0,0,1,.979.669,6.7,6.7,0,0,1,1.574,2.05,6.912,6.912,0,0,1,.508,1.3,4.991,4.991,0,0,1,.139.627,3.446,3.446,0,0,1,.07.571,4.126,4.126,0,0,1-.011.859c-.022.206-.042.322-.042.322a.095.095,0,0,1-.179.024l0-.007s-.05-.108-.127-.293c-.035-.093-.083-.2-.126-.332s-.119-.266-.175-.421-.133-.316-.207-.487-.153-.351-.242-.533c-.169-.367-.359-.752-.563-1.13-.4-.759-.845-1.5-1.176-2.08s-.559-.984-.559-.984a.11.11,0,0,1,.043-.149.114.114,0,0,1,.1,0" transform="translate(-106.36 -119.678)" fill="#211e1e"/>
        <path id="Trazado_876671" data-name="Trazado 876671" d="M55.762,230.456a7.436,7.436,0,0,1,1.135.269c.166.049.343.106.529.172s.38.108.577.172c.4.12.8.278,1.215.432.422.126.84.271,1.23.422.2.07.38.168.564.212s.354.118.514.173a8.634,8.634,0,0,1,1.063.451l.008,0a.094.094,0,0,1,.04.127.1.1,0,0,1-.071.05,8.166,8.166,0,0,1-1.171.036c-.175-.007-.368-.008-.569-.028a3.891,3.891,0,0,1-.624-.1c-.428-.089-.884-.2-1.333-.33-.224-.069-.44-.169-.654-.257s-.421-.187-.62-.281-.392-.187-.56-.291-.319-.212-.459-.315a7.45,7.45,0,0,1-.9-.735.11.11,0,0,1,0-.156.112.112,0,0,1,.093-.031" transform="translate(-25.51 -105.663)" fill="#211e1e"/>
        <path id="Trazado_876672" data-name="Trazado 876672" d="M28.149,310.55a8.242,8.242,0,0,0-4.787,1.6,13.233,13.233,0,0,1-6.987,1.724c-2.449.054-13.1.426-16.372.54,0,.018,0,.04,0,.055,0,.554-.043,1.387,1.191,1.387H34.234c1.085,0,1.17-.663,1.17-1.258,0-.241-.133-1.957-.321-4.043Z" transform="translate(0 -142.386)" fill="#fff"/>
        <path id="Trazado_876673" data-name="Trazado 876673" d="M23.363,301.643a8.241,8.241,0,0,1,4.787-1.6h6.933c-.275-3.062-.668-6.921-.934-8.085-.447-1.958-.447-2.894-1.085-3.064a15.552,15.552,0,0,1-6.213.936,34.394,34.394,0,0,1-6.34-1.787c-.978-.341-1.276-.6-1.745-.213s-5.616,6.468-5.616,6.468S2.47,298.685,1.406,299.664c-1.035.952-1.385,3.591-1.4,4.243,3.271-.115,13.924-.487,16.372-.54a13.239,13.239,0,0,0,6.987-1.724" transform="translate(-0.002 -131.884)" fill="#a8cc5a"/>
        <path id="Trazado_876674" data-name="Trazado 876674" d="M57.219,298.448c-.023-.173-.044-.337-.066-.493a8.939,8.939,0,0,0-5.006,2.447,8.3,8.3,0,0,0-2.433,4.467c.179-.028.359-.048.542-.063a7.893,7.893,0,0,1,2.248-4.039,8.4,8.4,0,0,1,4.715-2.319" transform="translate(-22.794 -136.612)" fill="#7bab4b"/>
        <path id="Trazado_876675" data-name="Trazado 876675" d="M27.625,288.209c-.193-.068-.357-.131-.5-.188-.814,1.028-2.317,2.932-3.644,4.673-1.8,2.362-2.424,2.614-3.665,3.116l-.218.089c-1.466.6-1.975.911-2.382,2.3-.32,1.093-1.307,4.494-1.623,5.587l.537-.018c.358-1.235,1.269-4.382,1.575-5.425.357-1.219.755-1.43,2.085-1.974l.217-.088c1.285-.52,1.993-.807,3.879-3.28,1.385-1.817,2.959-3.809,3.742-4.794" transform="translate(-7.148 -132.057)" fill="#7bab4b"/>
        <path id="Trazado_876676" data-name="Trazado 876676" d="M26.378,299.1a.7.7,0,0,1-.888,1.091l-1.59-1.295a.7.7,0,0,1,.887-1.091Z" transform="translate(-10.839 -136.468)" fill="#fff"/>
        <path id="Trazado_876677" data-name="Trazado 876677" d="M29.284,295.763a.7.7,0,1,1-.888,1.09l-1.591-1.295a.7.7,0,1,1,.888-1.09Z" transform="translate(-12.171 -134.94)" fill="#fff"/>
        <path id="Trazado_876678" data-name="Trazado 876678" d="M32.19,292.429a.7.7,0,0,1-.888,1.091l-1.59-1.3a.7.7,0,1,1,.887-1.091Z" transform="translate(-13.504 -133.412)" fill="#fff"/>
        <path id="Trazado_876679" data-name="Trazado 876679" d="M35.1,289.1a.7.7,0,0,1-.888,1.091l-1.59-1.295a.7.7,0,0,1,.887-1.091Z" transform="translate(-14.836 -131.884)" fill="#fff"/>
        <path id="Trazado_876680" data-name="Trazado 876680" d="M263.817,174.015a8.256,8.256,0,0,0,3.659-3.474,13.225,13.225,0,0,1,5.6-4.524c2.194-1.085,11.685-5.94,14.6-7.43-.008-.016-.016-.037-.021-.05-.236-.5-.55-1.274-1.667-.75l-29.926,14.007c-.982.459-.779,1.1-.527,1.636.1.218.95,1.718,2,3.526l6.281-2.94" transform="translate(-117.065 -72.264)" fill="#fff"/>
        <path id="Trazado_876681" data-name="Trazado 876681" d="M289.545,159.411c-2.914,1.491-12.4,6.345-14.6,7.431a13.225,13.225,0,0,0-5.6,4.523,8.253,8.253,0,0,1-3.659,3.474l-6.281,2.94c1.5,2.568,3.406,5.761,4.193,6.82.149-.028,5.972-2.28,8.119-2.366,1.028-.041,5.018,2.163,6.106,2.553a13.861,13.861,0,0,0,1.536-2.863c.263-.546,2.346-8.24,2.346-8.24s7.815-8.5,8.365-9.833c.533-1.3-.269-3.841-.529-4.439" transform="translate(-118.938 -73.09)" fill="#a8cc5a"/>
        <path id="Trazado_876682" data-name="Trazado 876682" d="M265.463,195.782c.093.147.184.286.269.419a8.938,8.938,0,0,0,3.5-4.34,8.3,8.3,0,0,0,.31-5.077c-.149.1-.3.2-.462.288a7.9,7.9,0,0,1-.325,4.61,8.393,8.393,0,0,1-3.287,4.1" transform="translate(-121.714 -85.64)" fill="#7bab4b"/>
        <path id="Trazado_876683" data-name="Trazado 876683" d="M293.241,185.721c.205-.02.379-.033.536-.043.3-1.276.856-3.639,1.32-5.777.63-2.9,1.088-3.4,2-4.378l.16-.171c1.075-1.166,1.4-1.663,1.182-3.1-.173-1.126-.722-4.624-.9-5.747l-.479.244c.2,1.27.708,4.507.874,5.581.194,1.255-.079,1.615-1.053,2.671l-.159.173c-.944,1.015-1.463,1.576-2.123,4.616-.484,2.232-1.066,4.7-1.357,5.928" transform="translate(-134.45 -76.343)" fill="#7bab4b"/>
        <path id="Trazado_876684" data-name="Trazado 876684" d="M295.981,186.119a.7.7,0,0,1,.341-1.364l1.99.5a.7.7,0,1,1-.343,1.365Z" transform="translate(-135.463 -84.7)" fill="#fff"/>
        <path id="Trazado_876685" data-name="Trazado 876685" d="M294.762,190.369a.7.7,0,1,1,.342-1.364l1.99.5a.7.7,0,0,1-.342,1.365Z" transform="translate(-134.903 -86.649)" fill="#fff"/>
        <path id="Trazado_876686" data-name="Trazado 876686" d="M293.543,194.62a.7.7,0,1,1,.341-1.365l1.989.5a.7.7,0,1,1-.341,1.365Z" transform="translate(-134.344 -88.597)" fill="#fff"/>
        <path id="Trazado_876687" data-name="Trazado 876687" d="M292.323,198.872a.7.7,0,1,1,.342-1.365l1.99.5a.7.7,0,1,1-.342,1.365Z" transform="translate(-133.785 -90.547)" fill="#fff"/>
        <path id="Trazado_876688" data-name="Trazado 876688" d="M154.3,10.763c4.238-2.164,9.758.089,12.848,4.768s3,10.366,3,14.941a57.075,57.075,0,0,0,.486,9.925c.485,2.863-.133,7.631-2.781,8.161-.31-1.192-1.281-3.8-1.281-3.8s-1.217,3.4-4.03,3.292c.586-1.835-.252-3.408-1.136-4.763a17.25,17.25,0,0,0,.264,3.634s-4.856-.4-4.989-5.21-.764-18.324-.764-18.324Z" transform="translate(-70.746 -4.555)" fill="#594545"/>
        <path id="Trazado_876689" data-name="Trazado 876689" d="M154.93,14.846l1.278,9.961s.632,13.511.765,18.323a6.236,6.236,0,0,0,.06.651c5.263-1.009,5.489-4.063,7.226-11.305,1.9-7.917-2.163-15.793-5.448-19.45Z" transform="translate(-71.035 -5.972)" fill="#453535"/>
        <path id="Trazado_876690" data-name="Trazado 876690" d="M110.329,66.763a25.512,25.512,0,0,1,0,5.872,8.44,8.44,0,0,1-1.4,3.362c-.475.723-6.815,6.383-8.56,8.34s-3.7,25.722-3.7,25.722-1.468,9.128,2.553,15.446c-1.149,4.277-1.212,10.723-.255,12.766,3.447,3.957,13.851,6.766,28.212.83s16.276-15.7,16.276-15.7c2.3-3.7,4.212-16.085,4.212-20.553,1.915-8.936,3.256-24.638-.893-27.51s-6.575-3.255-10.787-3.957-6.319-1.4-7.531-3.383-1.213-9.434-1.213-9.434h-17.3Z" transform="translate(-44.202 -26.851)" fill="#ffb691"/>
        <path id="Trazado_876691" data-name="Trazado 876691" d="M170.352,135.3c4.773,3.624,7.029,5.876,7.9,7.135s1.149,4.946,1.149,4.946l1.121.116a64.963,64.963,0,0,0,1.048-9.467c.183-.854.361-1.77.529-2.731Z" transform="translate(-78.106 -62.035)" fill="#f0896c"/>
        <path id="Trazado_876692" data-name="Trazado 876692" d="M121.409,58.563l.382,8.2a31.259,31.259,0,0,1,.127,5.005,10.6,10.6,0,0,0,9.065-1.832c3.127-2.258,5.429-8.667,5.429-8.667V58.563Z" transform="translate(-55.666 -26.851)" fill="#f0896c"/>
        <path id="Trazado_876693" data-name="Trazado 876693" d="M98.7,30.818c-.4,7.973,1.438,14.842,7.8,17.024,6.693,2.3,17.946-.027,19.576-9.508,2.129.1,6.822-5.848,5.907-13.061s-5.324-15.3-17.728-14.752c-12.658.561-17.454,10.922-15.556,20.3" transform="translate(-45.072 -4.812)" fill="#ffb691"/>
        <path id="Trazado_876694" data-name="Trazado 876694" d="M111.511,52.292s-.033.244-.1.6-.179.831-.311,1.3a2.858,2.858,0,0,0-.042.306,1.331,1.331,0,0,0,.008.277.88.88,0,0,0,.057.232c.016.075.072.127.1.2a2.288,2.288,0,0,0,.249.289,1.135,1.135,0,0,1,.116.118l.013.016a.114.114,0,0,1-.019.155.111.111,0,0,1-.079.022,1.058,1.058,0,0,1-.181-.038,1.1,1.1,0,0,1-.458-.225,1.142,1.142,0,0,1-.234-.285,1.036,1.036,0,0,1-.141-.389,1.531,1.531,0,0,1-.012-.422,2.674,2.674,0,0,1,.071-.408c.152-.461.337-.913.473-1.253s.259-.557.259-.557l0-.005a.122.122,0,0,1,.231.071" transform="translate(-50.648 -23.913)" fill="#f0896c"/>
        <path id="Trazado_876695" data-name="Trazado 876695" d="M115.174,57.645c-.374-.025-.546-.441-.127-.54s.738.448.683.486a3.228,3.228,0,0,1-.556.054" transform="translate(-52.636 -26.178)" fill="#f0896c"/>
        <path id="Trazado_876696" data-name="Trazado 876696" d="M111.474,63.119c-.431.175-.431,1.872.939,2.831a5.242,5.242,0,0,0,5.619-.451c1.4-1.243,1.338-3.7.463-3.861s-5.318.791-7.021,1.48" transform="translate(-50.994 -28.253)" fill="#853e3c"/>
        <path id="Trazado_876697" data-name="Trazado 876697" d="M113.28,67.036a5.241,5.241,0,0,0,5.619-.451,3.472,3.472,0,0,0,1.087-2.422c-2.506-.642-5.979.559-6.874,2.741.055.045.108.09.168.132" transform="translate(-51.862 -29.34)" fill="#ff615c"/>
        <path id="Trazado_876698" data-name="Trazado 876698" d="M118.841,61.872a.566.566,0,0,0-.345-.233c-.873-.155-5.318.791-7.021,1.48-.146.06-.24.3-.252.616,1.849.543,5.94-.374,7.617-1.863" transform="translate(-50.996 -28.253)" fill="#fff"/>
        <path id="Trazado_876699" data-name="Trazado 876699" d="M131.7,46.626a1.444,1.444,0,1,1-1.334-1.66,1.509,1.509,0,0,1,1.334,1.66" transform="translate(-59.068 -20.615)" fill="#594545" fill-rule="evenodd"/>
        <path id="Trazado_876700" data-name="Trazado 876700" d="M105.43,47.75c-.007.826-.515,1.461-1.132,1.421a1.444,1.444,0,0,1-1.107-1.567c.009-.825.514-1.46,1.134-1.42a1.442,1.442,0,0,1,1.1,1.566" transform="translate(-47.313 -21.174)" fill="#594545" fill-rule="evenodd"/>
        <path id="Trazado_876701" data-name="Trazado 876701" d="M125.3,45.9l.118-.221a3.127,3.127,0,0,1,1.215-1.112,2.754,2.754,0,0,1,.526-.223,2.812,2.812,0,0,1,.595-.122,3.358,3.358,0,0,1,.617,0,2.153,2.153,0,0,1,.586.133,2.439,2.439,0,0,1,.5.251,3.967,3.967,0,0,1,.374.314,2.072,2.072,0,0,1,.387.6,1.487,1.487,0,0,1,.066.191c.014.046.019.07.019.07a.089.089,0,0,1-.061.113.085.085,0,0,1-.052,0,2.2,2.2,0,0,1-.23-.091c-.073-.027-.144-.077-.244-.11l-.306-.13a5.577,5.577,0,0,0-.738-.234,3.567,3.567,0,0,0-.412-.076,2.3,2.3,0,0,0-.436-.016,4.183,4.183,0,0,0-.442.04c-.147.032-.292.058-.433.1s-.273.091-.406.132-.251.1-.361.15a4.335,4.335,0,0,0-.541.265l-.216.114a.095.095,0,0,1-.127-.127Z" transform="translate(-57.441 -20.269)" fill="#453535"/>
        <path id="Trazado_876702" data-name="Trazado 876702" d="M101.15,47.206a1.354,1.354,0,0,1-.062-.235.942.942,0,0,1,0-.29,1.473,1.473,0,0,1,.107-.368,1.36,1.36,0,0,1,.255-.381,1.507,1.507,0,0,1,.414-.33,1.888,1.888,0,0,1,.544-.174,2.114,2.114,0,0,1,.571-.022,2.684,2.684,0,0,1,.536.128,2.153,2.153,0,0,1,.445.229,1.934,1.934,0,0,1,.356.275,2.1,2.1,0,0,1,.269.285c.07.1.137.182.189.262l.119.22c.055.126.089.2.089.2v0a.085.085,0,0,1-.042.112.083.083,0,0,1-.074,0l-.18-.093a3.347,3.347,0,0,0-.448-.24,4.356,4.356,0,0,0-.624-.26c-.112-.043-.231-.054-.344-.089a1.8,1.8,0,0,0-.342-.024,1.144,1.144,0,0,0-.322.031,2.572,2.572,0,0,0-.286.093c-.088.048-.175.085-.257.135s-.154.107-.232.154c-.061.061-.149.106-.195.158a1.386,1.386,0,0,0-.162.142,1.5,1.5,0,0,1-.156.15.1.1,0,0,1-.148-.017.068.068,0,0,1-.014-.026Z" transform="translate(-46.344 -20.813)" fill="#453535"/>
        <path id="Trazado_876703" data-name="Trazado 876703" d="M123.736,39.652a9.6,9.6,0,0,1,6.055-.3c-.892-.733-2.413-1.431-5.14-1.066-1.042.176-1.138,1.087-.914,1.364" transform="translate(-56.687 -17.509)" fill="#453535"/>
        <path id="Trazado_876704" data-name="Trazado 876704" d="M104.01,41.871a3.832,3.832,0,0,0-3.747.381,2.724,2.724,0,0,1,2.67-1.653,1.189,1.189,0,0,1,1.077,1.272" transform="translate(-45.97 -18.614)" fill="#453535"/>
        <path id="Trazado_876705" data-name="Trazado 876705" d="M132.168,26.911c2.449-4.492,1-11.148,1-11.148C131.924,11.3,128.8,3.073,117.347.623,107.16-1.556,99.232,2.412,96.225,6.036c-5.5.348-7.489,9.024-6.631,11.918.868,2.923,2.227,5.159,4.676,5.452a12.873,12.873,0,0,1,.028-3.3,4.9,4.9,0,0,0,3.9,3.137.268.268,0,0,0,.354-.162s-2.423-7.758,2.162-11.42c-.964,4.943,1.825,9.982,7.32,10.482l.3-.114a9.5,9.5,0,0,1-2.394-5.4c3.311,4.373,7.86,7.544,12.74,7.961l3.244,1.358.288,6.695a2.916,2.916,0,0,0,2.745,1.858c3.754-.238,6.954-2.4,7.206-7.593" transform="translate(-40.991 0)" fill="#594545"/>
        <path id="Trazado_876706" data-name="Trazado 876706" d="M146.9,48.752c.768-2.021,2.211-3.433,3.693-2.905s1.948,3.142,1.7,4.886-2.4,3.814-4.1,3.76l-1.66-.109Z" transform="translate(-67.185 -20.97)" fill="#ffb691"/>
        <path id="Trazado_876707" data-name="Trazado 876707" d="M149.429,57.719a.815.815,0,1,0,.816-.94.886.886,0,0,0-.816.94" transform="translate(-68.513 -26.033)" fill="#594545"/>
        <path id="Trazado_876708" data-name="Trazado 876708" d="M144.317,40.1c-1.093,4.471,2.452,8.454,2.839,7.553.44-1.027.791-4.679,1.6-7.553Z" transform="translate(-66.073 -18.387)" fill="#594545"/>
        <path id="Trazado_876709" data-name="Trazado 876709" d="M144.071,119.768c.059-.853.064-1.447.064-1.447-3.934,2.484-12.342,1.537-14.384-8.1s2.17-20.489,7.712-27.216c-.458-.536-4.265-1.443-5.086-1.007-2.735,2.1-9.584,10.734-18.462,14.819s-15.951-.957-15.652-2.893c0,0-6.617,5-8.213,11.547C87.9,114.277,92.6,122.092,92.6,122.092c7.138,1.9,29.907,5.464,51.468-2.324" transform="translate(-41.03 -37.543)" fill="#a8cc5a"/>
        <path id="Trazado_876710" data-name="Trazado 876710" d="M95.242,154.17,95.874,158s2.431,3,14.878,3.128,26.17-1.277,35.072-4.6a16.645,16.645,0,0,0,.885-4.68c-21.561,7.788-44.33,4.228-51.467,2.324" transform="translate(-43.668 -69.621)" fill="#fff"/>
        <path id="Trazado_876711" data-name="Trazado 876711" d="M107.421,182.607l.145.044c.1.035.227.047.392.09a5.643,5.643,0,0,0,.606.117c.243.031.5.1.8.129s.619.06.956.1a3.114,3.114,0,0,0,.524.033l.55.024.566.026a4.228,4.228,0,0,0,.582.016c.394-.009.793-.032,1.193-.029a7.986,7.986,0,0,0,1.195-.05l1.163-.095c.376-.038.747-.033,1.093-.075s.674-.094.979-.134c1.216-.156,2.06-.186,2.06-.186h.025a.276.276,0,0,1,.119.53s-.773.332-1.985.721c-.3.1-.63.206-.981.3s-.734.153-1.127.218l-1.217.2a8.719,8.719,0,0,1-1.272.094c-.429.019-.859.011-1.281.018a9.189,9.189,0,0,1-1.242-.112,7.831,7.831,0,0,1-1.153-.186c-.363-.092-.7-.182-1.015-.276a6.567,6.567,0,0,1-.834-.324l-.34-.148-.288-.164a3.073,3.073,0,0,1-.5-.33l-.013-.012a.319.319,0,0,1,.3-.543" transform="translate(-49.063 -83.718)" fill="#f0896c"/>
        <path id="Trazado_876712" data-name="Trazado 876712" d="M116.88,196.827c1.659,1.086,2.011,2.809,1.276,3.67-.491.577-1.563,0-1.468-.861a1.442,1.442,0,0,1,.671-1.15s-.928-2.011-.479-1.659" transform="translate(-53.498 -90.226)" fill="#f0896c"/>
        <path id="Trazado_876713" data-name="Trazado 876713" d="M32.151,171.6c-1.591.844-4.78,5.2-5.377,5.967a35.258,35.258,0,0,0-.425,4.107,35.756,35.756,0,0,0,1.34,3.552c.425,1.021.915,1.107,1.511.724a3.186,3.186,0,0,0,1.064-2.681,11.283,11.283,0,0,1-.341-2.787,6.07,6.07,0,0,1,1.02-1.766l.846-.021L33.9,174.27Z" transform="translate(-12.073 -78.678)" fill="#ffb691"/>
        <path id="Trazado_876714" data-name="Trazado 876714" d="M30.543,180.623a24.728,24.728,0,0,0-.668,3.946,35.553,35.553,0,0,0,.845,3.7,2.764,2.764,0,0,0,.2.531,3.26,3.26,0,0,0,.972-2.607,11.325,11.325,0,0,1-.341-2.786,6.086,6.086,0,0,1,1.021-1.766l.846-.022,1.738-3.64a9.754,9.754,0,0,0-4.609,2.643" transform="translate(-13.697 -81.603)" fill="#f0896c"/>
        <path id="Trazado_876715" data-name="Trazado 876715" d="M35.212,179.41l.745-3.234a9.625,9.625,0,0,0-5.3,3.6,24.839,24.839,0,0,0-.128,4,35.87,35.87,0,0,0,1.34,3.552c.426,1.021.915,1.107,1.511.724a3.186,3.186,0,0,0,1.064-2.681,11.335,11.335,0,0,1-.341-2.787c.17-.722,1.106-3.171,1.106-3.171" transform="translate(-13.979 -80.776)" fill="#ffb691"/>
        <path id="Trazado_876716" data-name="Trazado 876716" d="M37.164,179.41l.745-3.234a8.619,8.619,0,0,0-2.1.833,5.955,5.955,0,0,0-.566,1.751,24.815,24.815,0,0,0-.485,3.972,35.633,35.633,0,0,0,1.017,3.658,2.326,2.326,0,0,0,.316.673,3.409,3.409,0,0,0,.313-1.7,11.336,11.336,0,0,1-.341-2.787c.17-.722,1.106-3.171,1.106-3.171" transform="translate(-15.931 -80.776)" fill="#f0896c"/>
        <path id="Trazado_876717" data-name="Trazado 876717" d="M44.909,172.051c.022,1.638,0,3.446,0,4.3a6.418,6.418,0,0,1-.851,2.468c-.319.681-.787,1.851-.851,2.043s-1.724.319-1.787-1.489.106-2.234,0-2.49A11.551,11.551,0,0,0,40.4,175.6s-.936,2.447-1.106,3.171a11.329,11.329,0,0,0,.341,2.787,3.187,3.187,0,0,1-1.064,2.682c-.6.383-1.085.3-1.511-.724a35.982,35.982,0,0,1-1.34-3.553,24.846,24.846,0,0,1,.128-4c.127-1.277.425-2.256,1.064-2.575s8-1.34,8-1.34" transform="translate(-16.357 -78.885)" fill="#ffb691"/>
        <path id="Trazado_876718" data-name="Trazado 876718" d="M175.074,85.174c7.531,2.684,13.849,10.6,16.4,14.556,5.681,4.66,13.851,13.735,14.872,14.495s6.638,2.739,9.829,4.526,18.029,11.17,18.029,11.17l-15.017,7.03s-13.671-4.78-18.076-6.383a63.734,63.734,0,0,1-10.084-4.645c-2.362-1.363-13.723-8.7-14.426-9.341a73.22,73.22,0,0,1-8.936-5.106s-2.806-16.919,7.405-26.3" transform="translate(-76.714 -39.052)" fill="#ffb691"/>
        <path id="Trazado_876719" data-name="Trazado 876719" d="M235.835,140.332a.786.786,0,0,1-.045.2,2.322,2.322,0,0,1-.438.79,1.559,1.559,0,0,1-.271.295c-.1.093-.211.19-.326.28a2.688,2.688,0,0,1-.375.23c-.129.071-.26.14-.391.2l-.407.124c-.13.042-.262.064-.382.1a2.019,2.019,0,0,1-.353.028,3.553,3.553,0,0,1-.725-.037.1.1,0,0,1-.04-.173l.01-.008a4.163,4.163,0,0,1,.6-.354c.089-.046.187-.086.285-.141s.195-.122.3-.175l.326-.166.318-.2c.1-.067.223-.114.322-.186s.2-.132.3-.191.194-.126.285-.184.182-.115.264-.168c.154-.114.3-.2.4-.265s.164-.109.164-.109a.11.11,0,0,1,.156.022.107.107,0,0,1,.023.07Z" transform="translate(-106.391 -64.282)" fill="#f0896c"/>
        <path id="Trazado_876720" data-name="Trazado 876720" d="M258.5,173.963l2.5.875,15.018-7.029Z" transform="translate(-118.52 -76.939)" fill="#f0896c"/>
        <path id="Trazado_876721" data-name="Trazado 876721" d="M308.44,176.353c-.355-.995-2.532-1.234-4.063-1.106s-2.043,1.83-1.149,2.532a5.309,5.309,0,0,0,3.574,1c.936-.212,1.957-1.532,1.638-2.425" transform="translate(-138.828 -80.336)" fill="#ffb691"/>
        <path id="Trazado_876722" data-name="Trazado 876722" d="M304.668,182.05c-.355-.994-2.532-1.234-4.063-1.106s-2.042,1.83-1.149,2.532a5.308,5.308,0,0,0,3.574,1c.936-.212,1.957-1.532,1.638-2.425" transform="translate(-137.098 -82.948)" fill="#ffb691"/>
        <path id="Trazado_876723" data-name="Trazado 876723" d="M301.068,187.845c-.332-.928-2.363-1.151-3.792-1.032a1.4,1.4,0,0,0-1.071,2.361,4.948,4.948,0,0,0,3.334.933c.873-.2,1.826-1.429,1.529-2.263" transform="translate(-135.621 -85.64)" fill="#ffb691"/>
      </g>
    </g>
    <g id="Grupo_1101257" data-name="Grupo 1101257" transform="translate(98.051 2800)">
      <g id="Grupo_1101258" data-name="Grupo 1101258">
        <path id="Trazado_876724" data-name="Trazado 876724" d="M298.918,14.994c-6.584-1.549-7.516-2.48-9.064-9.064a1.457,1.457,0,0,0-2.837,0c-1.55,6.584-2.482,7.515-9.066,9.064a1.458,1.458,0,0,0,0,2.838c6.584,1.549,7.516,2.481,9.066,9.065a1.457,1.457,0,0,0,2.837,0c1.548-6.584,2.48-7.516,9.064-9.065a1.458,1.458,0,0,0,0-2.838" fill="#7bab4b"/>
        <path id="Trazado_876728" data-name="Trazado 876728" d="M292.783,12.164c-4.755-1.119-5.429-1.791-6.547-6.547a1.052,1.052,0,0,0-2.049,0c-1.12,4.755-1.793,5.428-6.548,6.547a1.053,1.053,0,0,0,0,2.05c4.755,1.119,5.429,1.792,6.548,6.547a1.053,1.053,0,0,0,2.049,0c1.118-4.755,1.791-5.429,6.547-6.547a1.053,1.053,0,0,0,0-2.05" transform="translate(-135.776 -24.796)" fill="#7bab4b"/>
        <path id="Trazado_876725" data-name="Trazado 876725" d="M356.29,7.2C351.635,6.109,350.975,5.45,349.88.8a1.03,1.03,0,0,0-2.006,0c-1.1,4.655-1.754,5.314-6.409,6.409a1.031,1.031,0,0,0,0,2.006c4.655,1.1,5.313,1.754,6.409,6.409a1.03,1.03,0,0,0,2.006,0c1.1-4.655,1.755-5.314,6.41-6.409a1.031,1.031,0,0,0,0-2.006" fill="#ff6b77"/>
        <path id="Trazado_876727" data-name="Trazado 876727" d="M8.907,85.225a.866.866,0,0,0-.885.284L5.993,87.945,1.515,82.871a.866.866,0,0,0-1.5.731L2.289,95.845a.866.866,0,0,0,1.517.4l2.031-2.436,4.476,5.074a.868.868,0,0,0,1.03.205.861.861,0,0,0,.471-.937L9.54,85.906a.868.868,0,0,0-.633-.681" transform="translate(119 -13)" fill="#ff6b77"/>
      </g>
    </g>
  </g>
</svg>
